CascadiaAR.glyphspackage
{
color = 10;
glyphname = degree;
layers = (
{
layerId = master01;
paths = (
{
closed = 1;
nodes = (
"840 690 OFFCURVE",
"982 829 OFFCURVE",
"982 1065 CURVE SMOOTH",
"982 1301 OFFCURVE",
"840 1440 OFFCURVE",
"600 1440 CURVE SMOOTH",
"360 1440 OFFCURVE",
"218 1301 OFFCURVE",
"218 1065 CURVE SMOOTH",
"218 829 OFFCURVE",
"360 690 OFFCURVE",
"600 690 CURVE SMOOTH"
);
},
{
closed = 1;
nodes = (
"420 782 OFFCURVE",
"314 887 OFFCURVE",
"314 1065 CURVE SMOOTH",
"314 1243 OFFCURVE",
"420 1348 OFFCURVE",
"600 1348 CURVE SMOOTH",
"780 1348 OFFCURVE",
"886 1243 OFFCURVE",
"886 1065 CURVE SMOOTH",
"886 887 OFFCURVE",
"780 782 OFFCURVE",
"600 782 CURVE SMOOTH"
);
}
);
width = 1200;
},
{
layerId = "1F90C004-9C90-48FA-B407-176B3E9F1E65";
paths = (
{
closed = 1;
nodes = (
"840 690 OFFCURVE",
"982 829 OFFCURVE",
"982 1065 CURVE SMOOTH",
"982 1301 OFFCURVE",
"840 1440 OFFCURVE",
"600 1440 CURVE SMOOTH",
"360 1440 OFFCURVE",
"218 1301 OFFCURVE",
"218 1065 CURVE SMOOTH",
"218 829 OFFCURVE",
"360 690 OFFCURVE",
"600 690 CURVE SMOOTH"
);
},
{
closed = 1;
nodes = (
"482 860 OFFCURVE",
"413 936 OFFCURVE",
"413 1065 CURVE SMOOTH",
"413 1194 OFFCURVE",
"482 1270 OFFCURVE",
"600 1270 CURVE SMOOTH",
"718 1270 OFFCURVE",
"787 1194 OFFCURVE",
"787 1065 CURVE SMOOTH",
"787 936 OFFCURVE",
"718 860 OFFCURVE",
"600 860 CURVE SMOOTH"
);
}
);
width = 1200;
},
{
layerId = "8E053A5E-67DA-4970-A6F5-068DBFE5AD21";
paths = (
{
closed = 1;
nodes = (
"836 690 OFFCURVE",
"994 840 OFFCURVE",
"994 1065 CURVE SMOOTH",
"994 1290 OFFCURVE",
"836 1440 OFFCURVE",
"600 1440 CURVE SMOOTH",
"364 1440 OFFCURVE",
"206 1290 OFFCURVE",
"206 1065 CURVE SMOOTH",
"206 840 OFFCURVE",
"364 690 OFFCURVE",
"600 690 CURVE SMOOTH"
);
},
{
closed = 1;
nodes = (
"504 892 OFFCURVE",
"440 961 OFFCURVE",
"440 1065 CURVE SMOOTH",
"440 1169 OFFCURVE",
"504 1238 OFFCURVE",
"600 1238 CURVE SMOOTH",
"696 1238 OFFCURVE",
"760 1169 OFFCURVE",
"760 1065 CURVE SMOOTH",
"760 961 OFFCURVE",
"696 892 OFFCURVE",
"600 892 CURVE SMOOTH"
);
}
);
width = 1200;
}
);
unicode = 00B0;
}
{
color = 10;
glyphname = J;
layers = (
{
anchors = (
{
name = bottom;
position = "{600, 0}";
},
{
name = top;
position = "{790, 1420}";
}
);
layerId = master01;
paths = (
{
closed = 1;
nodes = (
"884 -20 OFFCURVE",
"1038 144 OFFCURVE",
"1038 476 CURVE SMOOTH",
"1038 1420 LINE",
"944 1420 LINE",
"944 476 LINE SMOOTH",
"944 205 OFFCURVE",
"823 70 OFFCURVE",
"579 70 CURVE SMOOTH",
"330 70 OFFCURVE",
"206 205 OFFCURVE",
"206 476 CURVE",
"110 476 LINE",
"110 144 OFFCURVE",
"264 -20 OFFCURVE",
"574 -20 CURVE SMOOTH"
);
},
{
closed = 1;
nodes = (
"996 1330 LINE",
"996 1420 LINE",
"490 1420 LINE",
"490 1330 LINE"
);
}
);
width = 1200;
},
{
anchors = (
{
name = bottom;
position = "{600, 0}";
},
{
name = top;
position = "{790, 1420}";
}
);
layerId = "1F90C004-9C90-48FA-B407-176B3E9F1E65";
paths = (
{
closed = 1;
nodes = (
"880 -20 OFFCURVE",
"1062 161 OFFCURVE",
"1062 476 CURVE SMOOTH",
"1062 1420 LINE",
"854 1420 LINE",
"854 476 LINE SMOOTH",
"854 274 OFFCURVE",
"755 160 OFFCURVE",
"579 160 CURVE SMOOTH",
"397 160 OFFCURVE",
"294 276 OFFCURVE",
"294 476 CURVE",
"86 476 LINE",
"86 162 OFFCURVE",
"262 -20 OFFCURVE",
"574 -20 CURVE SMOOTH"
);
},
{
closed = 1;
nodes = (
"956 1230 LINE",
"956 1420 LINE",
"490 1420 LINE",
"490 1230 LINE"
);
}
);
width = 1200;
},
{
anchors = (
{
name = bottom;
position = "{600, 0}";
},
{
name = top;
position = "{790, 1420}";
}
);
layerId = "8E053A5E-67DA-4970-A6F5-068DBFE5AD21";
paths = (
{
closed = 1;
nodes = (
"891 -20 OFFCURVE",
"1079 164 OFFCURVE",
"1079 484 CURVE SMOOTH",
"1079 1420 LINE",
"815 1420 LINE",
"815 484 LINE SMOOTH",
"815 322 OFFCURVE",
"730 231 OFFCURVE",
"579 231 CURVE SMOOTH",
"430 231 OFFCURVE",
"344 324 OFFCURVE",
"344 484 CURVE",
"69 484 LINE",
"69 165 OFFCURVE",
"251 -20 OFFCURVE",
"574 -20 CURVE SMOOTH"
);
},
{
closed = 1;
nodes = (
"956 1177 LINE",
"956 1420 LINE",
"490 1420 LINE",
"490 1177 LINE"
);
}
);
width = 1200;
}
);
unicode = 004A;
}
{
color = 10;
glyphname = bracketleft;
layers = (
{
layerId = master01;
paths = (
{
closed = 1;
nodes = (
"490 -214 LINE",
"490 1634 LINE",
"396 1634 LINE",
"396 -214 LINE"
);
},
{
closed = 1;
nodes = (
"974 -214 LINE",
"974 -124 LINE",
"470 -124 LINE",
"470 -214 LINE"
);
},
{
closed = 1;
nodes = (
"974 1544 LINE",
"974 1634 LINE",
"470 1634 LINE",
"470 1544 LINE"
);
}
);
width = 1200;
},
{
layerId = "1F90C004-9C90-48FA-B407-176B3E9F1E65";
paths = (
{
closed = 1;
nodes = (
"580 -214 LINE",
"580 1634 LINE",
"372 1634 LINE",
"372 -214 LINE"
);
},
{
closed = 1;
nodes = (
"998 -214 LINE",
"998 -24 LINE",
"560 -24 LINE",
"560 -214 LINE"
);
},
{
closed = 1;
nodes = (
"998 1444 LINE",
"998 1634 LINE",
"560 1634 LINE",
"560 1444 LINE"
);
}
);
width = 1200;
},
{
layerId = "8E053A5E-67DA-4970-A6F5-068DBFE5AD21";
paths = (
{
closed = 1;
nodes = (
"619 -214 LINE",
"619 1634 LINE",
"355 1634 LINE",
"355 -214 LINE"
);
},
{
closed = 1;
nodes = (
"1015 -214 LINE",
"1015 38 LINE",
"599 38 LINE",
"599 -214 LINE"
);
},
{
closed = 1;
nodes = (
"1015 1382 LINE",
"1015 1634 LINE",
"599 1634 LINE",
"599 1382 LINE"
);
}
);
width = 1200;
}
);
unicode = 005B;
}
{
glyphname = "asteriskArt-ar";
layers = (
{
layerId = master01;
paths = (
{
closed = 1;
nodes = (
"1176 335 LINE",
"599 912 LINE",
"24 337 LINE",
"601 -240 LINE"
);
},
{
closed = 1;
nodes = (
"79 339 LINE",
"599 857 LINE",
"1120 337 LINE",
"601 -184 LINE"
);
},
{
closed = 1;
nodes = (
"1009 -70 LINE",
"1009 743 LINE",
"193 743 LINE",
"193 -70 LINE"
);
},
{
closed = 1;
nodes = (
"231 705 LINE",
"969 705 LINE",
"969 -30 LINE",
"231 -30 LINE"
);
},
{
closed = 1;
nodes = (
"660 229 OFFCURVE",
"710 279 OFFCURVE",
"710 340 CURVE SMOOTH",
"710 400 OFFCURVE",
"660 450 OFFCURVE",
"600 450 CURVE SMOOTH",
"540 450 OFFCURVE",
"490 400 OFFCURVE",
"490 340 CURVE SMOOTH",
"490 279 OFFCURVE",
"540 229 OFFCURVE",
"600 229 CURVE SMOOTH"
);
},
{
closed = 1;
nodes = (
"558 264 OFFCURVE",
"525 299 OFFCURVE",
"525 340 CURVE SMOOTH",
"525 381 OFFCURVE",
"558 415 OFFCURVE",
"600 415 CURVE SMOOTH",
"642 415 OFFCURVE",
"675 381 OFFCURVE",
"675 340 CURVE SMOOTH",
"675 299 OFFCURVE",
"642 264 OFFCURVE",
"600 264 CURVE SMOOTH"
);
}
);
width = 1200;
},
{
layerId = "8E053A5E-67DA-4970-A6F5-068DBFE5AD21";
paths = (
{
closed = 1;
nodes = (
"1176 335 LINE",
"599 912 LINE",
"24 337 LINE",
"601 -240 LINE"
);
},
{
closed = 1;
nodes = (
"79 339 LINE",
"599 857 LINE",
"1120 337 LINE",
"601 -184 LINE"
);
},
{
closed = 1;
nodes = (
"1009 -70 LINE",
"1009 743 LINE",
"193 743 LINE",
"193 -70 LINE"
);
},
{
closed = 1;
nodes = (
"231 705 LINE",
"969 705 LINE",
"969 -30 LINE",
"231 -30 LINE"
);
},
{
closed = 1;
nodes = (
"660 229 OFFCURVE",
"710 279 OFFCURVE",
"710 340 CURVE SMOOTH",
"710 400 OFFCURVE",
"660 450 OFFCURVE",
"600 450 CURVE SMOOTH",
"540 450 OFFCURVE",
"490 400 OFFCURVE",
"490 340 CURVE SMOOTH",
"490 279 OFFCURVE",
"540 229 OFFCURVE",
"600 229 CURVE SMOOTH"
);
},
{
closed = 1;
nodes = (
"558 264 OFFCURVE",
"525 299 OFFCURVE",
"525 340 CURVE SMOOTH",
"525 381 OFFCURVE",
"558 415 OFFCURVE",
"600 415 CURVE SMOOTH",
"642 415 OFFCURVE",
"675 381 OFFCURVE",
"675 340 CURVE SMOOTH",
"675 299 OFFCURVE",
"642 264 OFFCURVE",
"600 264 CURVE SMOOTH"
);
}
);
width = 1200;
},
{
layerId = "1F90C004-9C90-48FA-B407-176B3E9F1E65";
paths = (
{
closed = 1;
nodes = (
"1176 335 LINE",
"599 912 LINE",
"24 337 LINE",
"601 -240 LINE"
);
},
{
closed = 1;
nodes = (
"79 339 LINE",
"599 857 LINE",
"1120 337 LINE",
"601 -184 LINE"
);
},
{
closed = 1;
nodes = (
"1009 -70 LINE",
"1009 743 LINE",
"193 743 LINE",
"193 -70 LINE"
);
},
{
closed = 1;
nodes = (
"231 705 LINE",
"969 705 LINE",
"969 -30 LINE",
"231 -30 LINE"
);
},
{
closed = 1;
nodes = (
"660 229 OFFCURVE",
"710 279 OFFCURVE",
"710 340 CURVE SMOOTH",
"710 400 OFFCURVE",
"660 450 OFFCURVE",
"600 450 CURVE SMOOTH",
"540 450 OFFCURVE",
"490 400 OFFCURVE",
"490 340 CURVE SMOOTH",
"490 279 OFFCURVE",
"540 229 OFFCURVE",
"600 229 CURVE SMOOTH"
);
},
{
closed = 1;
nodes = (
"558 264 OFFCURVE",
"525 299 OFFCURVE",
"525 340 CURVE SMOOTH",
"525 381 OFFCURVE",
"558 415 OFFCURVE",
"600 415 CURVE SMOOTH",
"642 415 OFFCURVE",
"675 381 OFFCURVE",
"675 340 CURVE SMOOTH",
"675 299 OFFCURVE",
"642 264 OFFCURVE",
"600 264 CURVE SMOOTH"
);
}
);
width = 1200;
}
);
unicode = 06DE;
}
{
glyphname = "endofayah-ar";
layers = (
{
layerId = master01;
paths = (
{
closed = 1;
nodes = (
"166 -70 LINE",
"95 25 OFFCURVE",
"57 141 OFFCURVE",
"57 255 CURVE SMOOTH",
"57 370 OFFCURVE",
"92 491 OFFCURVE",
"167 587 CURVE",
"139 618 LINE",
"57 512 OFFCURVE",
"15 385 OFFCURVE",
"15 257 CURVE SMOOTH",
"15 130 OFFCURVE",
"57 3 OFFCURVE",
"139 -103 CURVE"
);
},
{
closed = 1;
nodes = (
"266 556 OFFCURVE",
"308 597 OFFCURVE",
"308 648 CURVE SMOOTH",
"308 698 OFFCURVE",
"267 740 OFFCURVE",
"216 740 CURVE SMOOTH",
"166 740 OFFCURVE",
"124 698 OFFCURVE",
"124 648 CURVE SMOOTH",
"124 596 OFFCURVE",
"167 556 OFFCURVE",
"216 556 CURVE SMOOTH"
);
},
{
closed = 1;
nodes = (
"181 590 OFFCURVE",
"159 617 OFFCURVE",
"159 648 CURVE SMOOTH",
"159 680 OFFCURVE",
"184 705 OFFCURVE",
"215 705 CURVE SMOOTH",
"248 705 OFFCURVE",
"273 679 OFFCURVE",
"273 648 CURVE SMOOTH",
"273 615 OFFCURVE",
"247 590 OFFCURVE",
"216 590 CURVE SMOOTH"
);
},
{
closed = 1;
nodes = (
"957 721 LINE",
"852 802 OFFCURVE",
"726 842 OFFCURVE",
"600 842 CURVE SMOOTH",
"476 842 OFFCURVE",
"353 804 OFFCURVE",
"250 726 CURVE",
"279 698 LINE",
"373 767 OFFCURVE",
"488 801 OFFCURVE",
"601 801 CURVE SMOOTH",
"716 801 OFFCURVE",
"831 766 OFFCURVE",
"926 695 CURVE"
);
},
{
closed = 1;
nodes = (
"1041 555 OFFCURVE",
"1084 595 OFFCURVE",
"1084 647 CURVE SMOOTH",
"1084 697 OFFCURVE",
"1043 739 OFFCURVE",
"992 739 CURVE SMOOTH",
"942 739 OFFCURVE",
"900 697 OFFCURVE",
"900 647 CURVE SMOOTH",
"900 597 OFFCURVE",
"942 555 OFFCURVE",
"992 555 CURVE SMOOTH"
);
},
{
closed = 1;
nodes = (
"960 590 OFFCURVE",
"935 614 OFFCURVE",
"935 647 CURVE SMOOTH",
"935 678 OFFCURVE",
"959 705 OFFCURVE",
"992 705 CURVE SMOOTH",
"1023 705 OFFCURVE",
"1049 680 OFFCURVE",
"1049 647 CURVE SMOOTH",
"1049 616 OFFCURVE",
"1026 590 OFFCURVE",
"992 590 CURVE SMOOTH"
);
},
{
closed = 1;
nodes = (
"1145 3 OFFCURVE",
"1185 130 OFFCURVE",
"1185 257 CURVE SMOOTH",
"1185 385 OFFCURVE",
"1144 512 OFFCURVE",
"1062 617 CURVE",
"1035 585 LINE",
"1108 490 OFFCURVE",
"1144 369 OFFCURVE",
"1144 255 CURVE SMOOTH",
"1144 141 OFFCURVE",
"1107 27 OFFCURVE",
"1038 -68 CURVE",
"1063 -102 LINE"
);
},
{
closed = 1;
nodes = (
"1048 -227 OFFCURVE",
"1090 -186 OFFCURVE",
"1090 -135 CURVE SMOOTH",
"1090 -84 OFFCURVE",
"1048 -43 OFFCURVE",
"998 -43 CURVE SMOOTH",
"948 -43 OFFCURVE",
"906 -85 OFFCURVE",
"906 -135 CURVE SMOOTH",
"906 -185 OFFCURVE",
"947 -227 OFFCURVE",
"998 -227 CURVE SMOOTH"
);
},
{
closed = 1;
nodes = (
"963 -192 OFFCURVE",
"941 -166 OFFCURVE",
"941 -135 CURVE SMOOTH",
"941 -102 OFFCURVE",
"966 -78 OFFCURVE",
"997 -78 CURVE SMOOTH",
"1030 -78 OFFCURVE",
"1055 -103 OFFCURVE",
"1055 -135 CURVE SMOOTH",
"1055 -168 OFFCURVE",
"1029 -192 OFFCURVE",
"998 -192 CURVE SMOOTH"
);
},
{
closed = 1;
nodes = (
"731 -329 OFFCURVE",
"857 -289 OFFCURVE",
"962 -208 CURVE",
"931 -181 LINE",
"836 -252 OFFCURVE",
"721 -288 OFFCURVE",
"607 -288 CURVE SMOOTH",
"486 -288 OFFCURVE",
"373 -250 OFFCURVE",
"279 -180 CURVE",
"255 -212 LINE",
"358 -290 OFFCURVE",
"481 -329 OFFCURVE",
"605 -329 CURVE SMOOTH"
);
},
{
closed = 1;
nodes = (
"261 -227 OFFCURVE",
"303 -185 OFFCURVE",
"303 -135 CURVE SMOOTH",
"303 -85 OFFCURVE",
"261 -43 OFFCURVE",
"211 -43 CURVE SMOOTH",
"162 -43 OFFCURVE",
"119 -84 OFFCURVE",
"119 -135 CURVE SMOOTH",
"119 -186 OFFCURVE",
"160 -227 OFFCURVE",
"210 -227 CURVE SMOOTH"
);
},
{
closed = 1;
nodes = (
"178 -192 OFFCURVE",
"154 -168 OFFCURVE",
"154 -135 CURVE SMOOTH",
"154 -103 OFFCURVE",
"178 -78 OFFCURVE",
"211 -78 CURVE SMOOTH",
"242 -78 OFFCURVE",
"268 -102 OFFCURVE",
"268 -135 CURVE SMOOTH",
"268 -166 OFFCURVE",
"244 -192 OFFCURVE",
"210 -192 CURVE SMOOTH"
);
},
{
closed = 1;
nodes = (
"924 -153 LINE",
"924 -113 LINE",
"293 -113 LINE",
"293 -153 LINE"
);
},
{
closed = 1;
nodes = (
"924 625 LINE",
"924 665 LINE",
"293 665 LINE",
"293 625 LINE"
);
}
);
width = 1200;
},
{
layerId = "8E053A5E-67DA-4970-A6F5-068DBFE5AD21";
paths = (
{
closed = 1;
nodes = (
"166 -70 LINE",
"95 25 OFFCURVE",
"57 141 OFFCURVE",
"57 255 CURVE SMOOTH",
"57 370 OFFCURVE",
"92 491 OFFCURVE",
"167 587 CURVE",
"139 618 LINE",
"57 512 OFFCURVE",
"15 385 OFFCURVE",
"15 257 CURVE SMOOTH",
"15 130 OFFCURVE",
"57 3 OFFCURVE",
"139 -103 CURVE"
);
},
{
closed = 1;
nodes = (
"266 556 OFFCURVE",
"308 597 OFFCURVE",
"308 648 CURVE SMOOTH",
"308 698 OFFCURVE",
"267 740 OFFCURVE",
"216 740 CURVE SMOOTH",
"166 740 OFFCURVE",
"124 698 OFFCURVE",
"124 648 CURVE SMOOTH",
"124 596 OFFCURVE",
"167 556 OFFCURVE",
"216 556 CURVE SMOOTH"
);
},
{
closed = 1;
nodes = (
"181 590 OFFCURVE",
"159 617 OFFCURVE",
"159 648 CURVE SMOOTH",
"159 680 OFFCURVE",
"184 705 OFFCURVE",
"215 705 CURVE SMOOTH",
"248 705 OFFCURVE",
"273 679 OFFCURVE",
"273 648 CURVE SMOOTH",
"273 615 OFFCURVE",
"247 590 OFFCURVE",
"216 590 CURVE SMOOTH"
);
},
{
closed = 1;
nodes = (
"957 721 LINE",
"852 802 OFFCURVE",
"726 842 OFFCURVE",
"600 842 CURVE SMOOTH",
"476 842 OFFCURVE",
"353 804 OFFCURVE",
"250 726 CURVE",
"279 698 LINE",
"373 767 OFFCURVE",
"488 801 OFFCURVE",
"601 801 CURVE SMOOTH",
"716 801 OFFCURVE",
"831 766 OFFCURVE",
"926 695 CURVE"
);
},
{
closed = 1;
nodes = (
"1041 555 OFFCURVE",
"1084 595 OFFCURVE",
"1084 647 CURVE SMOOTH",
"1084 697 OFFCURVE",
"1043 739 OFFCURVE",
"992 739 CURVE SMOOTH",
"942 739 OFFCURVE",
"900 697 OFFCURVE",
"900 647 CURVE SMOOTH",
"900 597 OFFCURVE",
"942 555 OFFCURVE",
"992 555 CURVE SMOOTH"
);
},
{
closed = 1;
nodes = (
"960 590 OFFCURVE",
"935 614 OFFCURVE",
"935 647 CURVE SMOOTH",
"935 678 OFFCURVE",
"959 705 OFFCURVE",
"992 705 CURVE SMOOTH",
"1023 705 OFFCURVE",
"1049 680 OFFCURVE",
"1049 647 CURVE SMOOTH",
"1049 616 OFFCURVE",
"1026 590 OFFCURVE",
"992 590 CURVE SMOOTH"
);
},
{
closed = 1;
nodes = (
"1145 3 OFFCURVE",
"1185 130 OFFCURVE",
"1185 257 CURVE SMOOTH",
"1185 385 OFFCURVE",
"1144 512 OFFCURVE",
"1062 617 CURVE",
"1035 585 LINE",
"1108 490 OFFCURVE",
"1144 369 OFFCURVE",
"1144 255 CURVE SMOOTH",
"1144 141 OFFCURVE",
"1107 27 OFFCURVE",
"1038 -68 CURVE",
"1063 -102 LINE"
);
},
{
closed = 1;
nodes = (
"1048 -227 OFFCURVE",
"1090 -186 OFFCURVE",
"1090 -135 CURVE SMOOTH",
"1090 -84 OFFCURVE",
"1048 -43 OFFCURVE",
"998 -43 CURVE SMOOTH",
"948 -43 OFFCURVE",
"906 -85 OFFCURVE",
"906 -135 CURVE SMOOTH",
"906 -185 OFFCURVE",
"947 -227 OFFCURVE",
"998 -227 CURVE SMOOTH"
);
},
{
closed = 1;
nodes = (
"963 -192 OFFCURVE",
"941 -166 OFFCURVE",
"941 -135 CURVE SMOOTH",
"941 -102 OFFCURVE",
"966 -78 OFFCURVE",
"997 -78 CURVE SMOOTH",
"1030 -78 OFFCURVE",
"1055 -103 OFFCURVE",
"1055 -135 CURVE SMOOTH",
"1055 -168 OFFCURVE",
"1029 -192 OFFCURVE",
"998 -192 CURVE SMOOTH"
);
},
{
closed = 1;
nodes = (
"731 -329 OFFCURVE",
"857 -289 OFFCURVE",
"962 -208 CURVE",
"931 -181 LINE",
"836 -252 OFFCURVE",
"721 -288 OFFCURVE",
"607 -288 CURVE SMOOTH",
"486 -288 OFFCURVE",
"373 -250 OFFCURVE",
"279 -180 CURVE",
"255 -212 LINE",
"358 -290 OFFCURVE",
"481 -329 OFFCURVE",
"605 -329 CURVE SMOOTH"
);
},
{
closed = 1;
nodes = (
"261 -227 OFFCURVE",
"303 -185 OFFCURVE",
"303 -135 CURVE SMOOTH",
"303 -85 OFFCURVE",
"261 -43 OFFCURVE",
"211 -43 CURVE SMOOTH",
"162 -43 OFFCURVE",
"119 -84 OFFCURVE",
"119 -135 CURVE SMOOTH",
"119 -186 OFFCURVE",
"160 -227 OFFCURVE",
"210 -227 CURVE SMOOTH"
);
},
{
closed = 1;
nodes = (
"178 -192 OFFCURVE",
"154 -168 OFFCURVE",
"154 -135 CURVE SMOOTH",
"154 -103 OFFCURVE",
"178 -78 OFFCURVE",
"211 -78 CURVE SMOOTH",
"242 -78 OFFCURVE",
"268 -102 OFFCURVE",
"268 -135 CURVE SMOOTH",
"268 -166 OFFCURVE",
"244 -192 OFFCURVE",
"210 -192 CURVE SMOOTH"
);
},
{
closed = 1;
nodes = (
"924 -153 LINE",
"924 -113 LINE",
"293 -113 LINE",
"293 -153 LINE"
);
},
{
closed = 1;
nodes = (
"924 625 LINE",
"924 665 LINE",
"293 665 LINE",
"293 625 LINE"
);
}
);
width = 1200;
},
{
layerId = "1F90C004-9C90-48FA-B407-176B3E9F1E65";
paths = (
{
closed = 1;
nodes = (
"166 -70 LINE",
"95 25 OFFCURVE",
"57 141 OFFCURVE",
"57 255 CURVE SMOOTH",
"57 370 OFFCURVE",
"92 491 OFFCURVE",
"167 587 CURVE",
"139 618 LINE",
"57 512 OFFCURVE",
"15 385 OFFCURVE",
"15 257 CURVE SMOOTH",
"15 130 OFFCURVE",
"57 3 OFFCURVE",
"139 -103 CURVE"
);
},
{
closed = 1;
nodes = (
"266 556 OFFCURVE",
"308 597 OFFCURVE",
"308 648 CURVE SMOOTH",
"308 698 OFFCURVE",
"267 740 OFFCURVE",
"216 740 CURVE SMOOTH",
"166 740 OFFCURVE",
"124 698 OFFCURVE",
"124 648 CURVE SMOOTH",
"124 596 OFFCURVE",
"167 556 OFFCURVE",
"216 556 CURVE SMOOTH"
);
},
{
closed = 1;
nodes = (
"181 590 OFFCURVE",
"159 617 OFFCURVE",
"159 648 CURVE SMOOTH",
"159 680 OFFCURVE",
"184 705 OFFCURVE",
"215 705 CURVE SMOOTH",
"248 705 OFFCURVE",
"273 679 OFFCURVE",
"273 648 CURVE SMOOTH",
"273 615 OFFCURVE",
"247 590 OFFCURVE",
"216 590 CURVE SMOOTH"
);
},
{
closed = 1;
nodes = (
"957 721 LINE",
"852 802 OFFCURVE",
"726 842 OFFCURVE",
"600 842 CURVE SMOOTH",
"476 842 OFFCURVE",
"353 804 OFFCURVE",
"250 726 CURVE",
"279 698 LINE",
"373 767 OFFCURVE",
"488 801 OFFCURVE",
"601 801 CURVE SMOOTH",
"716 801 OFFCURVE",
"831 766 OFFCURVE",
"926 695 CURVE"
);
},
{
closed = 1;
nodes = (
"1041 555 OFFCURVE",
"1084 595 OFFCURVE",
"1084 647 CURVE SMOOTH",
"1084 697 OFFCURVE",
"1043 739 OFFCURVE",
"992 739 CURVE SMOOTH",
"942 739 OFFCURVE",
"900 697 OFFCURVE",
"900 647 CURVE SMOOTH",
"900 597 OFFCURVE",
"942 555 OFFCURVE",
"992 555 CURVE SMOOTH"
);
},
{
closed = 1;
nodes = (
"960 590 OFFCURVE",
"935 614 OFFCURVE",
"935 647 CURVE SMOOTH",
"935 678 OFFCURVE",
"959 705 OFFCURVE",
"992 705 CURVE SMOOTH",
"1023 705 OFFCURVE",
"1049 680 OFFCURVE",
"1049 647 CURVE SMOOTH",
"1049 616 OFFCURVE",
"1026 590 OFFCURVE",
"992 590 CURVE SMOOTH"
);
},
{
closed = 1;
nodes = (
"1145 3 OFFCURVE",
"1185 130 OFFCURVE",
"1185 257 CURVE SMOOTH",
"1185 385 OFFCURVE",
"1144 512 OFFCURVE",
"1062 617 CURVE",
"1035 585 LINE",
"1108 490 OFFCURVE",
"1144 369 OFFCURVE",
"1144 255 CURVE SMOOTH",
"1144 141 OFFCURVE",
"1107 27 OFFCURVE",
"1038 -68 CURVE",
"1063 -102 LINE"
);
},
{
closed = 1;
nodes = (
"1048 -227 OFFCURVE",
"1090 -186 OFFCURVE",
"1090 -135 CURVE SMOOTH",
"1090 -84 OFFCURVE",
"1048 -43 OFFCURVE",
"998 -43 CURVE SMOOTH",
"948 -43 OFFCURVE",
"906 -85 OFFCURVE",
"906 -135 CURVE SMOOTH",
"906 -185 OFFCURVE",
"947 -227 OFFCURVE",
"998 -227 CURVE SMOOTH"
);
},
{
closed = 1;
nodes = (
"963 -192 OFFCURVE",
"941 -166 OFFCURVE",
"941 -135 CURVE SMOOTH",
"941 -102 OFFCURVE",
"966 -78 OFFCURVE",
"997 -78 CURVE SMOOTH",
"1030 -78 OFFCURVE",
"1055 -103 OFFCURVE",
"1055 -135 CURVE SMOOTH",
"1055 -168 OFFCURVE",
"1029 -192 OFFCURVE",
"998 -192 CURVE SMOOTH"
);
},
{
closed = 1;
nodes = (
"731 -329 OFFCURVE",
"857 -289 OFFCURVE",
"962 -208 CURVE",
"931 -181 LINE",
"836 -252 OFFCURVE",
"721 -288 OFFCURVE",
"607 -288 CURVE SMOOTH",
"486 -288 OFFCURVE",
"373 -250 OFFCURVE",
"279 -180 CURVE",
"255 -212 LINE",
"358 -290 OFFCURVE",
"481 -329 OFFCURVE",
"605 -329 CURVE SMOOTH"
);
},
{
closed = 1;
nodes = (
"261 -227 OFFCURVE",
"303 -185 OFFCURVE",
"303 -135 CURVE SMOOTH",
"303 -85 OFFCURVE",
"261 -43 OFFCURVE",
"211 -43 CURVE SMOOTH",
"162 -43 OFFCURVE",
"119 -84 OFFCURVE",
"119 -135 CURVE SMOOTH",
"119 -186 OFFCURVE",
"160 -227 OFFCURVE",
"210 -227 CURVE SMOOTH"
);
},
{
closed = 1;
nodes = (
"178 -192 OFFCURVE",
"154 -168 OFFCURVE",
"154 -135 CURVE SMOOTH",
"154 -103 OFFCURVE",
"178 -78 OFFCURVE",
"211 -78 CURVE SMOOTH",
"242 -78 OFFCURVE",
"268 -102 OFFCURVE",
"268 -135 CURVE SMOOTH",
"268 -166 OFFCURVE",
"244 -192 OFFCURVE",
"210 -192 CURVE SMOOTH"
);
},
{
closed = 1;
nodes = (
"924 -153 LINE",
"924 -113 LINE",
"293 -113 LINE",
"293 -153 LINE"
);
},
{
closed = 1;
nodes = (
"924 625 LINE",
"924 665 LINE",
"293 665 LINE",
"293 625 LINE"
);
}
);
width = 1200;
}
);
unicode = 06DD;
}
{
glyphname = "fehDotless-ar";
layers = (
{
anchors = (
{
name = bottom;
position = "{592, -141}";
},
{
name = bottom.dot;
position = "{892, -26}";
},
{
name = top;
position = "{842, 1252}";
},
{
name = top.dot;
position = "{849, 1002}";
}
);
layerId = master01;
paths = (
{
closed = 1;
nodes = (
"748 -3 OFFCURVE",
"921 7 OFFCURVE",
"1024 60 CURVE SMOOTH",
"1149 124 OFFCURVE",
"1181 225 OFFCURVE",
"1181 431 CURVE SMOOTH",
"1181 733 OFFCURVE",
"1058 924 OFFCURVE",
"864 924 CURVE SMOOTH",
"682 924 OFFCURVE",
"561 758 OFFCURVE",
"561 572 CURVE SMOOTH",
"561 379 OFFCURVE",
"638 310 OFFCURVE",
"835 310 CURVE SMOOTH",
"987 310 OFFCURVE",
"1039 342 OFFCURVE",
"1070 382 CURVE",
"1129 385 LINE",
"1133 451 LINE",
"1056 431 OFFCURVE",
"966 404 OFFCURVE",
"868 404 CURVE SMOOTH",
"706 404 OFFCURVE",
"653 439 OFFCURVE",
"653 572 CURVE SMOOTH",
"653 711 OFFCURVE",
"734 830 OFFCURVE",
"857 830 CURVE SMOOTH",
"1006 830 OFFCURVE",
"1089 658 OFFCURVE",
"1089 424 CURVE SMOOTH",
"1089 251 OFFCURVE",
"1079 200 OFFCURVE",
"1004 154 CURVE SMOOTH",
"915 99 OFFCURVE",
"742 91 OFFCURVE",
"559 91 CURVE SMOOTH",
"219 91 OFFCURVE",
"106 133 OFFCURVE",
"106 384 CURVE SMOOTH",
"106 466 OFFCURVE",
"124 550 OFFCURVE",
"137 626 CURVE",
"56 626 LINE",
"38 570 OFFCURVE",
"14 457 OFFCURVE",
"14 364 CURVE SMOOTH",
"14 65 OFFCURVE",
"161 -3 OFFCURVE",
"539 -3 CURVE SMOOTH"
);
}
);
width = 1200;
},
{
anchors = (
{
name = bottom;
position = "{592, -141}";
},
{
name = bottom.dot;
position = "{892, -26}";
},
{
name = top;
position = "{842, 1252}";
},
{
name = top.dot;
position = "{849, 1002}";
}
);
layerId = "1F90C004-9C90-48FA-B407-176B3E9F1E65";
paths = (
{
closed = 1;
nodes = (
"708 -6 OFFCURVE",
"884 12 OFFCURVE",
"995 57 CURVE SMOOTH",
"1136 114 OFFCURVE",
"1191 265 OFFCURVE",
"1191 471 CURVE SMOOTH",
"1191 753 OFFCURVE",
"1070 964 OFFCURVE",
"849 964 CURVE SMOOTH",
"664 964 OFFCURVE",
"541 788 OFFCURVE",
"541 582 CURVE SMOOTH",
"541 389 OFFCURVE",
"618 319 OFFCURVE",
"805 319 CURVE SMOOTH",
"907 319 OFFCURVE",
"966 346 OFFCURVE",
"996 388 CURVE",
"1065 390 LINE",
"1068 540 LINE",
"992 513 OFFCURVE",
"936 500 OFFCURVE",
"838 500 CURVE SMOOTH",
"737 500 OFFCURVE",
"717 528 OFFCURVE",
"717 604 CURVE SMOOTH",
"717 683 OFFCURVE",
"760 752 OFFCURVE",
"850 752 CURVE SMOOTH",
"949 752 OFFCURVE",
"1024 678 OFFCURVE",
"1024 464 CURVE SMOOTH",
"1024 281 OFFCURVE",
"1003 254 OFFCURVE",
"934 234 CURVE SMOOTH",
"849 209 OFFCURVE",
"682 205 OFFCURVE",
"529 205 CURVE SMOOTH",
"259 205 OFFCURVE",
"206 251 OFFCURVE",
"206 407 CURVE SMOOTH",
"206 479 OFFCURVE",
"214 540 OFFCURVE",
"233 665 CURVE",
"55 665 LINE",
"34 605 OFFCURVE",
"11 497 OFFCURVE",
"11 394 CURVE SMOOTH",
"11 95 OFFCURVE",
"141 -6 OFFCURVE",
"529 -6 CURVE SMOOTH"
);
}
);
width = 1200;
},
{
anchors = (
{
name = bottom;
position = "{592, -141}";
},
{
name = bottom.dot;
position = "{892, -26}";
},
{
name = top;
position = "{842, 1252}";
},
{
name = top.dot;
position = "{849, 1002}";
}
);
layerId = "8E053A5E-67DA-4970-A6F5-068DBFE5AD21";
paths = (
{
closed = 1;
nodes = (
"758 -10 OFFCURVE",
"876 4 OFFCURVE",
"995 57 CURVE SMOOTH",
"1136 120 OFFCURVE",
"1191 265 OFFCURVE",
"1191 471 CURVE SMOOTH",
"1191 773 OFFCURVE",
"1067 984 OFFCURVE",
"848 984 CURVE SMOOTH",
"672 984 OFFCURVE",
"531 818 OFFCURVE",
"531 602 CURVE SMOOTH",
"531 429 OFFCURVE",
"588 337 OFFCURVE",
"775 337 CURVE SMOOTH",
"877 337 OFFCURVE",
"926 364 OFFCURVE",
"956 406 CURVE",
"1025 408 LINE",
"1028 581 LINE",
"962 560 OFFCURVE",
"916 548 OFFCURVE",
"838 548 CURVE SMOOTH",
"757 548 OFFCURVE",
"727 553 OFFCURVE",
"727 610 CURVE SMOOTH",
"727 665 OFFCURVE",
"767 722 OFFCURVE",
"839 722 CURVE SMOOTH",
"913 722 OFFCURVE",
"984 658 OFFCURVE",
"984 494 CURVE SMOOTH",
"984 391 OFFCURVE",
"993 324 OFFCURVE",
"924 304 CURVE SMOOTH",
"839 279 OFFCURVE",
"682 285 OFFCURVE",
"529 285 CURVE SMOOTH",
"289 285 OFFCURVE",
"258 321 OFFCURVE",
"258 447 CURVE SMOOTH",
"258 509 OFFCURVE",
"267 588 OFFCURVE",
"283 685 CURVE",
"55 685 LINE",
"34 625 OFFCURVE",
"11 497 OFFCURVE",
"11 394 CURVE SMOOTH",
"11 95 OFFCURVE",
"131 -10 OFFCURVE",
"529 -10 CURVE SMOOTH"
);
}
);
width = 1200;
}
);
unicode = 06A1;
}
{
glyphname = "five-persian";
layers = (
{
layerId = master01;
paths = (
{
closed = 1;
nodes = (
"487 -3 OFFCURVE",
"553 23 OFFCURVE",
"581 117 CURVE",
"601 117 LINE",
"619 34 OFFCURVE",
"664 -3 OFFCURVE",
"780 -3 CURVE SMOOTH",
"963 -3 OFFCURVE",
"1076 108 OFFCURVE",
"1076 320 CURVE SMOOTH",
"1076 574 OFFCURVE",
"926 810 OFFCURVE",
"537 1147 CURVE",
"472 1071 LINE",
"888 732 OFFCURVE",
"982 508 OFFCURVE",
"984 317 CURVE SMOOTH",
"986 141 OFFCURVE",
"900 91 OFFCURVE",
"790 91 CURVE SMOOTH",
"661 91 OFFCURVE",
"645 139 OFFCURVE",
"643 349 CURVE",
"549 349 LINE",
"551 135 OFFCURVE",
"514 91 OFFCURVE",
"385 91 CURVE SMOOTH",
"278 91 OFFCURVE",
"216 150 OFFCURVE",
"216 317 CURVE SMOOTH",
"216 585 OFFCURVE",
"454 815 OFFCURVE",
"663 979 CURVE",
"597 1040 LINE",
"381 855 OFFCURVE",
"124 605 OFFCURVE",
"124 295 CURVE SMOOTH",
"124 125 OFFCURVE",
"194 -3 OFFCURVE",
"381 -3 CURVE SMOOTH"
);
}
);
width = 1200;
},
{
layerId = "1F90C004-9C90-48FA-B407-176B3E9F1E65";
paths = (
{
closed = 1;
nodes = (
"487 -6 OFFCURVE",
"562 33 OFFCURVE",
"580 127 CURVE",
"600 127 LINE",
"610 34 OFFCURVE",
"675 -6 OFFCURVE",
"790 -6 CURVE SMOOTH",
"1023 -6 OFFCURVE",
"1106 148 OFFCURVE",
"1106 350 CURVE SMOOTH",
"1106 654 OFFCURVE",
"916 910 OFFCURVE",
"537 1237 CURVE",
"405 1076 LINE",
"751 757 OFFCURVE",
"903 548 OFFCURVE",
"906 347 CURVE SMOOTH",
"908 230 OFFCURVE",
"860 202 OFFCURVE",
"790 202 CURVE SMOOTH",
"701 202 OFFCURVE",
"685 239 OFFCURVE",
"683 409 CURVE",
"509 409 LINE",
"511 235 OFFCURVE",
"489 202 OFFCURVE",
"399 202 CURVE SMOOTH",
"322 202 OFFCURVE",
"294 260 OFFCURVE",
"294 347 CURVE SMOOTH",
"294 555 OFFCURVE",
"482 771 OFFCURVE",
"671 945 CURVE",
"545 1080 LINE",
"339 885 OFFCURVE",
"94 605 OFFCURVE",
"94 325 CURVE SMOOTH",
"94 105 OFFCURVE",
"194 -6 OFFCURVE",
"381 -6 CURVE SMOOTH"
);
}
);
width = 1200;
},
{
layerId = "8E053A5E-67DA-4970-A6F5-068DBFE5AD21";
paths = (
{
closed = 1;
nodes = (
"487 -10 OFFCURVE",
"562 33 OFFCURVE",
"580 127 CURVE",
"600 127 LINE",
"619 34 OFFCURVE",
"675 -10 OFFCURVE",
"790 -10 CURVE SMOOTH",
"1023 -10 OFFCURVE",
"1116 158 OFFCURVE",
"1116 360 CURVE SMOOTH",
"1116 664 OFFCURVE",
"922 930 OFFCURVE",
"543 1257 CURVE",
"355 1026 LINE",
"701 707 OFFCURVE",
"859 521 OFFCURVE",
"859 360 CURVE SMOOTH",
"859 319 OFFCURVE",
"840 285 OFFCURVE",
"780 285 CURVE SMOOTH",
"711 285 OFFCURVE",
"702 312 OFFCURVE",
"703 459 CURVE",
"489 459 LINE",
"491 308 OFFCURVE",
"479 285 OFFCURVE",
"399 285 CURVE SMOOTH",
"352 285 OFFCURVE",
"324 303 OFFCURVE",
"324 380 CURVE SMOOTH",
"324 558 OFFCURVE",
"502 761 OFFCURVE",
"691 935 CURVE",
"545 1080 LINE",
"339 885 OFFCURVE",
"94 595 OFFCURVE",
"94 315 CURVE SMOOTH",
"94 115 OFFCURVE",
"184 -10 OFFCURVE",
"371 -10 CURVE SMOOTH"
);
}
);
width = 1200;
}
);
unicode = 06F5;
}
{
glyphname = "four-persian";
layers = (
{
layerId = master01;
paths = (
{
closed = 1;
nodes = (
"581 0 LINE",
"577 361 OFFCURVE",
"478 814 OFFCURVE",
"333 1127 CURVE",
"327 1068 LINE",
"382 896 OFFCURVE",
"459 818 OFFCURVE",
"795 818 CURVE SMOOTH",
"876 818 OFFCURVE",
"1010 835 OFFCURVE",
"1107 870 CURVE",
"1103 947 LINE",
"1013 924 OFFCURVE",
"940 912 OFFCURVE",
"852 912 CURVE SMOOTH",
"720 912 OFFCURVE",
"641 978 OFFCURVE",
"641 1137 CURVE SMOOTH",
"641 1284 OFFCURVE",
"709 1346 OFFCURVE",
"861 1346 CURVE SMOOTH",
"941 1346 OFFCURVE",
"999 1326 OFFCURVE",
"1063 1307 CURVE",
"1070 1392 LINE",
"1006 1420 OFFCURVE",
"934 1440 OFFCURVE",
"840 1440 CURVE SMOOTH",
"656 1440 OFFCURVE",
"546 1329 OFFCURVE",
"546 1146 CURVE SMOOTH",
"546 1041 OFFCURVE",
"574 967 OFFCURVE",
"637 932 CURVE",
"637 884 LINE",
"698 858 LINE",
"701 913 LINE",
"470 913 OFFCURVE",
"411 1007 OFFCURVE",
"374 1083 CURVE SMOOTH",
"330 1173 OFFCURVE",
"304 1266 OFFCURVE",
"232 1442 CURVE",
"138 1408 LINE",
"317 949 OFFCURVE",
"472 523 OFFCURVE",
"485 0 CURVE"
);
}
);
width = 1200;
},
{
layerId = "1F90C004-9C90-48FA-B407-176B3E9F1E65";
paths = (
{
closed = 1;
nodes = (
"665 0 LINE",
"665 431 OFFCURVE",
"558 814 OFFCURVE",
"413 1127 CURVE",
"327 1068 LINE",
"382 896 OFFCURVE",
"539 798 OFFCURVE",
"805 798 CURVE SMOOTH",
"906 798 OFFCURVE",
"1030 817 OFFCURVE",
"1117 856 CURVE",
"1105 1035 LINE",
"1015 1013 OFFCURVE",
"940 999 OFFCURVE",
"852 999 CURVE SMOOTH",
"730 999 OFFCURVE",
"691 1048 OFFCURVE",
"691 1127 CURVE SMOOTH",
"691 1216 OFFCURVE",
"749 1250 OFFCURVE",
"851 1250 CURVE SMOOTH",
"921 1250 OFFCURVE",
"1001 1237 OFFCURVE",
"1067 1222 CURVE",
"1084 1392 LINE",
"1021 1420 OFFCURVE",
"931 1440 OFFCURVE",
"830 1440 CURVE SMOOTH",
"646 1440 OFFCURVE",
"526 1339 OFFCURVE",
"526 1166 CURVE SMOOTH",
"526 1091 OFFCURVE",
"556 1034 OFFCURVE",
"601 1009 CURVE",
"597 960 LINE",
"658 934 LINE",
"661 989 LINE",
"538 989 OFFCURVE",
"495 1020 OFFCURVE",
"456 1083 CURVE SMOOTH",
"412 1154 OFFCURVE",
"380 1278 OFFCURVE",
"318 1442 CURVE",
"108 1376 LINE",
"277 947 OFFCURVE",
"442 453 OFFCURVE",
"455 0 CURVE"
);
}
);
width = 1200;
},
{
layerId = "8E053A5E-67DA-4970-A6F5-068DBFE5AD21";
paths = (
{
closed = 1;
nodes = (
"705 0 LINE",
"705 431 OFFCURVE",
"598 814 OFFCURVE",
"453 1127 CURVE",
"327 1058 LINE",
"382 886 OFFCURVE",
"539 788 OFFCURVE",
"805 788 CURVE SMOOTH",
"906 788 OFFCURVE",
"1030 807 OFFCURVE",
"1117 846 CURVE",
"1105 1085 LINE",
"1015 1063 OFFCURVE",
"940 1049 OFFCURVE",
"852 1049 CURVE SMOOTH",
"740 1049 OFFCURVE",
"691 1066 OFFCURVE",
"691 1127 CURVE SMOOTH",
"691 1194 OFFCURVE",
"749 1210 OFFCURVE",
"851 1210 CURVE SMOOTH",
"921 1210 OFFCURVE",
"1001 1197 OFFCURVE",
"1067 1182 CURVE",
"1084 1392 LINE",
"1021 1420 OFFCURVE",
"931 1440 OFFCURVE",
"830 1440 CURVE SMOOTH",
"646 1440 OFFCURVE",
"526 1349 OFFCURVE",
"526 1196 CURVE SMOOTH",
"526 1131 OFFCURVE",
"556 1071 OFFCURVE",
"601 1046 CURVE",
"597 1000 LINE",
"658 974 LINE",
"661 1029 LINE",
"558 1029 OFFCURVE",
"519 1048 OFFCURVE",
"490 1101 CURVE SMOOTH",
"450 1174 OFFCURVE",
"420 1278 OFFCURVE",
"358 1442 CURVE",
"98 1376 LINE",
"267 947 OFFCURVE",
"432 453 OFFCURVE",
"445 0 CURVE"
);
}
);
width = 1200;
}
);
unicode = 06F4;
}
{
glyphname = "fullstop-ar";
layers = (
{
layerId = master01;
paths = (
{
closed = 1;
nodes = (
"810 0 LINE",
"828 94 LINE",
"391 94 LINE",
"372 0 LINE"
);
}
);
width = 1200;
},
{
layerId = "1F90C004-9C90-48FA-B407-176B3E9F1E65";
paths = (
{
closed = 1;
nodes = (
"820 0 LINE",
"838 165 LINE",
"381 165 LINE",
"362 0 LINE"
);
}
);
width = 1200;
},
{
layerId = "8E053A5E-67DA-4970-A6F5-068DBFE5AD21";
paths = (
{
closed = 1;
nodes = (
"830 0 LINE",
"848 225 LINE",
"371 225 LINE",
"352 0 LINE"
);
}
);
width = 1200;
}
);
unicode = 06D4;
}
{
glyphname = "hehDoachashmee-ar";
layers = (
{
anchors = (
{
name = bottom;
position = "{565, -141}";
},
{
name = top;
position = "{552, 1040}";
},
{
name = top.dot;
position = "{549, 930}";
}
);
layerId = master01;
paths = (
{
closed = 1;
nodes = (
"310 -3 OFFCURVE",
"443 20 OFFCURVE",
"564 83 CURVE SMOOTH",
"714 155 OFFCURVE",
"774 265 OFFCURVE",
"774 420 CURVE SMOOTH",
"774 633 OFFCURVE",
"656 751 OFFCURVE",
"482 751 CURVE SMOOTH",
"314 751 OFFCURVE",
"189 622 OFFCURVE",
"189 405 CURVE SMOOTH",
"189 143 OFFCURVE",
"422 -3 OFFCURVE",
"749 -3 CURVE SMOOTH",
"1071 -3 OFFCURVE",
"1131 143 OFFCURVE",
"1131 292 CURVE SMOOTH",
"1131 495 OFFCURVE",
"1022 685 OFFCURVE",
"346 851 CURVE",
"320 755 LINE",
"958 605 OFFCURVE",
"1039 441 OFFCURVE",
"1039 293 CURVE SMOOTH",
"1039 143 OFFCURVE",
"947 91 OFFCURVE",
"757 91 CURVE SMOOTH",
"462 91 OFFCURVE",
"281 194 OFFCURVE",
"281 412 CURVE SMOOTH",
"281 560 OFFCURVE",
"356 659 OFFCURVE",
"487 659 CURVE SMOOTH",
"594 659 OFFCURVE",
"681 587 OFFCURVE",
"681 428 CURVE SMOOTH",
"681 272 OFFCURVE",
"598 184 OFFCURVE",
"462 137 CURVE SMOOTH",
"397 113 OFFCURVE",
"300 91 OFFCURVE",
"203 91 CURVE SMOOTH",
"144 91 OFFCURVE",
"97 93 OFFCURVE",
"34 101 CURVE",
"28 14 LINE",
"83 2 OFFCURVE",
"140 -3 OFFCURVE",
"199 -3 CURVE SMOOTH"
);
}
);
width = 1200;
},
{
anchors = (
{
name = bottom;
position = "{565, -141}";
},
{
name = top;
position = "{552, 1040}";
},
{
name = top.dot;
position = "{549, 930}";
}
);
layerId = "1F90C004-9C90-48FA-B407-176B3E9F1E65";
paths = (
{
closed = 1;
nodes = (
"318 -6 OFFCURVE",
"433 15 OFFCURVE",
"549 80 CURVE SMOOTH",
"701 165 OFFCURVE",
"792 270 OFFCURVE",
"792 445 CURVE SMOOTH",
"792 605 OFFCURVE",
"696 791 OFFCURVE",
"488 791 CURVE SMOOTH",
"306 791 OFFCURVE",
"153 662 OFFCURVE",
"153 445 CURVE SMOOTH",
"153 123 OFFCURVE",
"422 -6 OFFCURVE",
"749 -6 CURVE SMOOTH",
"1071 -6 OFFCURVE",
"1151 164 OFFCURVE",
"1151 340 CURVE SMOOTH",
"1151 571 OFFCURVE",
"1041 730 OFFCURVE",
"360 904 CURVE",
"311 715 LINE",
"971 585 OFFCURVE",
"956 435 OFFCURVE",
"956 345 CURVE SMOOTH",
"956 265 OFFCURVE",
"917 206 OFFCURVE",
"777 206 CURVE SMOOTH",
"482 206 OFFCURVE",
"347 269 OFFCURVE",
"347 451 CURVE SMOOTH",
"347 555 OFFCURVE",
"397 609 OFFCURVE",
"475 609 CURVE SMOOTH",
"552 609 OFFCURVE",
"600 555 OFFCURVE",
"600 447 CURVE SMOOTH",
"600 321 OFFCURVE",
"535 264 OFFCURVE",
"357 226 CURVE SMOOTH",
"292 212 OFFCURVE",
"228 207 OFFCURVE",
"159 207 CURVE SMOOTH",
"113 207 OFFCURVE",
"60 209 OFFCURVE",
"19 211 CURVE",
"3 55 LINE",
"45 13 OFFCURVE",
"138 -6 OFFCURVE",
"203 -6 CURVE SMOOTH"
);
}
);
width = 1200;
},
{
anchors = (
{
name = bottom;
position = "{565, -141}";
},
{
name = top;
position = "{552, 1040}";
},
{
name = top.dot;
position = "{549, 930}";
}
);
layerId = "8E053A5E-67DA-4970-A6F5-068DBFE5AD21";
paths = (
{
closed = 1;
nodes = (
"355 -10 OFFCURVE",
"455 28 OFFCURVE",
"556 90 CURVE SMOOTH",
"704 181 OFFCURVE",
"810 270 OFFCURVE",
"810 445 CURVE SMOOTH",
"810 595 OFFCURVE",
"709 781 OFFCURVE",
"501 781 CURVE SMOOTH",
"319 781 OFFCURVE",
"167 641 OFFCURVE",
"167 432 CURVE SMOOTH",
"167 120 OFFCURVE",
"432 -10 OFFCURVE",
"759 -10 CURVE SMOOTH",
"1071 -10 OFFCURVE",
"1169 164 OFFCURVE",
"1169 350 CURVE SMOOTH",
"1169 571 OFFCURVE",
"1061 757 OFFCURVE",
"360 924 CURVE",
"308 675 LINE",
"908 535 OFFCURVE",
"969 449 OFFCURVE",
"969 363 CURVE SMOOTH",
"969 292 OFFCURVE",
"906 261 OFFCURVE",
"797 261 CURVE SMOOTH",
"542 261 OFFCURVE",
"367 292 OFFCURVE",
"367 441 CURVE SMOOTH",
"367 523 OFFCURVE",
"418 579 OFFCURVE",
"490 579 CURVE SMOOTH",
"556 579 OFFCURVE",
"610 533 OFFCURVE",
"610 455 CURVE SMOOTH",
"610 381 OFFCURVE",
"585 336 OFFCURVE",
"515 310 CURVE SMOOTH",
"458 289 OFFCURVE",
"323 289 OFFCURVE",
"203 289 CURVE SMOOTH",
"158 289 OFFCURVE",
"95 290 OFFCURVE",
"28 291 CURVE",
"16 46 LINE",
"100 9 OFFCURVE",
"162 -10 OFFCURVE",
"251 -10 CURVE SMOOTH"
);
}
);
width = 1200;
}
);
unicode = 06BE;
}
{
color = 10;
glyphname = j;
layers = (
{
anchors = (
{
name = bottom;
position = "{558, -480}";
},
{
name = top;
position = "{798, 1480}";
}
);
layerId = master01;
paths = (
{
closed = 1;
nodes = (
"350 -468 LINE SMOOTH",
"712 -439 OFFCURVE",
"864 -284 OFFCURVE",
"864 94 CURVE SMOOTH",
"864 384 LINE",
"770 384 LINE",
"770 62 LINE SMOOTH",
"770 -227 OFFCURVE",
"652 -352 OFFCURVE",
"370 -378 CURVE SMOOTH",
"194 -394 LINE",
"198 -480 LINE"
);
},
{
closed = 1;
nodes = (
"786 970 LINE",
"786 1060 LINE",
"282 1060 LINE",
"282 970 LINE"
);
},
{
closed = 1;
nodes = (
"864 350 LINE",
"864 1060 LINE",
"770 1060 LINE",
"770 350 LINE"
);
},
{
closed = 1;
nodes = (
"853 1323 OFFCURVE",
"898 1367 OFFCURVE",
"898 1422 CURVE SMOOTH",
"898 1477 OFFCURVE",
"853 1522 OFFCURVE",
"798 1522 CURVE SMOOTH",
"743 1522 OFFCURVE",
"698 1477 OFFCURVE",
"698 1422 CURVE SMOOTH",
"698 1367 OFFCURVE",
"743 1323 OFFCURVE",
"798 1323 CURVE SMOOTH"
);
}
);
width = 1200;
},
{
anchors = (
{
name = bottom;
position = "{558, -480}";
},
{
name = top;
position = "{798, 1480}";
}
);
layerId = "1F90C004-9C90-48FA-B407-176B3E9F1E65";
paths = (
{
closed = 1;
nodes = (
"350 -468 LINE SMOOTH",
"726 -441 OFFCURVE",
"888 -284 OFFCURVE",
"888 94 CURVE SMOOTH",
"888 384 LINE",
"676 384 LINE",
"676 62 LINE SMOOTH",
"676 -156 OFFCURVE",
"584 -255 OFFCURVE",
"370 -274 CURVE SMOOTH",
"170 -292 LINE",
"180 -480 LINE"
);
},
{
closed = 1;
nodes = (
"692 874 LINE",
"692 1060 LINE",
"264 1060 LINE",
"264 874 LINE"
);
},
{
closed = 1;
nodes = (
"888 350 LINE",
"888 1060 LINE",
"676 1060 LINE",
"676 350 LINE"
);
},
{
closed = 1;
nodes = (
"842 1228 OFFCURVE",
"908 1294 OFFCURVE",
"908 1376 CURVE SMOOTH",
"908 1458 OFFCURVE",
"842 1524 OFFCURVE",
"760 1524 CURVE SMOOTH",
"678 1524 OFFCURVE",
"612 1458 OFFCURVE",
"612 1376 CURVE SMOOTH",
"612 1294 OFFCURVE",
"678 1228 OFFCURVE",
"760 1228 CURVE SMOOTH"
);
}
);
width = 1200;
},
{
anchors = (
{
name = bottom;
position = "{558, -480}";
},
{
name = top;
position = "{798, 1480}";
}
);
layerId = "8E053A5E-67DA-4970-A6F5-068DBFE5AD21";
paths = (
{
closed = 1;
nodes = (
"350 -468 LINE SMOOTH",
"738 -441 OFFCURVE",
"905 -284 OFFCURVE",
"905 94 CURVE SMOOTH",
"905 384 LINE",
"634 384 LINE",
"634 62 LINE SMOOTH",
"634 -113 OFFCURVE",
"555 -195 OFFCURVE",
"370 -207 CURVE SMOOTH",
"170 -220 LINE",
"180 -480 LINE"
);
},
{
closed = 1;
nodes = (
"650 810 LINE",
"650 1060 LINE",
"264 1060 LINE",
"264 810 LINE"
);
},
{
closed = 1;
nodes = (
"905 350 LINE",
"905 1060 LINE",
"634 1060 LINE",
"634 350 LINE"
);
},
{
closed = 1;
nodes = (
"855 1203 OFFCURVE",
"925 1273 OFFCURVE",
"925 1376 CURVE SMOOTH",
"925 1479 OFFCURVE",
"855 1549 OFFCURVE",
"752 1549 CURVE SMOOTH",
"649 1549 OFFCURVE",
"579 1479 OFFCURVE",
"579 1376 CURVE SMOOTH",
"579 1273 OFFCURVE",
"649 1203 OFFCURVE",
"752 1203 CURVE SMOOTH"
);
}
);
width = 1200;
}
);
unicode = 006A;
}
{
glyphname = "kafswash-ar";
layers = (
{
anchors = (
{
name = bottom;
position = "{555, -141}";
},
{
name = top;
position = "{596, 1057}";
}
);
layerId = master01;
paths = (
{
closed = 1;
nodes = (
"977 -2 OFFCURVE",
"1174 123 OFFCURVE",
"1174 333 CURVE SMOOTH",
"1174 472 OFFCURVE",
"1080 542 OFFCURVE",
"870 542 CURVE SMOOTH",
"675 542 LINE SMOOTH",
"512 542 OFFCURVE",
"464 561 OFFCURVE",
"464 624 CURVE SMOOTH",
"464 728 OFFCURVE",
"584 843 OFFCURVE",
"908 1045 CURVE",
"901 1142 LINE",
"533 919 OFFCURVE",
"372 772 OFFCURVE",
"372 614 CURVE SMOOTH",
"372 511 OFFCURVE",
"419 450 OFFCURVE",
"690 450 CURVE SMOOTH",
"864 450 LINE SMOOTH",
"1041 450 OFFCURVE",
"1082 402 OFFCURVE",
"1082 323 CURVE SMOOTH",
"1082 181 OFFCURVE",
"930 91 OFFCURVE",
"509 91 CURVE SMOOTH",
"159 91 OFFCURVE",
"106 153 OFFCURVE",
"106 344 CURVE SMOOTH",
"106 396 OFFCURVE",
"112 441 OFFCURVE",
"122 506 CURVE",
"37 506 LINE",
"22 440 OFFCURVE",
"14 387 OFFCURVE",
"14 324 CURVE SMOOTH",
"14 75 OFFCURVE",
"121 -3 OFFCURVE",
"489 -3 CURVE SMOOTH"
);
}
);
width = 1200;
},
{
anchors = (
{
name = bottom;
position = "{555, -141}";
},
{
name = top;
position = "{596, 1057}";
}
);
layerId = "8E053A5E-67DA-4970-A6F5-068DBFE5AD21";
paths = (
{
closed = 1;
nodes = (
"993 -9 OFFCURVE",
"1194 113 OFFCURVE",
"1194 353 CURVE SMOOTH",
"1194 552 OFFCURVE",
"1105 642 OFFCURVE",
"870 642 CURVE SMOOTH",
"685 642 LINE SMOOTH",
"602 642 OFFCURVE",
"585 652 OFFCURVE",
"585 669 CURVE SMOOTH",
"585 698 OFFCURVE",
"644 729 OFFCURVE",
"928 859 CURVE",
"921 1152 LINE",
"503 922 OFFCURVE",
"352 772 OFFCURVE",
"352 594 CURVE SMOOTH",
"352 491 OFFCURVE",
"399 370 OFFCURVE",
"690 370 CURVE SMOOTH",
"854 370 LINE SMOOTH",
"971 370 OFFCURVE",
"990 360 OFFCURVE",
"990 333 CURVE SMOOTH",
"990 301 OFFCURVE",
"954 285 OFFCURVE",
"533 285 CURVE SMOOTH",
"250 285 OFFCURVE",
"231 330 OFFCURVE",
"231 437 CURVE SMOOTH",
"231 498 OFFCURVE",
"236 520 OFFCURVE",
"239 573 CURVE",
"34 573 LINE",
"22 505 OFFCURVE",
"13 436 OFFCURVE",
"13 350 CURVE SMOOTH",
"13 94 OFFCURVE",
"145 -11 OFFCURVE",
"505 -10 CURVE SMOOTH"
);
}
);
width = 1200;
},
{
anchors = (
{
name = bottom;
position = "{555, -141}";
},
{
name = top;
position = "{596, 1057}";
}
);
layerId = "1F90C004-9C90-48FA-B407-176B3E9F1E65";
paths = (
{
closed = 1;
nodes = (
"993 -7 OFFCURVE",
"1184 123 OFFCURVE",
"1184 333 CURVE SMOOTH",
"1184 512 OFFCURVE",
"1085 602 OFFCURVE",
"820 602 CURVE SMOOTH",
"675 602 LINE SMOOTH",
"582 602 OFFCURVE",
"541 611 OFFCURVE",
"541 644 CURVE SMOOTH",
"541 688 OFFCURVE",
"634 767 OFFCURVE",
"918 929 CURVE",
"911 1142 LINE",
"513 919 OFFCURVE",
"362 772 OFFCURVE",
"362 614 CURVE SMOOTH",
"362 511 OFFCURVE",
"399 400 OFFCURVE",
"690 400 CURVE SMOOTH",
"844 400 LINE SMOOTH",
"961 400 OFFCURVE",
"1010 382 OFFCURVE",
"1010 323 CURVE SMOOTH",
"1010 241 OFFCURVE",
"904 204 OFFCURVE",
"533 204 CURVE SMOOTH",
"250 204 OFFCURVE",
"199 224 OFFCURVE",
"199 371 CURVE SMOOTH",
"199 432 OFFCURVE",
"208 503 OFFCURVE",
"215 563 CURVE",
"44 563 LINE",
"26 490 OFFCURVE",
"13 396 OFFCURVE",
"13 320 CURVE SMOOTH",
"13 64 OFFCURVE",
"145 -9 OFFCURVE",
"505 -8 CURVE SMOOTH"
);
}
);
width = 1200;
}
);
unicode = 06AA;
}
{
glyphname = "keheh-ar";
layers = (
{
anchors = (
{
name = bottom;
position = "{555, -141}";
},
{
name = bottom.dot;
position = "{555, -26}";
},
{
name = top;
position = "{525, 1284}";
},
{
name = top.dot;
position = "{654, 1143}";
}
);
layerId = master01;
paths = (
{
closed = 1;
nodes = (
"855 -3 OFFCURVE",
"1051 54 OFFCURVE",
"1051 273 CURVE SMOOTH",
"1051 453 OFFCURVE",
"914 596 OFFCURVE",
"573 967 CURVE",
"556 906 LINE",
"1222 1339 LINE",
"1217 1443 LINE",
"525 989 LINE",
"511 890 LINE",
"789 588 OFFCURVE",
"959 420 OFFCURVE",
"959 264 CURVE SMOOTH",
"959 118 OFFCURVE",
"795 91 OFFCURVE",
"559 91 CURVE SMOOTH",
"159 91 OFFCURVE",
"106 163 OFFCURVE",
"106 354 CURVE SMOOTH",
"106 416 OFFCURVE",
"115 479 OFFCURVE",
"132 566 CURVE",
"47 566 LINE",
"25 480 OFFCURVE",
"14 407 OFFCURVE",
"14 334 CURVE SMOOTH",
"14 85 OFFCURVE",
"121 -3 OFFCURVE",
"539 -3 CURVE SMOOTH"
);
}
);
width = 1200;
},
{
anchors = (
{
name = bottom;
position = "{555, -141}";
},
{
name = bottom.dot;
position = "{555, -26}";
},
{
name = top;
position = "{525, 1284}";
},
{
name = top.dot;
position = "{654, 1143}";
}
);
layerId = "1F90C004-9C90-48FA-B407-176B3E9F1E65";
paths = (
{
closed = 1;
nodes = (
"940 -8 OFFCURVE",
"1089 124 OFFCURVE",
"1089 331 CURVE SMOOTH",
"1089 451 OFFCURVE",
"1068 562 OFFCURVE",
"626 956 CURVE",
"575 816 LINE",
"1224 1224 LINE",
"1219 1443 LINE",
"519 989 LINE",
"493 803 LINE",
"848 463 OFFCURVE",
"885 424 OFFCURVE",
"885 338 CURVE SMOOTH",
"885 236 OFFCURVE",
"798 204 OFFCURVE",
"532 204 CURVE SMOOTH",
"247 204 OFFCURVE",
"188 232 OFFCURVE",
"188 429 CURVE SMOOTH",
"188 500 OFFCURVE",
"194 546 OFFCURVE",
"203 626 CURVE",
"33 626 LINE",
"10 535 OFFCURVE",
"2 452 OFFCURVE",
"2 375 CURVE SMOOTH",
"2 89 OFFCURVE",
"144 -8 OFFCURVE",
"504 -8 CURVE SMOOTH"
);
}
);
width = 1200;
},
{
anchors = (
{
name = bottom;
position = "{555, -141}";
},
{
name = bottom.dot;
position = "{555, -26}";
},
{
name = top;
position = "{525, 1284}";
},
{
name = top.dot;
position = "{654, 1143}";
}
);
layerId = "8E053A5E-67DA-4970-A6F5-068DBFE5AD21";
paths = (
{
closed = 1;
nodes = (
"913 -10 OFFCURVE",
"1067 97 OFFCURVE",
"1067 314 CURVE SMOOTH",
"1067 484 OFFCURVE",
"977 605 OFFCURVE",
"636 956 CURVE",
"588 779 LINE",
"1224 1137 LINE",
"1219 1443 LINE",
"459 989 LINE",
"443 783 LINE",
"711 481 OFFCURVE",
"790 416 OFFCURVE",
"790 350 CURVE SMOOTH",
"790 302 OFFCURVE",
"723 285 OFFCURVE",
"537 285 CURVE SMOOTH",
"274 285 OFFCURVE",
"250 314 OFFCURVE",
"250 441 CURVE SMOOTH",
"250 482 OFFCURVE",
"254 562 OFFCURVE",
"262 632 CURVE",
"34 632 LINE",
"14 561 OFFCURVE",
"3 466 OFFCURVE",
"3 380 CURVE SMOOTH",
"3 124 OFFCURVE",
"137 -10 OFFCURVE",
"537 -10 CURVE SMOOTH"
);
}
);
width = 1200;
}
);
unicode = 06A9;
}
{
glyphname = "meemStopabove-ar";
layers = (
{
anchors = (
{
name = _top;
position = "{601, 1244}";
},
{
name = _top.dot;
position = "{616, 994}";
},
{
name = top;
position = "{621, 1510}";
}
);
layerId = master01;
paths = (
{
closed = 1;
nodes = (
"560 1008 LINE",
"559 1054 OFFCURVE",
"557 1122 OFFCURVE",
"557 1152 CURVE SMOOTH",
"557 1194 OFFCURVE",
"573 1207 OFFCURVE",
"612 1207 CURVE SMOOTH",
"652 1207 OFFCURVE",
"712 1203 OFFCURVE",
"753 1201 CURVE",
"785 1280 LINE",
"752 1379 OFFCURVE",
"705 1457 OFFCURVE",
"645 1457 CURVE SMOOTH",
"587 1457 OFFCURVE",
"551 1383 OFFCURVE",
"524 1256 CURVE",
"587 1256 LINE",
"602 1327 OFFCURVE",
"613 1369 OFFCURVE",
"639 1369 CURVE SMOOTH",
"661 1369 OFFCURVE",
"686 1345 OFFCURVE",
"719 1260 CURVE",
"727 1289 LINE",
"701 1290 OFFCURVE",
"627 1294 OFFCURVE",
"587 1294 CURVE SMOOTH",
"517 1294 OFFCURVE",
"481 1243 OFFCURVE",
"481 1158 CURVE SMOOTH",
"481 1107 OFFCURVE",
"483 1055 OFFCURVE",
"484 1008 CURVE"
);
}
);
width = 1200;
},
{
anchors = (
{
name = _top;
position = "{601, 1244}";
},
{
name = _top.dot;
position = "{616, 994}";
},
{
name = top;
position = "{621, 1510}";
}
);
layerId = "1F90C004-9C90-48FA-B407-176B3E9F1E65";
paths = (
{
closed = 1;
nodes = (
"576 1008 LINE",
"575 1054 OFFCURVE",
"573 1122 OFFCURVE",
"573 1152 CURVE SMOOTH",
"573 1191 OFFCURVE",
"588 1207 OFFCURVE",
"628 1207 CURVE SMOOTH",
"666 1207 OFFCURVE",
"726 1204 OFFCURVE",
"761 1201 CURVE",
"793 1296 LINE",
"752 1409 OFFCURVE",
"703 1469 OFFCURVE",
"646 1469 CURVE SMOOTH",
"587 1469 OFFCURVE",
"543 1396 OFFCURVE",
"516 1269 CURVE",
"586 1266 LINE",
"601 1328 OFFCURVE",
"611 1369 OFFCURVE",
"632 1369 CURVE SMOOTH",
"651 1369 OFFCURVE",
"672 1334 OFFCURVE",
"693 1281 CURVE",
"716 1302 LINE",
"690 1303 OFFCURVE",
"635 1308 OFFCURVE",
"596 1308 CURVE SMOOTH",
"514 1308 OFFCURVE",
"471 1266 OFFCURVE",
"471 1170 CURVE SMOOTH",
"471 1119 OFFCURVE",
"473 1055 OFFCURVE",
"474 1008 CURVE"
);
}
);
width = 1200;
},
{
anchors = (
{
name = _top;
position = "{601, 1244}";
},
{
name = _top.dot;
position = "{616, 994}";
},
{
name = top;
position = "{621, 1510}";
}
);
layerId = "8E053A5E-67DA-4970-A6F5-068DBFE5AD21";
paths = (
{
closed = 1;
nodes = (
"586 1008 LINE",
"585 1054 OFFCURVE",
"583 1115 OFFCURVE",
"583 1145 CURVE SMOOTH",
"583 1185 OFFCURVE",
"599 1200 OFFCURVE",
"638 1200 CURVE SMOOTH",
"677 1200 OFFCURVE",
"732 1197 OFFCURVE",
"767 1194 CURVE",
"799 1302 LINE",
"758 1415 OFFCURVE",
"703 1475 OFFCURVE",
"645 1475 CURVE SMOOTH",
"587 1475 OFFCURVE",
"543 1396 OFFCURVE",
"515 1269 CURVE",
"596 1266 LINE",
"610 1330 OFFCURVE",
"617 1358 OFFCURVE",
"638 1358 CURVE SMOOTH",
"655 1358 OFFCURVE",
"671 1334 OFFCURVE",
"693 1280 CURVE",
"716 1313 LINE",
"690 1314 OFFCURVE",
"631 1318 OFFCURVE",
"591 1318 CURVE SMOOTH",
"510 1318 OFFCURVE",
"467 1266 OFFCURVE",
"467 1170 CURVE SMOOTH",
"467 1119 OFFCURVE",
"469 1055 OFFCURVE",
"470 1008 CURVE"
);
}
);
width = 1200;
}
);
unicode = 06E2;
}
{
glyphname = "noonabove-ar";
layers = (
{
anchors = (
{
name = _top;
position = "{601, 1330}";
},
{
name = _top.dot;
position = "{600, 1080}";
},
{
name = top;
position = "{591, 1635}";
}
);
layerId = master01;
paths = (
{
closed = 1;
nodes = (
"733 1137 OFFCURVE",
"777 1199 OFFCURVE",
"777 1304 CURVE SMOOTH",
"777 1371 OFFCURVE",
"769 1421 OFFCURVE",
"760 1467 CURVE",
"682 1461 LINE",
"688 1407 OFFCURVE",
"695 1354 OFFCURVE",
"695 1306 CURVE SMOOTH",
"695 1238 OFFCURVE",
"668 1221 OFFCURVE",
"595 1221 CURVE SMOOTH",
"522 1221 OFFCURVE",
"501 1241 OFFCURVE",
"501 1312 CURVE SMOOTH",
"501 1357 OFFCURVE",
"511 1400 OFFCURVE",
"516 1441 CURVE",
"446 1443 LINE",
"434 1399 OFFCURVE",
"424 1354 OFFCURVE",
"424 1295 CURVE SMOOTH",
"424 1183 OFFCURVE",
"471 1137 OFFCURVE",
"592 1137 CURVE SMOOTH"
);
},
{
closed = 1;
nodes = (
"661 1539 LINE",
"593 1600 LINE",
"532 1538 LINE",
"599 1475 LINE"
);
}
);
width = 1200;
},
{
anchors = (
{
name = _top;
position = "{601, 1330}";
},
{
name = _top.dot;
position = "{600, 1080}";
},
{
name = top;
position = "{591, 1635}";
}
);
layerId = "1F90C004-9C90-48FA-B407-176B3E9F1E65";
paths = (
{
closed = 1;
nodes = (
"728 1134 OFFCURVE",
"787 1202 OFFCURVE",
"787 1307 CURVE SMOOTH",
"787 1377 OFFCURVE",
"775 1424 OFFCURVE",
"766 1471 CURVE",
"665 1462 LINE",
"673 1409 OFFCURVE",
"682 1368 OFFCURVE",
"682 1310 CURVE SMOOTH",
"682 1262 OFFCURVE",
"662 1238 OFFCURVE",
"595 1238 CURVE SMOOTH",
"522 1238 OFFCURVE",
"509 1261 OFFCURVE",
"509 1312 CURVE SMOOTH",
"509 1357 OFFCURVE",
"517 1405 OFFCURVE",
"522 1444 CURVE",
"435 1446 LINE",
"423 1399 OFFCURVE",
"414 1354 OFFCURVE",
"414 1295 CURVE SMOOTH",
"414 1183 OFFCURVE",
"466 1134 OFFCURVE",
"589 1134 CURVE SMOOTH"
);
},
{
closed = 1;
nodes = (
"668 1539 LINE",
"592 1607 LINE",
"525 1538 LINE",
"599 1468 LINE"
);
}
);
width = 1200;
},
{
anchors = (
{
name = _top;
position = "{601, 1330}";
},
{
name = _top.dot;
position = "{600, 1080}";
},
{
name = top;
position = "{591, 1635}";
}
);
layerId = "8E053A5E-67DA-4970-A6F5-068DBFE5AD21";
paths = (
{
closed = 1;
nodes = (
"736 1124 OFFCURVE",
"797 1190 OFFCURVE",
"797 1305 CURVE SMOOTH",
"797 1366 OFFCURVE",
"785 1424 OFFCURVE",
"776 1471 CURVE",
"652 1462 LINE",
"660 1409 OFFCURVE",
"669 1370 OFFCURVE",
"669 1312 CURVE SMOOTH",
"669 1270 OFFCURVE",
"646 1258 OFFCURVE",
"595 1258 CURVE SMOOTH",
"544 1258 OFFCURVE",
"529 1272 OFFCURVE",
"529 1315 CURVE SMOOTH",
"529 1352 OFFCURVE",
"537 1405 OFFCURVE",
"542 1444 CURVE",
"425 1446 LINE",
"413 1399 OFFCURVE",
"404 1354 OFFCURVE",
"404 1295 CURVE SMOOTH",
"404 1183 OFFCURVE",
"466 1124 OFFCURVE",
"589 1124 CURVE SMOOTH"
);
},
{
closed = 1;
nodes = (
"679 1551 LINE",
"589 1631 LINE",
"510 1550 LINE",
"597 1467 LINE"
);
}
);
width = 1200;
}
);
unicode = 06E8;
}
{
glyphname = "noonghunna-ar";
layers = (
{
anchors = (
{
name = bottom;
position = "{602, -387}";
},
{
name = bottom.dot;
position = "{603, -317}";
},
{
name = top;
position = "{605, 799}";
},
{
name = top.dot;
position = "{602, 549}";
}
);
layerId = master01;
paths = (
{
closed = 1;
nodes = (
"893 -335 OFFCURVE",
"1080 -241 OFFCURVE",
"1080 147 CURVE SMOOTH",
"1080 266 OFFCURVE",
"1066 405 OFFCURVE",
"1047 541 CURVE",
"955 536 LINE",
"973 394 OFFCURVE",
"988 284 OFFCURVE",
"988 133 CURVE SMOOTH",
"988 -161 OFFCURVE",
"875 -241 OFFCURVE",
"605 -241 CURVE SMOOTH",
"318 -241 OFFCURVE",
"211 -170 OFFCURVE",
"211 79 CURVE SMOOTH",
"211 221 OFFCURVE",
"237 348 OFFCURVE",
"255 464 CURVE",
"169 464 LINE",
"146 343 OFFCURVE",
"119 215 OFFCURVE",
"119 69 CURVE SMOOTH",
"119 -195 OFFCURVE",
"236 -335 OFFCURVE",
"591 -335 CURVE SMOOTH"
);
}
);
width = 1200;
},
{
anchors = (
{
name = bottom;
position = "{592, -387}";
},
{
name = bottom.dot;
position = "{593, -317}";
},
{
name = top;
position = "{607, 803}";
},
{
name = top.dot;
position = "{604, 553}";
}
);
layerId = "1F90C004-9C90-48FA-B407-176B3E9F1E65";
paths = (
{
closed = 1;
nodes = (
"972 -357 OFFCURVE",
"1114 -181 OFFCURVE",
"1114 176 CURVE SMOOTH",
"1114 332 OFFCURVE",
"1079 477 OFFCURVE",
"1062 592 CURVE",
"866 566 LINE",
"890 434 OFFCURVE",
"913 272 OFFCURVE",
"913 152 CURVE SMOOTH",
"913 -89 OFFCURVE",
"825 -145 OFFCURVE",
"580 -145 CURVE SMOOTH",
"341 -145 OFFCURVE",
"271 -77 OFFCURVE",
"271 122 CURVE SMOOTH",
"271 236 OFFCURVE",
"287 356 OFFCURVE",
"310 484 CURVE",
"132 484 LINE",
"90 349 OFFCURVE",
"76 197 OFFCURVE",
"76 90 CURVE SMOOTH",
"76 -230 OFFCURVE",
"223 -357 OFFCURVE",
"572 -357 CURVE SMOOTH"
);
}
);
width = 1200;
},
{
anchors = (
{
name = bottom;
position = "{592, -417}";
},
{
name = bottom.dot;
position = "{593, -347}";
},
{
name = top;
position = "{607, 803}";
},
{
name = top.dot;
position = "{604, 553}";
}
);
layerId = "8E053A5E-67DA-4970-A6F5-068DBFE5AD21";
paths = (
{
closed = 1;
nodes = (
"954 -383 OFFCURVE",
"1119 -247 OFFCURVE",
"1119 136 CURVE SMOOTH",
"1119 246 OFFCURVE",
"1106 387 OFFCURVE",
"1076 589 CURVE",
"834 564 LINE",
"857 384 OFFCURVE",
"872 232 OFFCURVE",
"872 126 CURVE SMOOTH",
"872 -36 OFFCURVE",
"830 -98 OFFCURVE",
"626 -98 CURVE SMOOTH",
"358 -98 OFFCURVE",
"316 -50 OFFCURVE",
"316 134 CURVE SMOOTH",
"316 226 OFFCURVE",
"333 356 OFFCURVE",
"355 495 CURVE",
"127 495 LINE",
"92 353 OFFCURVE",
"69 209 OFFCURVE",
"69 79 CURVE SMOOTH",
"69 -268 OFFCURVE",
"229 -383 OFFCURVE",
"605 -383 CURVE SMOOTH"
);
}
);
width = 1200;
}
);
unicode = 06BA;
}
{
glyphname = "six-persian";
layers = (
{
layerId = master01;
paths = (
{
closed = 1;
nodes = (
"356 338 OFFCURVE",
"524 599 OFFCURVE",
"1061 786 CURVE",
"1046 872 LINE",
"924 834 OFFCURVE",
"802 808 OFFCURVE",
"719 808 CURVE SMOOTH",
"534 808 OFFCURVE",
"420 858 OFFCURVE",
"420 1073 CURVE SMOOTH",
"420 1243 OFFCURVE",
"532 1345 OFFCURVE",
"731 1345 CURVE SMOOTH",
"830 1345 OFFCURVE",
"896 1326 OFFCURVE",
"963 1308 CURVE",
"969 1391 LINE",
"902 1420 OFFCURVE",
"828 1439 OFFCURVE",
"726 1439 CURVE SMOOTH",
"476 1439 OFFCURVE",
"328 1291 OFFCURVE",
"328 1065 CURVE SMOOTH",
"328 787 OFFCURVE",
"511 729 OFFCURVE",
"687 729 CURVE",
"687 684 LINE",
"783 697 LINE",
"786 759 LINE",
"434 608 OFFCURVE",
"282 365 OFFCURVE",
"157 61 CURVE",
"225 -6 LINE"
);
}
);
width = 1200;
},
{
layerId = "1F90C004-9C90-48FA-B407-176B3E9F1E65";
paths = (
{
closed = 1;
nodes = (
"418 240 OFFCURVE",
"640 566 OFFCURVE",
"1093 740 CURVE",
"1056 945 LINE",
"961 915 OFFCURVE",
"862 888 OFFCURVE",
"769 888 CURVE SMOOTH",
"594 888 OFFCURVE",
"533 928 OFFCURVE",
"533 1053 CURVE SMOOTH",
"533 1173 OFFCURVE",
"602 1225 OFFCURVE",
"771 1225 CURVE SMOOTH",
"860 1225 OFFCURVE",
"924 1213 OFFCURVE",
"973 1204 CURVE",
"986 1387 LINE",
"918 1417 OFFCURVE",
"828 1439 OFFCURVE",
"726 1439 CURVE SMOOTH",
"466 1439 OFFCURVE",
"308 1291 OFFCURVE",
"308 1065 CURVE SMOOTH",
"308 787 OFFCURVE",
"501 733 OFFCURVE",
"677 733 CURVE",
"677 684 LINE",
"866 700 LINE",
"850 790 LINE",
"444 659 OFFCURVE",
"224 327 OFFCURVE",
"137 101 CURVE",
"315 -6 LINE"
);
}
);
width = 1200;
},
{
layerId = "8E053A5E-67DA-4970-A6F5-068DBFE5AD21";
paths = (
{
closed = 1;
nodes = (
"458 236 OFFCURVE",
"684 526 OFFCURVE",
"1103 680 CURVE",
"1066 985 LINE",
"971 960 OFFCURVE",
"852 938 OFFCURVE",
"759 938 CURVE SMOOTH",
"604 938 OFFCURVE",
"547 961 OFFCURVE",
"547 1049 CURVE SMOOTH",
"547 1125 OFFCURVE",
"622 1154 OFFCURVE",
"771 1154 CURVE SMOOTH",
"860 1154 OFFCURVE",
"934 1142 OFFCURVE",
"983 1133 CURVE",
"996 1387 LINE",
"928 1417 OFFCURVE",
"828 1439 OFFCURVE",
"726 1439 CURVE SMOOTH",
"466 1439 OFFCURVE",
"298 1291 OFFCURVE",
"298 1055 CURVE SMOOTH",
"298 787 OFFCURVE",
"458 696 OFFCURVE",
"634 696 CURVE",
"634 644 LINE",
"823 660 LINE",
"807 740 LINE",
"391 619 OFFCURVE",
"214 377 OFFCURVE",
"127 141 CURVE",
"355 -10 LINE"
);
}
);
width = 1200;
}
);
unicode = 06F6;
}
{
glyphname = "yehbarree-ar";
layers = (
{
anchors = (
{
name = bottom;
position = "{572, -141}";
},
{
name = top;
position = "{562, 1030}";
},
{
name = top.dot;
position = "{569, 780}";
}
);
layerId = master01;
paths = (
{
closed = 1;
nodes = (
"822 -3 OFFCURVE",
"1024 16 OFFCURVE",
"1145 37 CURVE",
"1152 123 LINE",
"1029 110 OFFCURVE",
"840 91 OFFCURVE",
"615 91 CURVE SMOOTH",
"217 91 OFFCURVE",
"131 147 OFFCURVE",
"131 216 CURVE SMOOTH",
"131 278 OFFCURVE",
"212 319 OFFCURVE",
"316 403 CURVE SMOOTH",
"440 503 OFFCURVE",
"513 608 OFFCURVE",
"569 608 CURVE SMOOTH",
"615 608 OFFCURVE",
"640 564 OFFCURVE",
"704 466 CURVE",
"777 513 LINE",
"684 658 OFFCURVE",
"651 702 OFFCURVE",
"570 702 CURVE SMOOTH",
"471 702 OFFCURVE",
"397 576 OFFCURVE",
"264 470 CURVE SMOOTH",
"132 364 OFFCURVE",
"39 323 OFFCURVE",
"39 209 CURVE SMOOTH",
"39 68 OFFCURVE",
"182 -3 OFFCURVE",
"601 -3 CURVE SMOOTH"
);
}
);
width = 1200;
},
{
anchors = (
{
name = bottom;
position = "{572, -141}";
},
{
name = top;
position = "{562, 1030}";
},
{
name = top.dot;
position = "{569, 780}";
}
);
layerId = "1F90C004-9C90-48FA-B407-176B3E9F1E65";
paths = (
{
closed = 1;
nodes = (
"822 -6 OFFCURVE",
"1034 13 OFFCURVE",
"1155 34 CURVE",
"1172 234 LINE",
"1059 221 OFFCURVE",
"880 206 OFFCURVE",
"605 206 CURVE SMOOTH",
"277 206 OFFCURVE",
"225 218 OFFCURVE",
"225 263 CURVE SMOOTH",
"225 297 OFFCURVE",
"245 313 OFFCURVE",
"336 385 CURVE SMOOTH",
"445 472 OFFCURVE",
"497 540 OFFCURVE",
"543 540 CURVE SMOOTH",
"583 540 OFFCURVE",
"601 499 OFFCURVE",
"644 423 CURVE",
"797 510 LINE",
"731 657 OFFCURVE",
"665 749 OFFCURVE",
"566 749 CURVE SMOOTH",
"450 749 OFFCURVE",
"358 625 OFFCURVE",
"226 517 CURVE SMOOTH",
"90 406 OFFCURVE",
"19 348 OFFCURVE",
"19 226 CURVE SMOOTH",
"19 65 OFFCURVE",
"202 -6 OFFCURVE",
"601 -6 CURVE SMOOTH"
);
}
);
width = 1200;
},
{
anchors = (
{
name = bottom;
position = "{572, -141}";
},
{
name = top;
position = "{562, 1030}";
},
{
name = top.dot;
position = "{569, 780}";
}
);
layerId = "8E053A5E-67DA-4970-A6F5-068DBFE5AD21";
paths = (
{
closed = 1;
nodes = (
"822 -10 OFFCURVE",
"1034 9 OFFCURVE",
"1155 30 CURVE",
"1172 313 LINE",
"1059 300 OFFCURVE",
"880 285 OFFCURVE",
"605 285 CURVE SMOOTH",
"297 285 OFFCURVE",
"285 286 OFFCURVE",
"286 305 CURVE SMOOTH",
"287 321 OFFCURVE",
"316 324 OFFCURVE",
"372 366 CURVE SMOOTH",
"468 438 OFFCURVE",
"502 475 OFFCURVE",
"539 475 CURVE SMOOTH",
"570 475 OFFCURVE",
"583 450 OFFCURVE",
"621 394 CURVE",
"813 533 LINE",
"720 700 OFFCURVE",
"658 760 OFFCURVE",
"571 760 CURVE SMOOTH",
"466 760 OFFCURVE",
"366 635 OFFCURVE",
"228 529 CURVE SMOOTH",
"48 391 OFFCURVE",
"9 359 OFFCURVE",
"9 237 CURVE SMOOTH",
"9 76 OFFCURVE",
"202 -10 OFFCURVE",
"601 -10 CURVE SMOOTH"
);
}
);
width = 1200;
}
);
unicode = 06D2;
}
{
glyphname = "rehLoop-ar";
layers = (
{
anchors = (
{
name = bottom;
position = "{517, -585}";
},
{
name = top;
position = "{760, 905}";
}
);
layerId = master01;
paths = (
{
closed = 1;
nodes = (
"569 -595 LINE",
"598 -438 OFFCURVE",
"638 -270 OFFCURVE",
"638 -112 CURVE SMOOTH",
"638 117 OFFCURVE",
"534 222 OFFCURVE",
"397 222 CURVE SMOOTH",
"233 222 OFFCURVE",
"127 70 OFFCURVE",
"127 -123 CURVE SMOOTH",
"127 -372 OFFCURVE",
"284 -448 OFFCURVE",
"472 -448 CURVE SMOOTH",
"861 -448 OFFCURVE",
"1021 -274 OFFCURVE",
"1021 68 CURVE SMOOTH",
"1021 215 OFFCURVE",
"966 396 OFFCURVE",
"859 580 CURVE",
"779 535 LINE",
"879 355 OFFCURVE",
"929 183 OFFCURVE",
"929 61 CURVE SMOOTH",
"929 -217 OFFCURVE",
"799 -354 OFFCURVE",
"473 -354 CURVE SMOOTH",
"299 -354 OFFCURVE",
"216 -280 OFFCURVE",
"216 -121 CURVE SMOOTH",
"216 63 OFFCURVE",
"307 128 OFFCURVE",
"390 128 CURVE SMOOTH",
"499 128 OFFCURVE",
"551 40 OFFCURVE",
"551 -134 CURVE SMOOTH",
"551 -273 OFFCURVE",
"518 -429 OFFCURVE",
"486 -597 CURVE"
);
}
);
width = 1200;
},
{
anchors = (
{
name = bottom;
position = "{517, -585}";
},
{
name = top;
position = "{760, 905}";
}
);
layerId = "8E053A5E-67DA-4970-A6F5-068DBFE5AD21";
paths = (
{
closed = 1;
nodes = (
"584 -603 LINE",
"625 -445 OFFCURVE",
"649 -342 OFFCURVE",
"649 -158 CURVE SMOOTH",
"649 116 OFFCURVE",
"536 259 OFFCURVE",
"374 259 CURVE SMOOTH",
"201 259 OFFCURVE",
"72 81 OFFCURVE",
"72 -130 CURVE SMOOTH",
"72 -393 OFFCURVE",
"207 -491 OFFCURVE",
"462 -491 CURVE SMOOTH",
"851 -491 OFFCURVE",
"1079 -304 OFFCURVE",
"1079 78 CURVE SMOOTH",
"1079 258 OFFCURVE",
"1005 462 OFFCURVE",
"877 677 CURVE",
"644 554 LINE",
"753 351 OFFCURVE",
"811 205 OFFCURVE",
"811 70 CURVE SMOOTH",
"811 -148 OFFCURVE",
"718 -231 OFFCURVE",
"422 -231 CURVE SMOOTH",
"309 -231 OFFCURVE",
"267 -207 OFFCURVE",
"267 -124 CURVE SMOOTH",
"267 -51 OFFCURVE",
"298 5 OFFCURVE",
"355 5 CURVE SMOOTH",
"416 5 OFFCURVE",
"449 -56 OFFCURVE",
"449 -179 CURVE SMOOTH",
"449 -332 OFFCURVE",
"422 -454 OFFCURVE",
"395 -606 CURVE"
);
}
);
width = 1200;
},
{
anchors = (
{
name = bottom;
position = "{517, -585}";
},
{
name = top;
position = "{760, 905}";
}
);
layerId = "1F90C004-9C90-48FA-B407-176B3E9F1E65";
paths = (
{
closed = 1;
nodes = (
"586 -607 LINE",
"615 -466 OFFCURVE",
"643 -315 OFFCURVE",
"643 -145 CURVE SMOOTH",
"643 83 OFFCURVE",
"563 241 OFFCURVE",
"386 241 CURVE SMOOTH",
"198 241 OFFCURVE",
"87 80 OFFCURVE",
"87 -101 CURVE SMOOTH",
"87 -320 OFFCURVE",
"203 -471 OFFCURVE",
"472 -471 CURVE SMOOTH",
"861 -471 OFFCURVE",
"1059 -274 OFFCURVE",
"1059 78 CURVE SMOOTH",
"1059 238 OFFCURVE",
"996 414 OFFCURVE",
"870 619 CURVE",
"689 525 LINE",
"800 323 OFFCURVE",
"849 194 OFFCURVE",
"849 71 CURVE SMOOTH",
"849 -157 OFFCURVE",
"718 -268 OFFCURVE",
"442 -268 CURVE SMOOTH",
"320 -268 OFFCURVE",
"249 -221 OFFCURVE",
"249 -104 CURVE SMOOTH",
"249 -12 OFFCURVE",
"303 43 OFFCURVE",
"363 43 CURVE SMOOTH",
"451 43 OFFCURVE",
"465 -72 OFFCURVE",
"465 -193 CURVE SMOOTH",
"465 -336 OFFCURVE",
"447 -455 OFFCURVE",
"420 -606 CURVE"
);
}
);
width = 1200;
}
);
unicode = 08AA;
}
{
glyphname = "wawStraight-ar";
layers = (
{
layerId = master01;
paths = (
{
closed = 1;
nodes = (
"962 -260 OFFCURVE",
"1000 -48 OFFCURVE",
"1000 125 CURVE SMOOTH",
"1000 477 OFFCURVE",
"867 628 OFFCURVE",
"693 628 CURVE SMOOTH",
"491 628 OFFCURVE",
"380 442 OFFCURVE",
"380 266 CURVE SMOOTH",
"380 73 OFFCURVE",
"459 -3 OFFCURVE",
"664 -3 CURVE SMOOTH",
"1183 -3 LINE SMOOTH",
"1252 -3 OFFCURVE",
"1278 3 OFFCURVE",
"1278 47 CURVE SMOOTH",
"1278 81 OFFCURVE",
"1265 91 OFFCURVE",
"1200 91 CURVE SMOOTH",
"963 91 LINE",
"853 91 OFFCURVE",
"740 91 OFFCURVE",
"687 91 CURVE SMOOTH",
"515 91 OFFCURVE",
"472 139 OFFCURVE",
"472 272 CURVE SMOOTH",
"472 410 OFFCURVE",
"553 534 OFFCURVE",
"686 534 CURVE SMOOTH",
"825 534 OFFCURVE",
"908 392 OFFCURVE",
"908 118 CURVE SMOOTH",
"908 -45 OFFCURVE",
"866 -229 OFFCURVE",
"771 -435 CURVE",
"876 -456 LINE"
);
}
);
width = 1200;
},
{
layerId = "8E053A5E-67DA-4970-A6F5-068DBFE5AD21";
paths = (
{
closed = 1;
nodes = (
"959 -388 OFFCURVE",
"1041 -157 OFFCURVE",
"1041 157 CURVE SMOOTH",
"1041 502 OFFCURVE",
"916 728 OFFCURVE",
"680 728 CURVE SMOOTH",
"479 728 OFFCURVE",
"341 529 OFFCURVE",
"341 307 CURVE SMOOTH",
"341 98 OFFCURVE",
"416 -10 OFFCURVE",
"649 -10 CURVE SMOOTH",
"1190 -10 LINE SMOOTH",
"1250 -10 OFFCURVE",
"1285 51 OFFCURVE",
"1285 138 CURVE SMOOTH",
"1285 222 OFFCURVE",
"1261 285 OFFCURVE",
"1200 285 CURVE SMOOTH",
"969 284 LINE",
"866 280 OFFCURVE",
"786 282 OFFCURVE",
"693 282 CURVE SMOOTH",
"558 282 OFFCURVE",
"537 300 OFFCURVE",
"537 348 CURVE SMOOTH",
"537 408 OFFCURVE",
"580 456 OFFCURVE",
"660 456 CURVE SMOOTH",
"772 456 OFFCURVE",
"835 383 OFFCURVE",
"835 144 CURVE SMOOTH",
"835 -79 OFFCURVE",
"730 -287 OFFCURVE",
"651 -445 CURVE",
"923 -480 LINE"
);
}
);
width = 1200;
},
{
layerId = "1F90C004-9C90-48FA-B407-176B3E9F1E65";
paths = (
{
closed = 1;
nodes = (
"992 -264 OFFCURVE",
"1031 -26 OFFCURVE",
"1031 157 CURVE SMOOTH",
"1031 502 OFFCURVE",
"916 718 OFFCURVE",
"680 718 CURVE SMOOTH",
"479 718 OFFCURVE",
"351 529 OFFCURVE",
"351 307 CURVE SMOOTH",
"351 98 OFFCURVE",
"416 -6 OFFCURVE",
"649 -6 CURVE SMOOTH",
"1190 -6 LINE SMOOTH",
"1250 -6 OFFCURVE",
"1285 21 OFFCURVE",
"1285 98 CURVE SMOOTH",
"1285 182 OFFCURVE",
"1261 206 OFFCURVE",
"1200 206 CURVE SMOOTH",
"969 205 LINE",
"866 201 OFFCURVE",
"786 203 OFFCURVE",
"693 203 CURVE SMOOTH",
"558 203 OFFCURVE",
"527 228 OFFCURVE",
"527 328 CURVE SMOOTH",
"527 435 OFFCURVE",
"585 506 OFFCURVE",
"677 506 CURVE SMOOTH",
"799 506 OFFCURVE",
"855 403 OFFCURVE",
"855 144 CURVE SMOOTH",
"855 -29 OFFCURVE",
"801 -232 OFFCURVE",
"702 -428 CURVE",
"906 -460 LINE"
);
}
);
width = 1200;
}
);
unicode = 08B1;
}
{
color = 10;
glyphname = exclam;
layers = (
{
components = (
{
name = period;
}
);
layerId = master01;
paths = (
{
closed = 1;
nodes = (
"644 356 LINE",
"650 1430 LINE",
"550 1430 LINE",
"552 356 LINE"
);
}
);
width = 1200;
},
{
components = (
{
name = period;
}
);
layerId = "1F90C004-9C90-48FA-B407-176B3E9F1E65";
paths = (
{
closed = 1;
nodes = (
"684 456 LINE",
"704 1430 LINE",
"496 1430 LINE",
"512 456 LINE"
);
}
);
width = 1200;
},
{
components = (
{
alignment = -1;
name = period;
}
);
layerId = "8E053A5E-67DA-4970-A6F5-068DBFE5AD21";
paths = (
{
closed = 1;
nodes = (
"717 556 LINE",
"754 1430 LINE",
"446 1430 LINE",
"479 556 LINE"
);
}
);
width = 1200;
}
);
unicode = 0021;
}
{
color = 10;
glyphname = one;
layers = (
{
layerId = master01;
paths = (
{
closed = 1;
nodes = (
"677 0 LINE",
"677 1420 LINE",
"583 1420 LINE",
"583 0 LINE"
);
},
{
closed = 1;
nodes = (
"603 0 LINE",
"603 90 LINE",
"194 90 LINE",
"194 0 LINE"
);
},
{
closed = 1;
nodes = (
"1028 0 LINE",
"1028 90 LINE",
"655 90 LINE",
"655 0 LINE"
);
},
{
closed = 1;
nodes = (
"583 1324 LINE",
"583 1420 LINE",
"214 1300 LINE",
"214 1208 LINE"
);
}
);
width = 1200;
},
{
layerId = "1F90C004-9C90-48FA-B407-176B3E9F1E65";
paths = (
{
closed = 1;
nodes = (
"734 0 LINE",
"734 1420 LINE",
"526 1420 LINE",
"526 0 LINE"
);
},
{
closed = 1;
nodes = (
"546 0 LINE",
"546 190 LINE",
"170 190 LINE",
"170 0 LINE"
);
},
{
closed = 1;
nodes = (
"1052 0 LINE",
"1052 190 LINE",
"714 190 LINE",
"714 0 LINE"
);
},
{
closed = 1;
nodes = (
"526 1214 LINE",
"526 1420 LINE",
"190 1300 LINE",
"190 1098 LINE"
);
}
);
width = 1200;
},
{
layerId = "8E053A5E-67DA-4970-A6F5-068DBFE5AD21";
paths = (
{
closed = 1;
nodes = (
"762 0 LINE",
"762 1420 LINE",
"498 1420 LINE",
"498 0 LINE"
);
},
{
closed = 1;
nodes = (
"518 0 LINE",
"518 234 LINE",
"153 234 LINE",
"153 0 LINE"
);
},
{
closed = 1;
nodes = (
"1069 0 LINE",
"1069 234 LINE",
"742 234 LINE",
"742 0 LINE"
);
},
{
closed = 1;
nodes = (
"498 1164 LINE",
"498 1420 LINE",
"173 1300 LINE",
"173 1048 LINE"
);
}
);
width = 1200;
}
);
unicode = 0031;
}
{
glyphname = "comma-ar";
layers = (
{
layerId = master01;
paths = (
{
closed = 1;
nodes = (
"668 -6 OFFCURVE",
"702 33 OFFCURVE",
"702 98 CURVE SMOOTH",
"702 146 OFFCURVE",
"676 197 OFFCURVE",
"583 191 CURVE",
"588 294 OFFCURVE",
"639 413 OFFCURVE",
"721 540 CURVE",
"640 550 LINE",
"543 413 OFFCURVE",
"500 257 OFFCURVE",
"500 143 CURVE SMOOTH",
"500 32 OFFCURVE",
"547 -6 OFFCURVE",
"606 -6 CURVE SMOOTH"
);
}
);
width = 1200;
},
{
layerId = "1F90C004-9C90-48FA-B407-176B3E9F1E65";
paths = (
{
closed = 1;
nodes = (
"700 -6 OFFCURVE",
"749 47 OFFCURVE",
"749 126 CURVE SMOOTH",
"749 205 OFFCURVE",
"703 232 OFFCURVE",
"620 237 CURVE",
"632 330 OFFCURVE",
"678 444 OFFCURVE",
"762 560 CURVE",
"625 570 LINE",
"528 461 OFFCURVE",
"454 297 OFFCURVE",
"454 163 CURVE SMOOTH",
"454 40 OFFCURVE",
"522 -6 OFFCURVE",
"611 -6 CURVE SMOOTH"
);
}
);
width = 1200;
},
{
layerId = "8E053A5E-67DA-4970-A6F5-068DBFE5AD21";
paths = (
{
closed = 1;
nodes = (
"700 -10 OFFCURVE",
"782 46 OFFCURVE",
"782 143 CURVE SMOOTH",
"782 242 OFFCURVE",
"701 282 OFFCURVE",
"618 287 CURVE",
"640 380 OFFCURVE",
"698 463 OFFCURVE",
"772 560 CURVE",
"615 570 LINE",
"498 461 OFFCURVE",
"418 327 OFFCURVE",
"418 183 CURVE SMOOTH",
"418 52 OFFCURVE",
"495 -10 OFFCURVE",
"611 -10 CURVE SMOOTH"
);
}
);
width = 1200;
}
);
unicode = 060C;
}
{
glyphname = "dateseparator-ar";
layers = (
{
guideLines = (
{
position = "{100, 682}";
}
);
layerId = master01;
paths = (
{
closed = 1;
nodes = (
"396 0 LINE",
"866 1060 LINE",
"774 1060 LINE",
"304 0 LINE"
);
}
);
width = 1200;
},
{
layerId = "8E053A5E-67DA-4970-A6F5-068DBFE5AD21";
paths = (
{
closed = 1;
nodes = (
"485 0 LINE",
"958 1060 LINE",
"664 1060 LINE",
"234 0 LINE"
);
}
);
width = 1200;
},
{
layerId = "1F90C004-9C90-48FA-B407-176B3E9F1E65";
paths = (
{
closed = 1;
nodes = (
"455 0 LINE",
"928 1060 LINE",
"694 1060 LINE",
"264 0 LINE"
);
}
);
width = 1200;
}
);
unicode = 060D;
}
{
glyphname = "misraComma-ar";
layers = (
{
layerId = master01;
paths = (
{
closed = 1;
nodes = (
"375 -233 OFFCURVE",
"559 -78 OFFCURVE",
"818 -78 CURVE SMOOTH",
"992 -78 OFFCURVE",
"1050 -164 OFFCURVE",
"1050 -272 CURVE SMOOTH",
"1050 -435 OFFCURVE",
"881 -515 OFFCURVE",
"638 -515 CURVE SMOOTH",
"295 -515 OFFCURVE",
"166 -430 OFFCURVE",
"166 -219 CURVE SMOOTH",
"166 11 OFFCURVE",
"294 155 OFFCURVE",
"903 299 CURVE",
"891 387 LINE",
"745 353 OFFCURVE",
"629 328 OFFCURVE",
"536 328 CURVE SMOOTH",
"349 328 OFFCURVE",
"248 411 OFFCURVE",
"248 571 CURVE SMOOTH",
"248 742 OFFCURVE",
"344 830 OFFCURVE",
"551 830 CURVE SMOOTH",
"634 830 OFFCURVE",
"716 812 OFFCURVE",
"795 790 CURVE",
"803 872 LINE",
"732 902 OFFCURVE",
"626 924 OFFCURVE",
"533 924 CURVE SMOOTH",
"300 924 OFFCURVE",
"156 797 OFFCURVE",
"156 578 CURVE SMOOTH",
"156 412 OFFCURVE",
"248 289 OFFCURVE",
"409 258 CURVE",
"409 216 LINE",
"445 229 LINE",
"454 264 LINE",
"215 151 OFFCURVE",
"74 18 OFFCURVE",
"74 -216 CURVE SMOOTH",
"74 -536 OFFCURVE",
"308 -609 OFFCURVE",
"628 -609 CURVE SMOOTH",
"937 -609 OFFCURVE",
"1142 -493 OFFCURVE",
"1142 -268 CURVE SMOOTH",
"1142 -78 OFFCURVE",
"1018 16 OFFCURVE",
"824 16 CURVE SMOOTH",
"547 16 OFFCURVE",
"294 -150 OFFCURVE",
"81 -620 CURVE",
"146 -664 LINE"
);
}
);
width = 1200;
},
{
layerId = "8E053A5E-67DA-4970-A6F5-068DBFE5AD21";
paths = (
{
closed = 1;
nodes = (
"446 -356 OFFCURVE",
"619 -209 OFFCURVE",
"808 -209 CURVE SMOOTH",
"892 -209 OFFCURVE",
"923 -244 OFFCURVE",
"923 -281 CURVE SMOOTH",
"923 -328 OFFCURVE",
"861 -354 OFFCURVE",
"668 -354 CURVE SMOOTH",
"385 -354 OFFCURVE",
"298 -310 OFFCURVE",
"298 -179 CURVE SMOOTH",
"298 -49 OFFCURVE",
"383 90 OFFCURVE",
"926 203 CURVE",
"907 483 LINE",
"762 456 OFFCURVE",
"677 443 OFFCURVE",
"604 443 CURVE SMOOTH",
"433 443 OFFCURVE",
"393 470 OFFCURVE",
"393 571 CURVE SMOOTH",
"393 662 OFFCURVE",
"450 700 OFFCURVE",
"587 700 CURVE SMOOTH",
"665 700 OFFCURVE",
"744 688 OFFCURVE",
"825 670 CURVE",
"842 913 LINE",
"750 949 OFFCURVE",
"656 974 OFFCURVE",
"543 974 CURVE SMOOTH",
"300 974 OFFCURVE",
"136 807 OFFCURVE",
"136 578 CURVE SMOOTH",
"136 412 OFFCURVE",
"199 314 OFFCURVE",
"372 273 CURVE",
"372 237 LINE",
"440 235 LINE",
"432 285 LINE",
"203 179 OFFCURVE",
"44 14 OFFCURVE",
"44 -219 CURVE SMOOTH",
"44 -539 OFFCURVE",
"298 -649 OFFCURVE",
"628 -649 CURVE SMOOTH",
"1040 -649 OFFCURVE",
"1173 -460 OFFCURVE",
"1173 -248 CURVE SMOOTH",
"1173 -58 OFFCURVE",
"1048 76 OFFCURVE",
"824 76 CURVE SMOOTH",
"527 76 OFFCURVE",
"266 -133 OFFCURVE",
"43 -593 CURVE",
"247 -717 LINE"
);
}
);
width = 1200;
},
{
layerId = "1F90C004-9C90-48FA-B407-176B3E9F1E65";
paths = (
{
closed = 1;
nodes = (
"405 -343 OFFCURVE",
"579 -159 OFFCURVE",
"798 -159 CURVE SMOOTH",
"922 -159 OFFCURVE",
"973 -214 OFFCURVE",
"973 -292 CURVE SMOOTH",
"973 -375 OFFCURVE",
"881 -434 OFFCURVE",
"668 -434 CURVE SMOOTH",
"405 -434 OFFCURVE",
"244 -385 OFFCURVE",
"244 -204 CURVE SMOOTH",
"244 -34 OFFCURVE",
"353 130 OFFCURVE",
"916 253 CURVE",
"897 443 LINE",
"752 416 OFFCURVE",
"677 403 OFFCURVE",
"604 403 CURVE SMOOTH",
"423 403 OFFCURVE",
"333 411 OFFCURVE",
"333 571 CURVE SMOOTH",
"333 702 OFFCURVE",
"410 750 OFFCURVE",
"567 750 CURVE SMOOTH",
"645 750 OFFCURVE",
"714 738 OFFCURVE",
"795 720 CURVE",
"812 893 LINE",
"720 929 OFFCURVE",
"636 954 OFFCURVE",
"523 954 CURVE SMOOTH",
"280 954 OFFCURVE",
"126 807 OFFCURVE",
"126 578 CURVE SMOOTH",
"126 412 OFFCURVE",
"199 297 OFFCURVE",
"372 276 CURVE",
"372 250 LINE",
"420 238 LINE",
"419 282 LINE",
"200 176 OFFCURVE",
"54 -1 OFFCURVE",
"54 -234 CURVE SMOOTH",
"54 -534 OFFCURVE",
"298 -639 OFFCURVE",
"628 -639 CURVE SMOOTH",
"937 -639 OFFCURVE",
"1163 -537 OFFCURVE",
"1163 -268 CURVE SMOOTH",
"1163 -78 OFFCURVE",
"1028 46 OFFCURVE",
"824 46 CURVE SMOOTH",
"537 46 OFFCURVE",
"274 -150 OFFCURVE",
"51 -610 CURVE",
"206 -704 LINE"
);
}
);
width = 1200;
}
);
unicode = 060F;
}
{
glyphname = "verseComma-ar";
layers = (
{
layerId = master01;
paths = (
{
closed = 1;
nodes = (
"758 -6 OFFCURVE",
"984 6 OFFCURVE",
"1138 18 CURVE",
"1139 112 LINE",
"996 102 OFFCURVE",
"762 88 OFFCURVE",
"504 88 CURVE SMOOTH",
"247 88 OFFCURVE",
"166 140 OFFCURVE",
"166 265 CURVE SMOOTH",
"166 373 OFFCURVE",
"247 467 OFFCURVE",
"365 467 CURVE SMOOTH",
"469 467 OFFCURVE",
"501 381 OFFCURVE",
"501 255 CURVE SMOOTH",
"501 182 OFFCURVE",
"493 134 OFFCURVE",
"482 63 CURVE",
"570 49 LINE",
"584 117 OFFCURVE",
"593 192 OFFCURVE",
"593 267 CURVE SMOOTH",
"593 442 OFFCURVE",
"538 561 OFFCURVE",
"370 561 CURVE SMOOTH",
"198 561 OFFCURVE",
"74 425 OFFCURVE",
"74 265 CURVE SMOOTH",
"74 73 OFFCURVE",
"180 -6 OFFCURVE",
"505 -6 CURVE SMOOTH"
);
}
);
width = 1200;
},
{
layerId = "8E053A5E-67DA-4970-A6F5-068DBFE5AD21";
paths = (
{
closed = 1;
nodes = (
"768 -10 OFFCURVE",
"1012 -3 OFFCURVE",
"1158 14 CURVE",
"1159 224 LINE",
"1016 213 OFFCURVE",
"732 200 OFFCURVE",
"504 200 CURVE SMOOTH",
"297 200 OFFCURVE",
"245 217 OFFCURVE",
"245 270 CURVE SMOOTH",
"245 321 OFFCURVE",
"286 356 OFFCURVE",
"343 356 CURVE SMOOTH",
"403 356 OFFCURVE",
"437 328 OFFCURVE",
"437 245 CURVE SMOOTH",
"437 172 OFFCURVE",
"429 134 OFFCURVE",
"418 63 CURVE",
"599 49 LINE",
"615 117 OFFCURVE",
"626 202 OFFCURVE",
"626 277 CURVE SMOOTH",
"626 462 OFFCURVE",
"551 581 OFFCURVE",
"360 581 CURVE SMOOTH",
"173 581 OFFCURVE",
"44 425 OFFCURVE",
"44 265 CURVE SMOOTH",
"44 73 OFFCURVE",
"154 -10 OFFCURVE",
"505 -10 CURVE SMOOTH"
);
}
);
width = 1200;
},
{
layerId = "1F90C004-9C90-48FA-B407-176B3E9F1E65";
paths = (
{
closed = 1;
nodes = (
"768 -6 OFFCURVE",
"1002 1 OFFCURVE",
"1148 18 CURVE",
"1149 178 LINE",
"1006 164 OFFCURVE",
"762 154 OFFCURVE",
"504 154 CURVE SMOOTH",
"247 154 OFFCURVE",
"211 190 OFFCURVE",
"211 265 CURVE SMOOTH",
"211 353 OFFCURVE",
"272 406 OFFCURVE",
"345 406 CURVE SMOOTH",
"425 406 OFFCURVE",
"463 351 OFFCURVE",
"463 245 CURVE SMOOTH",
"463 172 OFFCURVE",
"455 134 OFFCURVE",
"444 63 CURVE",
"586 49 LINE",
"602 117 OFFCURVE",
"613 202 OFFCURVE",
"613 277 CURVE SMOOTH",
"613 452 OFFCURVE",
"538 571 OFFCURVE",
"360 571 CURVE SMOOTH",
"173 571 OFFCURVE",
"54 425 OFFCURVE",
"54 265 CURVE SMOOTH",
"54 73 OFFCURVE",
"180 -6 OFFCURVE",
"505 -6 CURVE SMOOTH"
);
}
);
width = 1200;
}
);
unicode = 060E;
}
{
glyphname = "question-ar";
layers = (
{
background = {
paths = (
{
closed = 1;
nodes = (
"738 376 LINE",
"738 458 LINE SMOOTH",
"738 558 OFFCURVE",
"778 631 OFFCURVE",
"874 698 CURVE SMOOTH",
"1043 818 OFFCURVE",
"1115 935 OFFCURVE",
"1115 1092 CURVE SMOOTH",
"1115 1313 OFFCURVE",
"974 1440 OFFCURVE",
"729 1440 CURVE",
"727 1350 LINE",
"914 1350 OFFCURVE",
"1021 1252 OFFCURVE",
"1021 1082 CURVE SMOOTH",
"1021 960 OFFCURVE",
"964 867 OFFCURVE",
"830 774 CURVE SMOOTH",
"700 683 OFFCURVE",
"644 594 OFFCURVE",
"644 472 CURVE SMOOTH",
"644 376 LINE"
);
},
{
closed = 1;
nodes = (
"469 1305 OFFCURVE",
"587 1350 OFFCURVE",
"727 1350 CURVE",
"729 1440 LINE",
"557 1440 OFFCURVE",
"421 1387 OFFCURVE",
"273 1261 CURVE",
"332 1198 LINE"
);
}
);
};
components = (
{
name = period;
transform = "{1, 0, 0, 1, 80, 0}";
}
);
layerId = master01;
paths = (
{
closed = 1;
nodes = (
"754 346 LINE",
"766 410 OFFCURVE",
"773 457 OFFCURVE",
"773 504 CURVE SMOOTH",
"773 622 OFFCURVE",
"746 695 OFFCURVE",
"568 812 CURVE SMOOTH",
"439 897 OFFCURVE",
"365 965 OFFCURVE",
"365 1103 CURVE SMOOTH",
"365 1247 OFFCURVE",
"476 1346 OFFCURVE",
"675 1346 CURVE SMOOTH",
"792 1346 OFFCURVE",
"890 1308 OFFCURVE",
"994 1245 CURVE",
"1004 1333 LINE",
"929 1392 OFFCURVE",
"822 1440 OFFCURVE",
"678 1440 CURVE SMOOTH",
"423 1440 OFFCURVE",
"273 1296 OFFCURVE",
"273 1106 CURVE SMOOTH",
"273 949 OFFCURVE",
"339 855 OFFCURVE",
"509 742 CURVE SMOOTH",
"669 636 OFFCURVE",
"683 588 OFFCURVE",
"683 498 CURVE SMOOTH",
"683 450 OFFCURVE",
"675 403 OFFCURVE",
"668 346 CURVE"
);
}
);
width = 1200;
},
{
components = (
{
name = period;
transform = "{1, 0, 0, 1, 80, 0}";
}
);
layerId = "1F90C004-9C90-48FA-B407-176B3E9F1E65";
paths = (
{
closed = 1;
nodes = (
"786 406 LINE",
"800 463 OFFCURVE",
"803 517 OFFCURVE",
"803 554 CURVE SMOOTH",
"803 653 OFFCURVE",
"779 730 OFFCURVE",
"628 852 CURVE SMOOTH",
"508 949 OFFCURVE",
"460 996 OFFCURVE",
"460 1073 CURVE SMOOTH",
"460 1161 OFFCURVE",
"536 1224 OFFCURVE",
"679 1224 CURVE SMOOTH",
"786 1224 OFFCURVE",
"895 1191 OFFCURVE",
"994 1129 CURVE",
"1021 1327 LINE",
"945 1389 OFFCURVE",
"822 1440 OFFCURVE",
"678 1440 CURVE SMOOTH",
"423 1440 OFFCURVE",
"253 1286 OFFCURVE",
"253 1079 CURVE SMOOTH",
"253 914 OFFCURVE",
"333 835 OFFCURVE",
"460 726 CURVE SMOOTH",
"591 614 OFFCURVE",
"613 577 OFFCURVE",
"613 498 CURVE SMOOTH",
"613 460 OFFCURVE",
"610 440 OFFCURVE",
"608 406 CURVE"
);
}
);
width = 1200;
},
{
components = (
{
name = period;
transform = "{1, 0, 0, 1, 80, 0}";
}
);
layerId = "8E053A5E-67DA-4970-A6F5-068DBFE5AD21";
paths = (
{
closed = 1;
nodes = (
"820 426 LINE",
"837 483 OFFCURVE",
"842 517 OFFCURVE",
"842 554 CURVE SMOOTH",
"842 653 OFFCURVE",
"819 739 OFFCURVE",
"673 867 CURVE SMOOTH",
"563 964 OFFCURVE",
"528 1006 OFFCURVE",
"528 1068 CURVE SMOOTH",
"528 1136 OFFCURVE",
"586 1181 OFFCURVE",
"699 1181 CURVE SMOOTH",
"796 1181 OFFCURVE",
"895 1160 OFFCURVE",
"994 1119 CURVE",
"1021 1340 LINE",
"945 1402 OFFCURVE",
"822 1440 OFFCURVE",
"678 1440 CURVE SMOOTH",
"423 1440 OFFCURVE",
"243 1286 OFFCURVE",
"243 1079 CURVE SMOOTH",
"243 914 OFFCURVE",
"323 835 OFFCURVE",
"450 726 CURVE SMOOTH",
"581 614 OFFCURVE",
"591 552 OFFCURVE",
"591 493 CURVE SMOOTH",
"591 465 OFFCURVE",
"590 451 OFFCURVE",
"588 426 CURVE"
);
}
);
width = 1200;
}
);
unicode = 061F;
}
{
glyphname = "dal-ar";
layers = (
{
anchors = (
{
name = bottom;
position = "{572, -141}";
},
{
name = bottom.dot;
position = "{572, -26}";
},
{
name = top;
position = "{619, 1284}";
},
{
name = top.dot;
position = "{616, 1034}";
}
);
layerId = master01;
paths = (
{
closed = 1;
nodes = (
"863 -3 OFFCURVE",
"982 110 OFFCURVE",
"982 288 CURVE SMOOTH",
"982 475 OFFCURVE",
"816 700 OFFCURVE",
"598 954 CURVE",
"527 899 LINE",
"735 646 OFFCURVE",
"890 435 OFFCURVE",
"890 283 CURVE SMOOTH",
"890 165 OFFCURVE",
"794 91 OFFCURVE",
"542 91 CURVE SMOOTH",
"432 91 OFFCURVE",
"308 111 OFFCURVE",
"205 144 CURVE",
"190 53 LINE",
"282 15 OFFCURVE",
"423 -3 OFFCURVE",
"537 -3 CURVE SMOOTH"
);
}
);
userData = {
com.schriftgestaltung.Glyphs.lastChange = "2020-11-20 22:25:51 +0000";
};
width = 1200;
},
{
anchors = (
{
name = bottom;
position = "{572, -141}";
},
{
name = bottom.dot;
position = "{572, -26}";
},
{
name = top;
position = "{619, 1284}";
},
{
name = top.dot;
position = "{616, 1034}";
}
);
layerId = "8E053A5E-67DA-4970-A6F5-068DBFE5AD21";
paths = (
{
closed = 1;
nodes = (
"777 -8 OFFCURVE",
"1046 67 OFFCURVE",
"1046 313 CURVE SMOOTH",
"1046 498 OFFCURVE",
"918 730 OFFCURVE",
"687 1027 CURVE",
"454 872 LINE",
"670 580 OFFCURVE",
"755 443 OFFCURVE",
"755 365 CURVE SMOOTH",
"755 308 OFFCURVE",
"646 287 OFFCURVE",
"458 287 CURVE SMOOTH",
"331 287 OFFCURVE",
"274 293 OFFCURVE",
"171 303 CURVE",
"163 14 LINE",
"269 -3 OFFCURVE",
"324 -8 OFFCURVE",
"448 -8 CURVE SMOOTH"
);
}
);
width = 1200;
},
{
anchors = (
{
name = bottom;
position = "{572, -141}";
},
{
name = bottom.dot;
position = "{572, -26}";
},
{
name = top;
position = "{619, 1284}";
},
{
name = top.dot;
position = "{616, 1034}";
}
);
layerId = "1F90C004-9C90-48FA-B407-176B3E9F1E65";
paths = (
{
closed = 1;
nodes = (
"833 -5 OFFCURVE",
"1012 107 OFFCURVE",
"1012 298 CURVE SMOOTH",
"1012 465 OFFCURVE",
"880 706 OFFCURVE",
"673 982 CURVE",
"503 872 LINE",
"700 597 OFFCURVE",
"808 381 OFFCURVE",
"808 308 CURVE SMOOTH",
"808 229 OFFCURVE",
"644 200 OFFCURVE",
"512 200 CURVE SMOOTH",
"402 200 OFFCURVE",
"323 211 OFFCURVE",
"203 235 CURVE",
"180 35 LINE",
"294 6 OFFCURVE",
"394 -5 OFFCURVE",
"517 -5 CURVE SMOOTH"
);
}
);
width = 1200;
}
);
unicode = 062F;
}
{
glyphname = "hah-ar";
layers = (
{
anchors = (
{
name = bottom;
position = "{523, -645}";
},
{
name = center;
position = "{658, -46}";
},
{
name = top;
position = "{569, 1154}";
},
{
name = top.dot;
position = "{566, 904}";
}
);
layerId = master01;
paths = (
{
closed = 1;
nodes = (
"807 -616 OFFCURVE",
"997 -588 OFFCURVE",
"1114 -548 CURVE",
"1112 -467 LINE",
"989 -496 OFFCURVE",
"821 -522 OFFCURVE",
"668 -522 CURVE SMOOTH",
"245 -522 OFFCURVE",
"136 -368 OFFCURVE",
"136 -97 CURVE SMOOTH",
"136 293 OFFCURVE",
"428 438 OFFCURVE",
"1123 547 CURVE",
"1126 641 LINE",
"983 638 OFFCURVE",
"942 649 OFFCURVE",
"816 687 CURVE SMOOTH",
"632 743 OFFCURVE",
"502 836 OFFCURVE",
"364 836 CURVE SMOOTH",
"250 836 OFFCURVE",
"156 793 OFFCURVE",
"82 719 CURVE",
"92 637 LINE",
"162 696 OFFCURVE",
"252 742 OFFCURVE",
"356 742 CURVE SMOOTH",
"467 742 OFFCURVE",
"545 696 OFFCURVE",
"673 651 CURVE SMOOTH",
"782 613 OFFCURVE",
"811 605 OFFCURVE",
"863 594 CURVE",
"863 561 LINE",
"969 549 LINE",
"966 593 LINE",
"373 519 OFFCURVE",
"44 334 OFFCURVE",
"44 -99 CURVE SMOOTH",
"44 -439 OFFCURVE",
"218 -616 OFFCURVE",
"648 -616 CURVE SMOOTH"
);
}
);
width = 1200;
},
{
anchors = (
{
name = bottom;
position = "{523, -645}";
},
{
name = center;
position = "{678, -46}";
},
{
name = top;
position = "{569, 1154}";
},
{
name = top.dot;
position = "{566, 904}";
}
);
layerId = "1F90C004-9C90-48FA-B407-176B3E9F1E65";
paths = (
{
closed = 1;
nodes = (
"867 -639 OFFCURVE",
"1054 -600 OFFCURVE",
"1144 -562 CURVE",
"1146 -387 LINE",
"1034 -404 OFFCURVE",
"891 -434 OFFCURVE",
"728 -434 CURVE SMOOTH",
"345 -434 OFFCURVE",
"228 -340 OFFCURVE",
"228 -119 CURVE SMOOTH",
"228 221 OFFCURVE",
"570 360 OFFCURVE",
"1143 490 CURVE",
"1146 691 LINE",
"1002 686 OFFCURVE",
"927 690 OFFCURVE",
"801 728 CURVE SMOOTH",
"617 783 OFFCURVE",
"512 866 OFFCURVE",
"364 866 CURVE SMOOTH",
"260 866 OFFCURVE",
"151 829 OFFCURVE",
"72 726 CURVE",
"90 573 LINE",
"160 623 OFFCURVE",
"242 661 OFFCURVE",
"336 661 CURVE SMOOTH",
"428 661 OFFCURVE",
"504 634 OFFCURVE",
"609 603 CURVE SMOOTH",
"683 581 OFFCURVE",
"745 567 OFFCURVE",
"804 562 CURVE",
"804 531 LINE",
"939 513 LINE",
"936 578 LINE",
"385 461 OFFCURVE",
"34 284 OFFCURVE",
"34 -159 CURVE SMOOTH",
"34 -509 OFFCURVE",
"248 -639 OFFCURVE",
"698 -639 CURVE SMOOTH"
);
}
);
width = 1200;
},
{
anchors = (
{
name = bottom;
position = "{523, -645}";
},
{
name = center;
position = "{688, -36}";
},
{
name = top;
position = "{569, 1184}";
},
{
name = top.dot;
position = "{566, 924}";
}
);
layerId = "8E053A5E-67DA-4970-A6F5-068DBFE5AD21";
paths = (
{
closed = 1;
nodes = (
"867 -659 OFFCURVE",
"1044 -620 OFFCURVE",
"1154 -572 CURVE",
"1156 -318 LINE",
"1024 -342 OFFCURVE",
"901 -364 OFFCURVE",
"758 -364 CURVE SMOOTH",
"385 -364 OFFCURVE",
"268 -310 OFFCURVE",
"268 -99 CURVE SMOOTH",
"268 191 OFFCURVE",
"520 320 OFFCURVE",
"1153 420 CURVE",
"1156 711 LINE",
"1012 708 OFFCURVE",
"918 713 OFFCURVE",
"793 751 CURVE SMOOTH",
"609 806 OFFCURVE",
"512 886 OFFCURVE",
"344 886 CURVE SMOOTH",
"250 886 OFFCURVE",
"141 849 OFFCURVE",
"62 746 CURVE",
"80 513 LINE",
"150 563 OFFCURVE",
"252 591 OFFCURVE",
"346 591 CURVE SMOOTH",
"408 591 OFFCURVE",
"462 580 OFFCURVE",
"549 564 CURVE SMOOTH",
"665 543 OFFCURVE",
"735 543 OFFCURVE",
"804 542 CURVE",
"804 498 LINE",
"939 490 LINE",
"936 536 LINE",
"385 469 OFFCURVE",
"24 294 OFFCURVE",
"24 -149 CURVE SMOOTH",
"24 -519 OFFCURVE",
"248 -659 OFFCURVE",
"698 -659 CURVE SMOOTH"
);
}
);
width = 1200;
}
);
unicode = 062D;
}
{
color = 10;
glyphname = c;
layers = (
{
anchors = (
{
name = bottom;
position = "{650, 0}";
},
{
name = top;
position = "{650, 1060}";
}
);
layerId = master01;
paths = (
{
closed = 1;
nodes = (
"812 -20 OFFCURVE",
"929 -13 OFFCURVE",
"1038 15 CURVE",
"1026 106 LINE",
"923 85 OFFCURVE",
"815 72 OFFCURVE",
"706 72 CURVE SMOOTH",
"410 72 OFFCURVE",
"256 233 OFFCURVE",
"256 542 CURVE SMOOTH",
"256 827 OFFCURVE",
"407 988 OFFCURVE",
"666 988 CURVE SMOOTH",
"800 988 OFFCURVE",
"918 942 OFFCURVE",
"990 807 CURVE",
"1073 860 LINE",
"1014 1000 OFFCURVE",
"868 1080 OFFCURVE",
"674 1080 CURVE SMOOTH",
"344 1080 OFFCURVE",
"160 878 OFFCURVE",
"160 532 CURVE SMOOTH",
"160 169 OFFCURVE",
"346 -20 OFFCURVE",
"702 -20 CURVE SMOOTH"
);
}
);
width = 1200;
},
{
anchors = (
{
name = bottom;
position = "{650, 0}";
},
{
name = top;
position = "{650, 1060}";
}
);
layerId = "1F90C004-9C90-48FA-B407-176B3E9F1E65";
paths = (
{
closed = 1;
nodes = (
"813 -20 OFFCURVE",
"932 -14 OFFCURVE",
"1042 10 CURVE",
"1018 196 LINE",
"924 180 OFFCURVE",
"825 170 OFFCURVE",
"726 170 CURVE SMOOTH",
"485 170 OFFCURVE",
"350 300 OFFCURVE",
"350 542 CURVE SMOOTH",
"350 764 OFFCURVE",
"466 890 OFFCURVE",
"666 890 CURVE SMOOTH",
"777 890 OFFCURVE",
"874 834 OFFCURVE",
"934 737 CURVE",
"1097 860 LINE",
"1034 1000 OFFCURVE",
"880 1080 OFFCURVE",
"674 1080 CURVE SMOOTH",
"329 1080 OFFCURVE",
"136 878 OFFCURVE",
"136 532 CURVE SMOOTH",
"136 176 OFFCURVE",
"341 -20 OFFCURVE",
"702 -20 CURVE SMOOTH"
);
}
);
width = 1200;
},
{
anchors = (
{
name = bottom;
position = "{650, 0}";
},
{
name = top;
position = "{650, 1060}";
}
);
layerId = "8E053A5E-67DA-4970-A6F5-068DBFE5AD21";
paths = (
{
closed = 1;
nodes = (
"833 -20 OFFCURVE",
"951 -14 OFFCURVE",
"1059 10 CURVE",
"1031 263 LINE",
"940 247 OFFCURVE",
"844 237 OFFCURVE",
"748 237 CURVE SMOOTH",
"523 237 OFFCURVE",
"396 343 OFFCURVE",
"396 542 CURVE SMOOTH",
"396 722 OFFCURVE",
"496 823 OFFCURVE",
"666 823 CURVE SMOOTH",
"774 823 OFFCURVE",
"867 771 OFFCURVE",
"926 679 CURVE",
"1122 835 LINE",
"1056 991 OFFCURVE",
"893 1080 OFFCURVE",
"674 1080 CURVE SMOOTH",
"318 1080 OFFCURVE",
"119 878 OFFCURVE",
"119 532 CURVE SMOOTH",
"119 176 OFFCURVE",
"338 -20 OFFCURVE",
"724 -20 CURVE SMOOTH"
);
}
);
width = 1200;
}
);
unicode = 0063;
}
{
glyphname = "damma-ar";
layers = (
{
anchors = (
{
name = _top;
position = "{566, 1114}";
},
{
name = top;
position = "{593, 1580}";
}
);
layerId = master01;
paths = (
{
closed = 1;
nodes = (
"705 1215 OFFCURVE",
"799 1286 OFFCURVE",
"799 1412 CURVE SMOOTH",
"799 1506 OFFCURVE",
"744 1567 OFFCURVE",
"652 1567 CURVE SMOOTH",
"560 1567 OFFCURVE",
"491 1502 OFFCURVE",
"491 1407 CURVE SMOOTH",
"491 1334 OFFCURVE",
"527 1278 OFFCURVE",
"574 1251 CURVE",
"648 1284 LINE",
"595 1315 OFFCURVE",
"573 1359 OFFCURVE",
"573 1407 CURVE SMOOTH",
"573 1452 OFFCURVE",
"601 1483 OFFCURVE",
"649 1483 CURVE SMOOTH",
"691 1483 OFFCURVE",
"717 1452 OFFCURVE",
"717 1403 CURVE SMOOTH",
"717 1322 OFFCURVE",
"663 1286 OFFCURVE",
"333 1197 CURVE",
"338 1117 LINE"
);
}
);
width = 1200;
},
{
anchors = (
{
name = _top;
position = "{566, 1114}";
},
{
name = top;
position = "{593, 1580}";
}
);
layerId = "1F90C004-9C90-48FA-B407-176B3E9F1E65";
paths = (
{
closed = 1;
nodes = (
"592 1159 OFFCURVE",
"812 1254 OFFCURVE",
"812 1417 CURVE SMOOTH",
"812 1512 OFFCURVE",
"749 1577 OFFCURVE",
"648 1577 CURVE SMOOTH",
"562 1577 OFFCURVE",
"484 1513 OFFCURVE",
"484 1412 CURVE SMOOTH",
"484 1333 OFFCURVE",
"530 1278 OFFCURVE",
"577 1251 CURVE",
"651 1304 LINE",
"605 1331 OFFCURVE",
"586 1366 OFFCURVE",
"586 1405 CURVE SMOOTH",
"586 1446 OFFCURVE",
"610 1467 OFFCURVE",
"646 1467 CURVE SMOOTH",
"680 1467 OFFCURVE",
"704 1447 OFFCURVE",
"704 1406 CURVE SMOOTH",
"704 1350 OFFCURVE",
"634 1282 OFFCURVE",
"333 1222 CURVE",
"330 1103 LINE"
);
}
);
width = 1200;
},
{
anchors = (
{
name = _top;
position = "{566, 1114}";
},
{
name = top;
position = "{593, 1580}";
}
);
layerId = "8E053A5E-67DA-4970-A6F5-068DBFE5AD21";
paths = (
{
closed = 1;
nodes = (
"689 1175 OFFCURVE",
"817 1282 OFFCURVE",
"817 1417 CURVE SMOOTH",
"817 1512 OFFCURVE",
"752 1581 OFFCURVE",
"652 1581 CURVE SMOOTH",
"556 1581 OFFCURVE",
"481 1513 OFFCURVE",
"481 1412 CURVE SMOOTH",
"481 1333 OFFCURVE",
"528 1274 OFFCURVE",
"575 1247 CURVE",
"663 1304 LINE",
"617 1331 OFFCURVE",
"597 1366 OFFCURVE",
"597 1405 CURVE SMOOTH",
"597 1437 OFFCURVE",
"615 1460 OFFCURVE",
"647 1460 CURVE SMOOTH",
"673 1460 OFFCURVE",
"693 1444 OFFCURVE",
"693 1408 CURVE SMOOTH",
"693 1344 OFFCURVE",
"613 1313 OFFCURVE",
"322 1243 CURVE",
"322 1097 LINE"
);
}
);
width = 1200;
}
);
unicode = 064F;
}
{
glyphname = "dammatan-ar";
layers = (
{
anchors = (
{
name = _top;
position = "{586, 1134}";
},
{
name = top;
position = "{613, 1580}";
}
);
layerId = master01;
paths = (
{
closed = 1;
nodes = (
"768 1215 OFFCURVE",
"862 1282 OFFCURVE",
"862 1412 CURVE SMOOTH",
"862 1506 OFFCURVE",
"807 1567 OFFCURVE",
"715 1567 CURVE SMOOTH",
"623 1567 OFFCURVE",
"554 1502 OFFCURVE",
"554 1407 CURVE SMOOTH",
"554 1334 OFFCURVE",
"592 1277 OFFCURVE",
"631 1237 CURVE",
"700 1275 LINE",
"655 1316 OFFCURVE",
"636 1356 OFFCURVE",
"636 1407 CURVE SMOOTH",
"636 1452 OFFCURVE",
"664 1483 OFFCURVE",
"710 1483 CURVE SMOOTH",
"754 1483 OFFCURVE",
"780 1452 OFFCURVE",
"780 1405 CURVE SMOOTH",
"780 1330 OFFCURVE",
"724 1297 OFFCURVE",
"434 1234 CURVE",
"411 1191 LINE",
"472 1218 OFFCURVE",
"491 1258 OFFCURVE",
"491 1321 CURVE SMOOTH",
"491 1412 OFFCURVE",
"455 1458 OFFCURVE",
"384 1458 CURVE SMOOTH",
"340 1458 OFFCURVE",
"306 1441 OFFCURVE",
"275 1424 CURVE",
"279 1353 LINE",
"308 1365 OFFCURVE",
"335 1374 OFFCURVE",
"357 1374 CURVE SMOOTH",
"394 1374 OFFCURVE",
"409 1357 OFFCURVE",
"409 1300 CURVE SMOOTH",
"409 1230 OFFCURVE",
"374 1222 OFFCURVE",
"286 1201 CURVE",
"291 1117 LINE"
);
}
);
width = 1200;
},
{
anchors = (
{
name = _top;
position = "{586, 1134}";
},
{
name = top;
position = "{613, 1580}";
}
);
layerId = "1F90C004-9C90-48FA-B407-176B3E9F1E65";
paths = (
{
closed = 1;
nodes = (
"748 1205 OFFCURVE",
"872 1264 OFFCURVE",
"872 1417 CURVE SMOOTH",
"872 1512 OFFCURVE",
"809 1577 OFFCURVE",
"711 1577 CURVE SMOOTH",
"622 1577 OFFCURVE",
"544 1513 OFFCURVE",
"544 1412 CURVE SMOOTH",
"544 1333 OFFCURVE",
"590 1278 OFFCURVE",
"637 1251 CURVE",
"711 1304 LINE",
"665 1331 OFFCURVE",
"646 1366 OFFCURVE",
"646 1405 CURVE SMOOTH",
"646 1446 OFFCURVE",
"670 1467 OFFCURVE",
"706 1467 CURVE SMOOTH",
"740 1467 OFFCURVE",
"764 1447 OFFCURVE",
"764 1406 CURVE SMOOTH",
"764 1357 OFFCURVE",
"726 1313 OFFCURVE",
"445 1253 CURVE",
"411 1187 LINE",
"464 1198 OFFCURVE",
"501 1262 OFFCURVE",
"501 1335 CURVE SMOOTH",
"501 1417 OFFCURVE",
"465 1466 OFFCURVE",
"392 1466 CURVE SMOOTH",
"346 1466 OFFCURVE",
"302 1445 OFFCURVE",
"275 1424 CURVE",
"279 1337 LINE",
"304 1349 OFFCURVE",
"331 1358 OFFCURVE",
"354 1358 CURVE SMOOTH",
"383 1358 OFFCURVE",
"396 1342 OFFCURVE",
"396 1306 CURVE SMOOTH",
"396 1253 OFFCURVE",
"372 1238 OFFCURVE",
"286 1217 CURVE",
"291 1107 LINE"
);
}
);
width = 1200;
},
{
anchors = (
{
name = _top;
position = "{586, 1134}";
},
{
name = top;
position = "{613, 1580}";
}
);
layerId = "8E053A5E-67DA-4970-A6F5-068DBFE5AD21";
paths = (
{
closed = 1;
nodes = (
"743 1195 OFFCURVE",
"876 1252 OFFCURVE",
"876 1417 CURVE SMOOTH",
"876 1512 OFFCURVE",
"811 1581 OFFCURVE",
"711 1581 CURVE SMOOTH",
"615 1581 OFFCURVE",
"540 1513 OFFCURVE",
"540 1412 CURVE SMOOTH",
"540 1333 OFFCURVE",
"587 1274 OFFCURVE",
"634 1247 CURVE",
"722 1304 LINE",
"676 1331 OFFCURVE",
"656 1366 OFFCURVE",
"656 1405 CURVE SMOOTH",
"656 1437 OFFCURVE",
"674 1460 OFFCURVE",
"706 1460 CURVE SMOOTH",
"732 1460 OFFCURVE",
"752 1444 OFFCURVE",
"752 1408 CURVE SMOOTH",
"752 1361 OFFCURVE",
"726 1346 OFFCURVE",
"445 1276 CURVE",
"411 1179 LINE",
"464 1190 OFFCURVE",
"505 1262 OFFCURVE",
"505 1335 CURVE SMOOTH",
"505 1425 OFFCURVE",
"465 1470 OFFCURVE",
"392 1470 CURVE SMOOTH",
"346 1470 OFFCURVE",
"298 1449 OFFCURVE",
"271 1428 CURVE",
"275 1323 LINE",
"300 1335 OFFCURVE",
"331 1344 OFFCURVE",
"354 1344 CURVE SMOOTH",
"374 1344 OFFCURVE",
"388 1336 OFFCURVE",
"388 1306 CURVE SMOOTH",
"388 1264 OFFCURVE",
"367 1258 OFFCURVE",
"281 1237 CURVE",
"286 1097 LINE"
);
}
);
width = 1200;
}
);
unicode = 064C;
}
{
glyphname = "asterisk-ar";
layers = (
{
layerId = master01;
paths = (
{
closed = 1;
nodes = (
"681 394 LINE",
"635 619 LINE",
"809 465 LINE",
"893 612 LINE",
"674 683 LINE",
"892 753 LINE",
"807 900 LINE",
"633 744 LINE",
"683 968 LINE",
"512 968 LINE",
"560 747 LINE",
"392 899 LINE",
"307 752 LINE",
"524 683 LINE",
"310 610 LINE",
"393 467 LINE",
"562 622 LINE",
"517 394 LINE"
);
},
{
closed = 1;
nodes = (
"579 647 OFFCURVE",
"562 664 OFFCURVE",
"562 684 CURVE SMOOTH",
"562 704 OFFCURVE",
"579 721 OFFCURVE",
"599 721 CURVE SMOOTH",
"619 721 OFFCURVE",
"636 704 OFFCURVE",
"636 684 CURVE SMOOTH",
"636 664 OFFCURVE",
"619 647 OFFCURVE",
"599 647 CURVE SMOOTH"
);
}
);
width = 1200;
},
{
layerId = "1F90C004-9C90-48FA-B407-176B3E9F1E65";
paths = (
{
closed = 1;
nodes = (
"681 394 LINE",
"635 619 LINE",
"809 465 LINE",
"893 612 LINE",
"674 683 LINE",
"892 753 LINE",
"807 900 LINE",
"633 744 LINE",
"683 968 LINE",
"512 968 LINE",
"560 747 LINE",
"392 899 LINE",
"307 752 LINE",
"524 683 LINE",
"310 610 LINE",
"393 467 LINE",
"562 622 LINE",
"517 394 LINE"
);
},
{
closed = 1;
nodes = (
"579 647 OFFCURVE",
"562 664 OFFCURVE",
"562 684 CURVE SMOOTH",
"562 704 OFFCURVE",
"579 721 OFFCURVE",
"599 721 CURVE SMOOTH",
"619 721 OFFCURVE",
"636 704 OFFCURVE",
"636 684 CURVE SMOOTH",
"636 664 OFFCURVE",
"619 647 OFFCURVE",
"599 647 CURVE SMOOTH"
);
}
);
width = 1200;
},
{
layerId = "8E053A5E-67DA-4970-A6F5-068DBFE5AD21";
paths = (
{
closed = 1;
nodes = (
"681 394 LINE",
"635 619 LINE",
"809 465 LINE",
"893 612 LINE",
"674 683 LINE",
"892 753 LINE",
"807 900 LINE",
"633 744 LINE",
"683 968 LINE",
"512 968 LINE",
"560 747 LINE",
"392 899 LINE",
"307 752 LINE",
"524 683 LINE",
"310 610 LINE",
"393 467 LINE",
"562 622 LINE",
"517 394 LINE"
);
},
{
closed = 1;
nodes = (
"579 647 OFFCURVE",
"562 664 OFFCURVE",
"562 684 CURVE SMOOTH",
"562 704 OFFCURVE",
"579 721 OFFCURVE",
"599 721 CURVE SMOOTH",
"619 721 OFFCURVE",
"636 704 OFFCURVE",
"636 684 CURVE SMOOTH",
"636 664 OFFCURVE",
"619 647 OFFCURVE",
"599 647 CURVE SMOOTH"
);
}
);
width = 1200;
}
);
unicode = 066D;
}
{
glyphname = "behDotless-ar";
layers = (
{
anchors = (
{
name = bottom;
position = "{582, -141}";
},
{
name = bottom.dot;
position = "{582, -26}";
},
{
name = top;
position = "{590, 975}";
},
{
name = top.dot;
position = "{590, 625}";
}
);
layerId = master01;
paths = (
{
closed = 1;
nodes = (
"1068 -3 OFFCURVE",
"1190 94 OFFCURVE",
"1190 343 CURVE SMOOTH",
"1190 438 OFFCURVE",
"1171 550 OFFCURVE",
"1148 673 CURVE",
"1058 666 LINE",
"1082 524 OFFCURVE",
"1098 434 OFFCURVE",
"1098 345 CURVE SMOOTH",
"1098 143 OFFCURVE",
"989 91 OFFCURVE",
"529 91 CURVE SMOOTH",
"199 91 OFFCURVE",
"106 133 OFFCURVE",
"106 384 CURVE SMOOTH",
"106 466 OFFCURVE",
"124 549 OFFCURVE",
"137 625 CURVE",
"56 625 LINE",
"38 569 OFFCURVE",
"14 457 OFFCURVE",
"14 364 CURVE SMOOTH",
"14 65 OFFCURVE",
"151 -3 OFFCURVE",
"509 -3 CURVE SMOOTH"
);
}
);
width = 1200;
},
{
anchors = (
{
name = bottom;
position = "{582, -141}";
},
{
name = bottom.dot;
position = "{582, -26}";
},
{
name = top;
position = "{590, 975}";
},
{
name = top.dot;
position = "{590, 625}";
}
);
layerId = "1F90C004-9C90-48FA-B407-176B3E9F1E65";
paths = (
{
closed = 1;
nodes = (
"1068 -6 OFFCURVE",
"1190 124 OFFCURVE",
"1190 373 CURVE SMOOTH",
"1190 498 OFFCURVE",
"1177 579 OFFCURVE",
"1152 713 CURVE",
"955 692 LINE",
"978 550 OFFCURVE",
"990 464 OFFCURVE",
"990 375 CURVE SMOOTH",
"990 245 OFFCURVE",
"899 206 OFFCURVE",
"529 206 CURVE SMOOTH",
"279 206 OFFCURVE",
"205 252 OFFCURVE",
"205 411 CURVE SMOOTH",
"205 493 OFFCURVE",
"214 547 OFFCURVE",
"232 665 CURVE",
"54 665 LINE",
"34 609 OFFCURVE",
"10 507 OFFCURVE",
"10 404 CURVE SMOOTH",
"10 105 OFFCURVE",
"141 -6 OFFCURVE",
"509 -6 CURVE SMOOTH"
);
}
);
width = 1200;
},
{
anchors = (
{
name = bottom;
position = "{582, -141}";
},
{
name = bottom.dot;
position = "{582, -26}";
},
{
name = top;
position = "{590, 975}";
},
{
name = top.dot;
position = "{590, 625}";
}
);
layerId = "8E053A5E-67DA-4970-A6F5-068DBFE5AD21";
paths = (
{
closed = 1;
nodes = (
"1068 -10 OFFCURVE",
"1190 134 OFFCURVE",
"1190 383 CURVE SMOOTH",
"1190 508 OFFCURVE",
"1177 599 OFFCURVE",
"1152 733 CURVE",
"919 712 LINE",
"938 590 OFFCURVE",
"950 527 OFFCURVE",
"950 448 CURVE SMOOTH",
"950 318 OFFCURVE",
"899 285 OFFCURVE",
"529 285 CURVE SMOOTH",
"289 285 OFFCURVE",
"245 308 OFFCURVE",
"245 457 CURVE SMOOTH",
"245 529 OFFCURVE",
"255 587 OFFCURVE",
"272 685 CURVE",
"54 685 LINE",
"26 599 OFFCURVE",
"10 497 OFFCURVE",
"10 394 CURVE SMOOTH",
"10 95 OFFCURVE",
"141 -10 OFFCURVE",
"509 -10 CURVE SMOOTH"
);
}
);
width = 1200;
}
);
unicode = 066E;
}
{
glyphname = "decimalseparator-ar";
layers = (
{
layerId = master01;
paths = (
{
closed = 1;
nodes = (
"674 -166 OFFCURVE",
"730 13 OFFCURVE",
"730 135 CURVE SMOOTH",
"730 232 OFFCURVE",
"696 292 OFFCURVE",
"596 292 CURVE SMOOTH",
"530 292 OFFCURVE",
"488 239 OFFCURVE",
"488 171 CURVE SMOOTH",
"488 95 OFFCURVE",
"530 74 OFFCURVE",
"627 74 CURVE",
"607 -52 OFFCURVE",
"547 -145 OFFCURVE",
"467 -226 CURVE",
"535 -278 LINE"
);
}
);
width = 1200;
},
{
layerId = "1F90C004-9C90-48FA-B407-176B3E9F1E65";
paths = (
{
closed = 1;
nodes = (
"674 -192 OFFCURVE",
"755 -35 OFFCURVE",
"755 95 CURVE SMOOTH",
"755 222 OFFCURVE",
"699 302 OFFCURVE",
"597 302 CURVE SMOOTH",
"522 302 OFFCURVE",
"458 247 OFFCURVE",
"458 161 CURVE SMOOTH",
"458 75 OFFCURVE",
"510 29 OFFCURVE",
"577 29 CURVE",
"561 -64 OFFCURVE",
"514 -133 OFFCURVE",
"429 -215 CURVE",
"535 -304 LINE"
);
}
);
width = 1200;
},
{
layerId = "8E053A5E-67DA-4970-A6F5-068DBFE5AD21";
paths = (
{
closed = 1;
nodes = (
"684 -198 OFFCURVE",
"767 -55 OFFCURVE",
"767 95 CURVE SMOOTH",
"767 236 OFFCURVE",
"701 312 OFFCURVE",
"596 312 CURVE SMOOTH",
"496 312 OFFCURVE",
"432 241 OFFCURVE",
"432 143 CURVE SMOOTH",
"432 65 OFFCURVE",
"458 -2 OFFCURVE",
"533 -21 CURVE",
"508 -96 OFFCURVE",
"474 -146 OFFCURVE",
"414 -215 CURVE",
"545 -318 LINE"
);
}
);
width = 1200;
}
);
unicode = 066B;
}
{
glyphname = "percent-ar";
layers = (
{
layerId = master01;
paths = (
{
closed = 1;
nodes = (
"977 1404 LINE",
"895 1440 LINE",
"216 16 LINE",
"298 -20 LINE"
);
},
{
closed = 1;
nodes = (
"1029 138 LINE",
"867 296 LINE",
"725 145 LINE",
"884 -10 LINE"
);
},
{
closed = 1;
nodes = (
"472 1282 LINE",
"310 1440 LINE",
"168 1289 LINE",
"327 1134 LINE"
);
}
);
width = 1200;
},
{
layerId = "1F90C004-9C90-48FA-B407-176B3E9F1E65";
paths = (
{
closed = 1;
nodes = (
"1010 1370 LINE",
"860 1440 LINE",
"183 50 LINE",
"333 -20 LINE"
);
},
{
closed = 1;
nodes = (
"1080 199 LINE",
"850 424 LINE",
"649 209 LINE",
"874 -10 LINE"
);
},
{
closed = 1;
nodes = (
"551 1215 LINE",
"321 1440 LINE",
"120 1225 LINE",
"345 1006 LINE"
);
}
);
width = 1200;
},
{
layerId = "8E053A5E-67DA-4970-A6F5-068DBFE5AD21";
paths = (
{
closed = 1;
nodes = (
"1040 1370 LINE",
"820 1440 LINE",
"143 50 LINE",
"363 -20 LINE"
);
},
{
closed = 1;
nodes = (
"1127 234 LINE",
"858 497 LINE",
"623 246 LINE",
"886 -10 LINE"
);
},
{
closed = 1;
nodes = (
"581 1177 LINE",
"312 1440 LINE",
"77 1189 LINE",
"340 933 LINE"
);
}
);
width = 1200;
}
);
unicode = 066A;
}
{
glyphname = "qafDotless-ar";
layers = (
{
anchors = (
{
name = bottom;
position = "{577, -469}";
},
{
name = bottom.dot;
position = "{578, -409}";
},
{
name = top;
position = "{806, 1006}";
},
{
name = top.dot;
position = "{813, 756}";
}
);
layerId = master01;
paths = (
{
closed = 1;
nodes = (
"963 -415 OFFCURVE",
"1140 -323 OFFCURVE",
"1140 145 CURVE SMOOTH",
"1140 487 OFFCURVE",
"1017 668 OFFCURVE",
"823 668 CURVE SMOOTH",
"631 668 OFFCURVE",
"520 502 OFFCURVE",
"520 316 CURVE SMOOTH",
"520 123 OFFCURVE",
"597 34 OFFCURVE",
"794 34 CURVE SMOOTH",
"946 34 OFFCURVE",
"998 66 OFFCURVE",
"1029 106 CURVE",
"1088 109 LINE",
"1092 175 LINE",
"1015 155 OFFCURVE",
"925 128 OFFCURVE",
"827 128 CURVE SMOOTH",
"665 128 OFFCURVE",
"612 183 OFFCURVE",
"612 316 CURVE SMOOTH",
"612 455 OFFCURVE",
"683 574 OFFCURVE",
"816 574 CURVE SMOOTH",
"965 574 OFFCURVE",
"1048 412 OFFCURVE",
"1048 138 CURVE SMOOTH",
"1048 -57 OFFCURVE",
"1020 -173 OFFCURVE",
"941 -240 CURVE SMOOTH",
"868 -301 OFFCURVE",
"752 -321 OFFCURVE",
"575 -321 CURVE SMOOTH",
"248 -321 OFFCURVE",
"141 -250 OFFCURVE",
"141 -1 CURVE SMOOTH",
"141 141 OFFCURVE",
"167 268 OFFCURVE",
"185 384 CURVE",
"99 384 LINE",
"76 263 OFFCURVE",
"49 135 OFFCURVE",
"49 -11 CURVE SMOOTH",
"49 -275 OFFCURVE",
"166 -415 OFFCURVE",
"561 -415 CURVE SMOOTH"
);
}
);
width = 1200;
},
{
anchors = (
{
name = bottom;
position = "{577, -469}";
},
{
name = bottom.dot;
position = "{578, -409}";
},
{
name = top;
position = "{806, 1006}";
},
{
name = top.dot;
position = "{813, 756}";
}
);
layerId = "1F90C004-9C90-48FA-B407-176B3E9F1E65";
paths = (
{
closed = 1;
nodes = (
"1049 -443 OFFCURVE",
"1155 -223 OFFCURVE",
"1155 185 CURVE SMOOTH",
"1155 503 OFFCURVE",
"1048 718 OFFCURVE",
"813 718 CURVE SMOOTH",
"616 718 OFFCURVE",
"493 539 OFFCURVE",
"493 303 CURVE SMOOTH",
"493 60 OFFCURVE",
"588 -4 OFFCURVE",
"775 -4 CURVE SMOOTH",
"877 -4 OFFCURVE",
"928 14 OFFCURVE",
"956 65 CURVE",
"1025 67 LINE",
"1028 245 LINE",
"952 218 OFFCURVE",
"876 205 OFFCURVE",
"808 205 CURVE SMOOTH",
"688 205 OFFCURVE",
"669 235 OFFCURVE",
"669 330 CURVE SMOOTH",
"669 435 OFFCURVE",
"718 506 OFFCURVE",
"813 506 CURVE SMOOTH",
"922 506 OFFCURVE",
"983 414 OFFCURVE",
"983 178 CURVE SMOOTH",
"983 -6 OFFCURVE",
"972 -113 OFFCURVE",
"904 -172 CURVE SMOOTH",
"848 -222 OFFCURVE",
"753 -238 OFFCURVE",
"593 -238 CURVE SMOOTH",
"324 -238 OFFCURVE",
"225 -167 OFFCURVE",
"225 62 CURVE SMOOTH",
"225 166 OFFCURVE",
"236 260 OFFCURVE",
"256 399 CURVE",
"78 399 LINE",
"49 288 OFFCURVE",
"30 157 OFFCURVE",
"30 30 CURVE SMOOTH",
"30 -281 OFFCURVE",
"187 -443 OFFCURVE",
"586 -443 CURVE SMOOTH"
);
}
);
width = 1200;
},
{
anchors = (
{
name = bottom;
position = "{577, -509}";
},
{
name = bottom.dot;
position = "{578, -429}";
},
{
name = top;
position = "{806, 1006}";
},
{
name = top.dot;
position = "{813, 756}";
}
);
layerId = "8E053A5E-67DA-4970-A6F5-068DBFE5AD21";
paths = (
{
closed = 1;
nodes = (
"989 -462 OFFCURVE",
"1169 -337 OFFCURVE",
"1169 129 CURVE SMOOTH",
"1169 481 OFFCURVE",
"1042 712 OFFCURVE",
"823 712 CURVE SMOOTH",
"627 712 OFFCURVE",
"489 526 OFFCURVE",
"489 290 CURVE SMOOTH",
"489 107 OFFCURVE",
"536 -20 OFFCURVE",
"743 -20 CURVE SMOOTH",
"855 -20 OFFCURVE",
"905 1 OFFCURVE",
"935 44 CURVE",
"1004 46 LINE",
"1007 259 LINE",
"941 238 OFFCURVE",
"884 226 OFFCURVE",
"806 226 CURVE SMOOTH",
"715 226 OFFCURVE",
"685 242 OFFCURVE",
"685 309 CURVE SMOOTH",
"685 387 OFFCURVE",
"734 450 OFFCURVE",
"809 450 CURVE SMOOTH",
"901 450 OFFCURVE",
"962 346 OFFCURVE",
"962 182 CURVE SMOOTH",
"962 79 OFFCURVE",
"981 -42 OFFCURVE",
"912 -102 CURVE SMOOTH",
"846 -160 OFFCURVE",
"720 -167 OFFCURVE",
"567 -167 CURVE SMOOTH",
"307 -167 OFFCURVE",
"264 -111 OFFCURVE",
"264 105 CURVE SMOOTH",
"264 207 OFFCURVE",
"273 296 OFFCURVE",
"291 393 CURVE",
"61 393 LINE",
"38 313 OFFCURVE",
"17 175 OFFCURVE",
"17 72 CURVE SMOOTH",
"17 -227 OFFCURVE",
"99 -462 OFFCURVE",
"497 -462 CURVE SMOOTH"
);
}
);
width = 1200;
}
);
unicode = 066F;
}
{
glyphname = "thousandseparator-ar";
layers = (
{
layerId = master01;
paths = (
{
closed = 1;
nodes = (
"671 -156 OFFCURVE",
"754 17 OFFCURVE",
"754 277 CURVE",
"653 277 LINE",
"652 34 OFFCURVE",
"576 -96 OFFCURVE",
"457 -225 CURVE",
"525 -277 LINE"
);
}
);
width = 1200;
},
{
layerId = "1F90C004-9C90-48FA-B407-176B3E9F1E65";
paths = (
{
closed = 1;
nodes = (
"684 -182 OFFCURVE",
"788 27 OFFCURVE",
"788 277 CURVE",
"583 277 LINE",
"577 64 OFFCURVE",
"534 -93 OFFCURVE",
"429 -215 CURVE",
"535 -304 LINE"
);
}
);
width = 1200;
},
{
layerId = "8E053A5E-67DA-4970-A6F5-068DBFE5AD21";
paths = (
{
closed = 1;
nodes = (
"711 -196 OFFCURVE",
"814 -13 OFFCURVE",
"814 287 CURVE",
"543 287 LINE",
"547 74 OFFCURVE",
"516 -73 OFFCURVE",
"411 -215 CURVE",
"542 -318 LINE"
);
}
);
width = 1200;
}
);
unicode = 066C;
}
{
color = 10;
glyphname = h;
layers = (
{
anchors = (
{
name = bottom;
position = "{600, 0}";
},
{
name = center;
position = "{600, 784}";
},
{
name = top;
position = "{239, 1500}";
}
);
layerId = master01;
paths = (
{
closed = 1;
nodes = (
"1008 0 LINE",
"1008 690 LINE SMOOTH",
"1008 938 OFFCURVE",
"867 1080 OFFCURVE",
"621 1080 CURVE SMOOTH",
"441 1080 OFFCURVE",
"333 1010 OFFCURVE",
"294 868 CURVE",
"222 868 LINE",
"286 600 LINE",
"286 860 OFFCURVE",
"402 988 OFFCURVE",
"630 988 CURVE SMOOTH",
"809 988 OFFCURVE",
"914 882 OFFCURVE",
"914 694 CURVE SMOOTH",
"914 0 LINE"
);
},
{
closed = 1;
nodes = (
"286 0 LINE",
"286 1500 LINE",
"192 1500 LINE",
"192 0 LINE"
);
}
);
width = 1200;
},
{
anchors = (
{
name = bottom;
position = "{600, 0}";
},
{
name = center;
position = "{600, 784}";
},
{
name = top;
position = "{274, 1500}";
}
);
layerId = "1F90C004-9C90-48FA-B407-176B3E9F1E65";
paths = (
{
closed = 1;
nodes = (
"1032 0 LINE",
"1032 690 LINE SMOOTH",
"1032 938 OFFCURVE",
"904 1080 OFFCURVE",
"680 1080 CURVE SMOOTH",
"502 1080 OFFCURVE",
"412 1010 OFFCURVE",
"400 868 CURVE",
"318 868 LINE",
"380 596 LINE",
"380 800 OFFCURVE",
"464 900 OFFCURVE",
"630 900 CURVE SMOOTH",
"750 900 OFFCURVE",
"820 824 OFFCURVE",
"820 690 CURVE SMOOTH",
"820 0 LINE"
);
},
{
closed = 1;
nodes = (
"380 0 LINE",
"380 1500 LINE",
"168 1500 LINE",
"168 0 LINE"
);
}
);
width = 1200;
},
{
anchors = (
{
name = bottom;
position = "{600, 0}";
},
{
name = center;
position = "{600, 784}";
},
{
name = top;
position = "{288, 1500}";
}
);
layerId = "8E053A5E-67DA-4970-A6F5-068DBFE5AD21";
paths = (
{
closed = 1;
nodes = (
"1049 0 LINE",
"1049 690 LINE SMOOTH",
"1049 938 OFFCURVE",
"921 1080 OFFCURVE",
"697 1080 CURVE SMOOTH",
"539 1080 OFFCURVE",
"468 1010 OFFCURVE",
"448 868 CURVE",
"360 868 LINE",
"422 546 LINE",
"422 733 OFFCURVE",
"491 825 OFFCURVE",
"626 825 CURVE SMOOTH",
"723 825 OFFCURVE",
"778 758 OFFCURVE",
"778 640 CURVE SMOOTH",
"778 0 LINE"
);
},
{
closed = 1;
nodes = (
"422 0 LINE",
"422 1500 LINE",
"151 1500 LINE",
"151 0 LINE"
);
}
);
width = 1200;
}
);
unicode = 0068;
}
{
color = 10;
glyphname = p;
layers = (
{
anchors = (
{
name = bottom;
position = "{650, -460}";
},
{
name = top;
position = "{650, 1060}";
}
);
layerId = master01;
paths = (
{
closed = 1;
nodes = (
"286 -460 LINE",
"286 806 LINE",
"266 1060 LINE",
"192 1060 LINE",
"192 -460 LINE"
);
},
{
closed = 1;
nodes = (
"935 -20 OFFCURVE",
"1080 165 OFFCURVE",
"1080 520 CURVE SMOOTH",
"1080 888 OFFCURVE",
"933 1080 OFFCURVE",
"651 1080 CURVE SMOOTH",
"450 1080 OFFCURVE",
"327 992 OFFCURVE",
"294 822 CURVE",
"224 822 LINE",
"286 535 LINE",
"286 833 OFFCURVE",
"407 988 OFFCURVE",
"639 988 CURVE SMOOTH",
"866 988 OFFCURVE",
"984 828 OFFCURVE",
"984 520 CURVE SMOOTH",
"984 226 OFFCURVE",
"865 72 OFFCURVE",
"637 72 CURVE SMOOTH",
"406 72 OFFCURVE",
"286 227 OFFCURVE",
"286 524 CURVE",
"214 250 LINE",
"295 250 LINE",
"329 83 OFFCURVE",
"442 -20 OFFCURVE",
"657 -20 CURVE SMOOTH"
);
}
);
width = 1200;
},
{
anchors = (
{
name = bottom;
position = "{650, -460}";
},
{
name = top;
position = "{650, 1060}";
}
);
layerId = "1F90C004-9C90-48FA-B407-176B3E9F1E65";
paths = (
{
closed = 1;
nodes = (
"380 -460 LINE",
"380 836 LINE",
"360 1060 LINE",
"168 1060 LINE",
"168 -460 LINE"
);
},
{
closed = 1;
nodes = (
"959 -20 OFFCURVE",
"1104 165 OFFCURVE",
"1104 520 CURVE SMOOTH",
"1104 888 OFFCURVE",
"959 1080 OFFCURVE",
"681 1080 CURVE SMOOTH",
"516 1080 OFFCURVE",
"408 1001 OFFCURVE",
"390 868 CURVE",
"308 868 LINE",
"380 566 LINE",
"380 785 OFFCURVE",
"467 900 OFFCURVE",
"634 900 CURVE SMOOTH",
"805 900 OFFCURVE",
"894 770 OFFCURVE",
"894 520 CURVE SMOOTH",
"894 283 OFFCURVE",
"805 160 OFFCURVE",
"634 160 CURVE SMOOTH",
"467 160 OFFCURVE",
"380 275 OFFCURVE",
"380 494 CURVE",
"308 192 LINE",
"400 192 LINE",
"413 59 OFFCURVE",
"518 -20 OFFCURVE",
"681 -20 CURVE SMOOTH"
);
}
);
width = 1200;
},
{
anchors = (
{
name = bottom;
position = "{650, -460}";
},
{
name = top;
position = "{650, 1060}";
}
);
layerId = "8E053A5E-67DA-4970-A6F5-068DBFE5AD21";
paths = (
{
closed = 1;
nodes = (
"422 -460 LINE",
"422 836 LINE",
"402 1060 LINE",
"151 1060 LINE",
"151 -460 LINE"
);
},
{
closed = 1;
nodes = (
"968 -20 OFFCURVE",
"1121 175 OFFCURVE",
"1121 529 CURVE SMOOTH",
"1121 879 OFFCURVE",
"968 1080 OFFCURVE",
"703 1080 CURVE SMOOTH",
"542 1080 OFFCURVE",
"463 1010 OFFCURVE",
"438 868 CURVE",
"360 868 LINE",
"422 529 LINE",
"422 734 OFFCURVE",
"491 825 OFFCURVE",
"629 825 CURVE SMOOTH",
"766 825 OFFCURVE",
"844 717 OFFCURVE",
"844 529 CURVE SMOOTH",
"844 334 OFFCURVE",
"770 235 OFFCURVE",
"629 235 CURVE SMOOTH",
"475 235 OFFCURVE",
"422 323 OFFCURVE",
"422 529 CURVE",
"350 192 LINE",
"444 192 LINE",
"465 51 OFFCURVE",
"557 -20 OFFCURVE",
"705 -20 CURVE SMOOTH"
);
}
);
width = 1200;
}
);
unicode = 0070;
}
{
glyphname = "number-ar";
layers = (
{
layerId = master01;
paths = (
{
closed = 1;
nodes = (
"880 -237 LINE SMOOTH",
"1003 -237 OFFCURVE",
"1091 -227 OFFCURVE",
"1142 -211 CURVE",
"1136 -125 LINE",
"1099 -130 OFFCURVE",
"1060 -132 OFFCURVE",
"1024 -132 CURVE SMOOTH",
"957 -132 OFFCURVE",
"936 -111 OFFCURVE",
"936 -61 CURVE SMOOTH",
"936 -5 OFFCURVE",
"958 14 OFFCURVE",
"1019 14 CURVE SMOOTH",
"1049 14 OFFCURVE",
"1084 9 OFFCURVE",
"1113 3 CURVE",
"1121 89 LINE",
"1084 100 OFFCURVE",
"1038 108 OFFCURVE",
"1003 108 CURVE SMOOTH",
"905 108 OFFCURVE",
"844 63 OFFCURVE",
"844 -41 CURVE SMOOTH",
"844 -88 OFFCURVE",
"858 -120 OFFCURVE",
"888 -132 CURVE",
"888 -168 LINE",
"909 -143 LINE",
"46 -143 LINE",
"53 -237 LINE"
);
}
);
width = 1200;
},
{
layerId = "8E053A5E-67DA-4970-A6F5-068DBFE5AD21";
paths = (
{
closed = 1;
nodes = (
"870 -278 LINE SMOOTH",
"993 -278 OFFCURVE",
"1100 -259 OFFCURVE",
"1151 -242 CURVE",
"1142 -88 LINE",
"1102 -94 OFFCURVE",
"1056 -102 OFFCURVE",
"1020 -102 CURVE SMOOTH",
"963 -102 OFFCURVE",
"946 -97 OFFCURVE",
"946 -71 CURVE SMOOTH",
"946 -42 OFFCURVE",
"965 -36 OFFCURVE",
"1014 -36 CURVE SMOOTH",
"1044 -36 OFFCURVE",
"1084 -41 OFFCURVE",
"1113 -44 CURVE",
"1121 103 LINE",
"1094 115 OFFCURVE",
"1032 122 OFFCURVE",
"997 122 CURVE SMOOTH",
"909 122 OFFCURVE",
"827 80 OFFCURVE",
"827 -14 CURVE SMOOTH",
"827 -55 OFFCURVE",
"846 -70 OFFCURVE",
"865 -79 CURVE",
"865 -112 LINE",
"899 -88 LINE",
"36 -88 LINE",
"43 -278 LINE"
);
}
);
width = 1200;
},
{
layerId = "1F90C004-9C90-48FA-B407-176B3E9F1E65";
paths = (
{
closed = 1;
nodes = (
"870 -267 LINE SMOOTH",
"993 -267 OFFCURVE",
"1090 -248 OFFCURVE",
"1141 -231 CURVE",
"1132 -85 LINE",
"1092 -94 OFFCURVE",
"1056 -102 OFFCURVE",
"1020 -102 CURVE SMOOTH",
"963 -102 OFFCURVE",
"946 -91 OFFCURVE",
"946 -61 CURVE SMOOTH",
"946 -32 OFFCURVE",
"965 -22 OFFCURVE",
"1014 -22 CURVE SMOOTH",
"1044 -22 OFFCURVE",
"1074 -27 OFFCURVE",
"1103 -33 CURVE",
"1111 93 LINE",
"1084 105 OFFCURVE",
"1032 112 OFFCURVE",
"997 112 CURVE SMOOTH",
"909 112 OFFCURVE",
"830 75 OFFCURVE",
"830 -19 CURVE SMOOTH",
"830 -60 OFFCURVE",
"846 -88 OFFCURVE",
"865 -97 CURVE",
"865 -130 LINE",
"899 -106 LINE",
"46 -106 LINE",
"53 -267 LINE"
);
}
);
width = 1200;
}
);
unicode = 0600;
}
{
glyphname = "year-ar";
layers = (
{
layerId = master01;
paths = (
{
closed = 1;
nodes = (
"183 -363 OFFCURVE",
"214 -342 OFFCURVE",
"249 -285 CURVE SMOOTH",
"271 -249 OFFCURVE",
"280 -225 OFFCURVE",
"299 -225 CURVE SMOOTH",
"325 -225 OFFCURVE",
"356 -298 OFFCURVE",
"413 -298 CURVE SMOOTH",
"448 -298 OFFCURVE",
"466 -279 OFFCURVE",
"491 -237 CURVE",
"1035 -237 LINE SMOOTH",
"1068 -237 OFFCURVE",
"1073 -248 OFFCURVE",
"1073 -267 CURVE SMOOTH",
"1073 -284 OFFCURVE",
"1070 -295 OFFCURVE",
"1067 -316 CURVE",
"1140 -320 LINE",
"1153 -284 OFFCURVE",
"1160 -244 OFFCURVE",
"1160 -223 CURVE SMOOTH",
"1160 -160 OFFCURVE",
"1116 -143 OFFCURVE",
"1040 -143 CURVE SMOOTH",
"472 -143 LINE",
"452 -179 OFFCURVE",
"438 -204 OFFCURVE",
"421 -204 CURVE SMOOTH",
"385 -204 OFFCURVE",
"351 -130 OFFCURVE",
"300 -130 CURVE SMOOTH",
"256 -130 OFFCURVE",
"227 -174 OFFCURVE",
"202 -216 CURVE SMOOTH",
"179 -254 OFFCURVE",
"168 -269 OFFCURVE",
"146 -269 CURVE SMOOTH",
"125 -269 OFFCURVE",
"113 -255 OFFCURVE",
"113 -227 CURVE SMOOTH",
"113 -203 OFFCURVE",
"116 -177 OFFCURVE",
"119 -156 CURVE",
"51 -155 LINE",
"42 -186 OFFCURVE",
"33 -209 OFFCURVE",
"35 -262 CURVE SMOOTH",
"37 -312 OFFCURVE",
"68 -363 OFFCURVE",
"135 -363 CURVE SMOOTH"
);
}
);
width = 1200;
},
{
layerId = "8E053A5E-67DA-4970-A6F5-068DBFE5AD21";
paths = (
{
closed = 1;
nodes = (
"194 -384 OFFCURVE",
"226 -373 OFFCURVE",
"252 -323 CURVE SMOOTH",
"276 -277 OFFCURVE",
"281 -262 OFFCURVE",
"301 -262 CURVE SMOOTH",
"332 -262 OFFCURVE",
"343 -334 OFFCURVE",
"410 -334 CURVE SMOOTH",
"448 -334 OFFCURVE",
"465 -320 OFFCURVE",
"491 -278 CURVE",
"985 -278 LINE SMOOTH",
"1016 -278 OFFCURVE",
"1020 -285 OFFCURVE",
"1020 -304 CURVE SMOOTH",
"1020 -321 OFFCURVE",
"1019 -323 OFFCURVE",
"1015 -347 CURVE",
"1150 -351 LINE",
"1166 -295 OFFCURVE",
"1170 -264 OFFCURVE",
"1170 -223 CURVE SMOOTH",
"1170 -142 OFFCURVE",
"1119 -88 OFFCURVE",
"1030 -88 CURVE SMOOTH",
"472 -88 LINE",
"451 -131 OFFCURVE",
"444 -144 OFFCURVE",
"421 -144 CURVE SMOOTH",
"388 -144 OFFCURVE",
"351 -72 OFFCURVE",
"300 -72 CURVE SMOOTH",
"246 -72 OFFCURVE",
"220 -115 OFFCURVE",
"195 -163 CURVE SMOOTH",
"185 -182 OFFCURVE",
"177 -194 OFFCURVE",
"163 -194 CURVE SMOOTH",
"151 -194 OFFCURVE",
"147 -191 OFFCURVE",
"147 -172 CURVE SMOOTH",
"147 -148 OFFCURVE",
"149 -132 OFFCURVE",
"152 -111 CURVE",
"41 -110 LINE",
"32 -141 OFFCURVE",
"24 -194 OFFCURVE",
"25 -247 CURVE SMOOTH",
"27 -337 OFFCURVE",
"73 -384 OFFCURVE",
"145 -384 CURVE SMOOTH"
);
}
);
width = 1200;
},
{
layerId = "1F90C004-9C90-48FA-B407-176B3E9F1E65";
paths = (
{
closed = 1;
nodes = (
"188 -384 OFFCURVE",
"225 -368 OFFCURVE",
"252 -316 CURVE SMOOTH",
"276 -270 OFFCURVE",
"278 -255 OFFCURVE",
"298 -255 CURVE SMOOTH",
"329 -255 OFFCURVE",
"349 -329 OFFCURVE",
"413 -329 CURVE SMOOTH",
"451 -329 OFFCURVE",
"468 -310 OFFCURVE",
"491 -268 CURVE",
"995 -268 LINE SMOOTH",
"1030 -268 OFFCURVE",
"1037 -279 OFFCURVE",
"1037 -298 CURVE SMOOTH",
"1037 -315 OFFCURVE",
"1036 -323 OFFCURVE",
"1032 -347 CURVE",
"1150 -351 LINE",
"1166 -295 OFFCURVE",
"1170 -264 OFFCURVE",
"1170 -223 CURVE SMOOTH",
"1170 -142 OFFCURVE",
"1129 -108 OFFCURVE",
"1040 -108 CURVE SMOOTH",
"472 -108 LINE",
"452 -154 OFFCURVE",
"441 -169 OFFCURVE",
"421 -169 CURVE SMOOTH",
"388 -169 OFFCURVE",
"354 -95 OFFCURVE",
"303 -95 CURVE SMOOTH",
"259 -95 OFFCURVE",
"230 -142 OFFCURVE",
"202 -189 CURVE SMOOTH",
"184 -219 OFFCURVE",
"172 -224 OFFCURVE",
"158 -224 CURVE SMOOTH",
"140 -224 OFFCURVE",
"134 -211 OFFCURVE",
"134 -192 CURVE SMOOTH",
"134 -168 OFFCURVE",
"136 -152 OFFCURVE",
"139 -131 CURVE",
"41 -130 LINE",
"32 -161 OFFCURVE",
"24 -194 OFFCURVE",
"25 -247 CURVE SMOOTH",
"27 -327 OFFCURVE",
"74 -384 OFFCURVE",
"146 -384 CURVE SMOOTH"
);
}
);
width = 1200;
}
);
unicode = 0601;
}
{
glyphname = "footnotemarker-ar";
layers = (
{
layerId = master01;
paths = (
{
closed = 1;
nodes = (
"1120 -237 LINE",
"1128 -143 LINE",
"253 -143 LINE SMOOTH",
"164 -142 OFFCURVE",
"154 -123 OFFCURVE",
"154 -80 CURVE SMOOTH",
"154 -19 OFFCURVE",
"196 35 OFFCURVE",
"243 35 CURVE SMOOTH",
"278 35 OFFCURVE",
"299 14 OFFCURVE",
"299 -59 CURVE SMOOTH",
"299 -99 OFFCURVE",
"295 -144 OFFCURVE",
"285 -187 CURVE",
"373 -199 LINE",
"384 -153 OFFCURVE",
"391 -97 OFFCURVE",
"391 -53 CURVE SMOOTH",
"391 62 OFFCURVE",
"353 129 OFFCURVE",
"259 129 CURVE SMOOTH",
"142 129 OFFCURVE",
"62 20 OFFCURVE",
"62 -100 CURVE SMOOTH",
"62 -205 OFFCURVE",
"130 -237 OFFCURVE",
"264 -237 CURVE SMOOTH"
);
}
);
width = 1200;
},
{
layerId = "8E053A5E-67DA-4970-A6F5-068DBFE5AD21";
paths = (
{
closed = 1;
nodes = (
"1130 -279 LINE",
"1138 -89 LINE",
"263 -88 LINE SMOOTH",
"184 -88 OFFCURVE",
"167 -82 OFFCURVE",
"167 -66 CURVE SMOOTH",
"167 -46 OFFCURVE",
"203 -28 OFFCURVE",
"241 -28 CURVE SMOOTH",
"285 -28 OFFCURVE",
"297 -46 OFFCURVE",
"297 -89 CURVE SMOOTH",
"297 -109 OFFCURVE",
"291 -144 OFFCURVE",
"281 -187 CURVE",
"368 -199 LINE",
"382 -160 OFFCURVE",
"394 -97 OFFCURVE",
"394 -53 CURVE SMOOTH",
"394 68 OFFCURVE",
"343 138 OFFCURVE",
"252 138 CURVE SMOOTH",
"145 138 OFFCURVE",
"52 30 OFFCURVE",
"52 -100 CURVE SMOOTH",
"52 -215 OFFCURVE",
"120 -279 OFFCURVE",
"264 -279 CURVE SMOOTH"
);
}
);
width = 1200;
},
{
layerId = "1F90C004-9C90-48FA-B407-176B3E9F1E65";
paths = (
{
closed = 1;
nodes = (
"1130 -269 LINE",
"1138 -109 LINE",
"263 -108 LINE SMOOTH",
"174 -108 OFFCURVE",
"159 -96 OFFCURVE",
"159 -70 CURVE SMOOTH",
"159 -45 OFFCURVE",
"194 -18 OFFCURVE",
"241 -18 CURVE SMOOTH",
"288 -18 OFFCURVE",
"304 -36 OFFCURVE",
"304 -79 CURVE SMOOTH",
"304 -119 OFFCURVE",
"298 -144 OFFCURVE",
"288 -187 CURVE",
"373 -199 LINE",
"386 -153 OFFCURVE",
"394 -97 OFFCURVE",
"394 -53 CURVE SMOOTH",
"394 66 OFFCURVE",
"350 129 OFFCURVE",
"259 129 CURVE SMOOTH",
"142 129 OFFCURVE",
"52 20 OFFCURVE",
"52 -100 CURVE SMOOTH",
"52 -215 OFFCURVE",
"130 -269 OFFCURVE",
"264 -269 CURVE SMOOTH"
);
}
);
width = 1200;
}
);
unicode = 0602;
}
{
glyphname = "pagenumber-ar";
layers = (
{
layerId = master01;
paths = (
{
closed = 1;
nodes = (
"1054 -240 OFFCURVE",
"1167 -202 OFFCURVE",
"1167 -47 CURVE SMOOTH",
"1167 80 OFFCURVE",
"1083 180 OFFCURVE",
"985 180 CURVE SMOOTH",
"875 180 OFFCURVE",
"752 -4 OFFCURVE",
"655 -171 CURVE",
"733 -193 LINE",
"808 -55 OFFCURVE",
"910 86 OFFCURVE",
"967 86 CURVE SMOOTH",
"1029 86 OFFCURVE",
"1075 12 OFFCURVE",
"1075 -50 CURVE SMOOTH",
"1075 -140 OFFCURVE",
"1015 -143 OFFCURVE",
"803 -143 CURVE SMOOTH",
"677 -143 OFFCURVE",
"649 -143 OFFCURVE",
"643 -119 CURVE SMOOTH",
"638 -100 OFFCURVE",
"639 -79 OFFCURVE",
"638 -35 CURVE",
"556 -35 LINE",
"555 -78 OFFCURVE",
"555 -94 OFFCURVE",
"554 -112 CURVE SMOOTH",
"552 -137 OFFCURVE",
"546 -143 OFFCURVE",
"484 -143 CURVE SMOOTH",
"30 -143 LINE",
"43 -237 LINE",
"463 -237 LINE SMOOTH",
"533 -237 OFFCURVE",
"568 -229 OFFCURVE",
"586 -173 CURVE",
"599 -173 LINE",
"617 -229 OFFCURVE",
"658 -240 OFFCURVE",
"831 -240 CURVE SMOOTH"
);
}
);
width = 1200;
},
{
layerId = "8E053A5E-67DA-4970-A6F5-068DBFE5AD21";
paths = (
{
closed = 1;
nodes = (
"1034 -282 OFFCURVE",
"1177 -224 OFFCURVE",
"1177 -69 CURVE SMOOTH",
"1177 88 OFFCURVE",
"1080 210 OFFCURVE",
"971 210 CURVE SMOOTH",
"861 210 OFFCURVE",
"757 26 OFFCURVE",
"660 -151 CURVE",
"801 -173 LINE",
"867 -40 OFFCURVE",
"899 12 OFFCURVE",
"947 12 CURVE SMOOTH",
"989 12 OFFCURVE",
"1019 -25 OFFCURVE",
"1019 -60 CURVE SMOOTH",
"1019 -81 OFFCURVE",
"995 -88 OFFCURVE",
"803 -88 CURVE SMOOTH",
"677 -88 OFFCURVE",
"671 -87 OFFCURVE",
"669 -69 CURVE SMOOTH",
"667 -52 OFFCURVE",
"667 -24 OFFCURVE",
"666 0 CURVE",
"530 0 LINE",
"529 -43 OFFCURVE",
"529 -49 OFFCURVE",
"527 -67 CURVE SMOOTH",
"525 -84 OFFCURVE",
"519 -89 OFFCURVE",
"457 -89 CURVE SMOOTH",
"20 -89 LINE",
"33 -279 LINE",
"443 -279 LINE SMOOTH",
"521 -279 OFFCURVE",
"570 -268 OFFCURVE",
"586 -205 CURVE",
"599 -205 LINE",
"607 -265 OFFCURVE",
"678 -282 OFFCURVE",
"811 -282 CURVE SMOOTH"
);
}
);
width = 1200;
},
{
layerId = "1F90C004-9C90-48FA-B407-176B3E9F1E65";
paths = (
{
closed = 1;
nodes = (
"1054 -272 OFFCURVE",
"1167 -224 OFFCURVE",
"1167 -69 CURVE SMOOTH",
"1167 58 OFFCURVE",
"1078 200 OFFCURVE",
"969 200 CURVE SMOOTH",
"869 200 OFFCURVE",
"757 16 OFFCURVE",
"660 -151 CURVE",
"773 -173 LINE",
"838 -45 OFFCURVE",
"901 42 OFFCURVE",
"942 42 CURVE SMOOTH",
"984 42 OFFCURVE",
"1023 -13 OFFCURVE",
"1023 -65 CURVE SMOOTH",
"1023 -105 OFFCURVE",
"1015 -118 OFFCURVE",
"803 -118 CURVE SMOOTH",
"687 -118 OFFCURVE",
"657 -112 OFFCURVE",
"651 -84 CURVE SMOOTH",
"647 -67 OFFCURVE",
"647 -44 OFFCURVE",
"646 0 CURVE",
"550 0 LINE",
"549 -43 OFFCURVE",
"548 -59 OFFCURVE",
"547 -77 CURVE SMOOTH",
"545 -102 OFFCURVE",
"539 -109 OFFCURVE",
"477 -109 CURVE SMOOTH",
"30 -109 LINE",
"43 -269 LINE",
"443 -269 LINE SMOOTH",
"521 -269 OFFCURVE",
"560 -258 OFFCURVE",
"586 -195 CURVE",
"599 -195 LINE",
"617 -255 OFFCURVE",
"678 -272 OFFCURVE",
"831 -272 CURVE SMOOTH"
);
}
);
width = 1200;
}
);
unicode = 0603;
}
{
glyphname = "samvat-ar";
layers = (
{
layerId = master01;
paths = (
{
closed = 1;
nodes = (
"564 90 LINE",
"440 90 OFFCURVE",
"426 155 OFFCURVE",
"426 247 CURVE SMOOTH",
"426 331 OFFCURVE",
"468 378 OFFCURVE",
"512 378 CURVE SMOOTH",
"559 378 OFFCURVE",
"573 344 OFFCURVE",
"606 266 CURVE SMOOTH",
"656 147 OFFCURVE",
"698 123 OFFCURVE",
"761 123 CURVE SMOOTH",
"803 123 OFFCURVE",
"845 137 OFFCURVE",
"869 182 CURVE",
"895 182 LINE",
"911 196 OFFCURVE",
"916 219 OFFCURVE",
"918 250 CURVE SMOOTH",
"923 326 OFFCURVE",
"923 398 OFFCURVE",
"920 494 CURVE",
"833 491 LINE",
"834 410 OFFCURVE",
"834 300 OFFCURVE",
"829 260 CURVE SMOOTH",
"825 230 OFFCURVE",
"810 217 OFFCURVE",
"776 217 CURVE SMOOTH",
"731 217 OFFCURVE",
"720 234 OFFCURVE",
"674 344 CURVE SMOOTH",
"630 449 OFFCURVE",
"576 472 OFFCURVE",
"516 472 CURVE SMOOTH",
"427 472 OFFCURVE",
"334 395 OFFCURVE",
"334 254 CURVE SMOOTH",
"334 162 OFFCURVE",
"363 114 OFFCURVE",
"401 98 CURVE",
"401 71 LINE",
"419 42 LINE",
"435 87 LINE",
"341 89 OFFCURVE",
"180 90 OFFCURVE",
"23 90 CURVE",
"23 -4 LINE",
"184 -5 OFFCURVE",
"412 -2 OFFCURVE",
"564 -3 CURVE"
);
},
{
closed = 1;
nodes = (
"1117 123 OFFCURVE",
"1147 198 OFFCURVE",
"1147 307 CURVE SMOOTH",
"1147 368 OFFCURVE",
"1143 432 OFFCURVE",
"1130 516 CURVE",
"1048 509 LINE",
"1056 417 OFFCURVE",
"1060 342 OFFCURVE",
"1060 289 CURVE SMOOTH",
"1060 232 OFFCURVE",
"1040 217 OFFCURVE",
"996 217 CURVE SMOOTH",
"960 217 OFFCURVE",
"930 225 OFFCURVE",
"899 238 CURVE",
"877 196 LINE",
"898 147 OFFCURVE",
"941 123 OFFCURVE",
"997 123 CURVE SMOOTH"
);
}
);
width = 1200;
},
{
layerId = "8E053A5E-67DA-4970-A6F5-068DBFE5AD21";
paths = (
{
closed = 1;
nodes = (
"564 199 LINE",
"473 202 OFFCURVE",
"456 210 OFFCURVE",
"456 254 CURVE SMOOTH",
"456 284 OFFCURVE",
"473 307 OFFCURVE",
"507 307 CURVE SMOOTH",
"546 307 OFFCURVE",
"567 281 OFFCURVE",
"589 233 CURVE SMOOTH",
"642 117 OFFCURVE",
"681 83 OFFCURVE",
"754 83 CURVE SMOOTH",
"807 83 OFFCURVE",
"845 101 OFFCURVE",
"869 162 CURVE",
"895 162 LINE",
"917 186 OFFCURVE",
"931 209 OFFCURVE",
"935 250 CURVE SMOOTH",
"942 316 OFFCURVE",
"942 429 OFFCURVE",
"939 506 CURVE",
"798 503 LINE",
"798 425 OFFCURVE",
"796 376 OFFCURVE",
"793 339 CURVE SMOOTH",
"790 303 OFFCURVE",
"782 289 OFFCURVE",
"757 289 CURVE SMOOTH",
"731 289 OFFCURVE",
"720 314 OFFCURVE",
"696 363 CURVE SMOOTH",
"646 465 OFFCURVE",
"602 508 OFFCURVE",
"514 508 CURVE SMOOTH",
"409 508 OFFCURVE",
"324 437 OFFCURVE",
"324 321 CURVE SMOOTH",
"324 260 OFFCURVE",
"352 222 OFFCURVE",
"391 209 CURVE",
"391 181 LINE",
"419 152 LINE",
"435 197 LINE",
"341 199 OFFCURVE",
"180 200 OFFCURVE",
"23 200 CURVE",
"23 -8 LINE",
"184 -9 OFFCURVE",
"412 -9 OFFCURVE",
"564 -10 CURVE"
);
},
{
closed = 1;
nodes = (
"1117 83 OFFCURVE",
"1161 198 OFFCURVE",
"1161 307 CURVE SMOOTH",
"1161 368 OFFCURVE",
"1157 446 OFFCURVE",
"1144 530 CURVE",
"1002 517 LINE",
"1010 445 OFFCURVE",
"1014 402 OFFCURVE",
"1014 359 CURVE SMOOTH",
"1014 304 OFFCURVE",
"1008 289 OFFCURVE",
"974 289 CURVE SMOOTH",
"945 289 OFFCURVE",
"929 296 OFFCURVE",
"899 305 CURVE",
"877 176 LINE",
"898 107 OFFCURVE",
"941 83 OFFCURVE",
"997 83 CURVE SMOOTH"
);
}
);
width = 1200;
},
{
layerId = "1F90C004-9C90-48FA-B407-176B3E9F1E65";
paths = (
{
closed = 1;
nodes = (
"564 129 LINE",
"481 132 OFFCURVE",
"456 155 OFFCURVE",
"456 247 CURVE SMOOTH",
"456 311 OFFCURVE",
"480 345 OFFCURVE",
"517 345 CURVE SMOOTH",
"551 345 OFFCURVE",
"563 321 OFFCURVE",
"589 253 CURVE SMOOTH",
"634 134 OFFCURVE",
"671 103 OFFCURVE",
"754 103 CURVE SMOOTH",
"797 103 OFFCURVE",
"845 117 OFFCURVE",
"869 162 CURVE",
"895 162 LINE",
"917 186 OFFCURVE",
"926 209 OFFCURVE",
"930 250 CURVE SMOOTH",
"937 326 OFFCURVE",
"937 415 OFFCURVE",
"934 502 CURVE",
"803 499 LINE",
"805 421 OFFCURVE",
"804 330 OFFCURVE",
"800 293 CURVE SMOOTH",
"796 257 OFFCURVE",
"775 249 OFFCURVE",
"759 249 CURVE SMOOTH",
"732 249 OFFCURVE",
"718 261 OFFCURVE",
"687 344 CURVE SMOOTH",
"649 444 OFFCURVE",
"611 492 OFFCURVE",
"516 492 CURVE SMOOTH",
"411 492 OFFCURVE",
"324 410 OFFCURVE",
"324 284 CURVE SMOOTH",
"324 223 OFFCURVE",
"343 155 OFFCURVE",
"391 138 CURVE",
"391 111 LINE",
"419 82 LINE",
"435 127 LINE",
"341 129 OFFCURVE",
"180 130 OFFCURVE",
"23 130 CURVE",
"23 -8 LINE",
"184 -9 OFFCURVE",
"412 -9 OFFCURVE",
"564 -10 CURVE"
);
},
{
closed = 1;
nodes = (
"1117 103 OFFCURVE",
"1157 198 OFFCURVE",
"1157 307 CURVE SMOOTH",
"1157 368 OFFCURVE",
"1153 442 OFFCURVE",
"1140 526 CURVE",
"1008 513 LINE",
"1016 431 OFFCURVE",
"1020 382 OFFCURVE",
"1020 319 CURVE SMOOTH",
"1020 262 OFFCURVE",
"1008 249 OFFCURVE",
"974 249 CURVE SMOOTH",
"945 249 OFFCURVE",
"929 256 OFFCURVE",
"899 265 CURVE",
"877 176 LINE",
"898 127 OFFCURVE",
"941 103 OFFCURVE",
"997 103 CURVE SMOOTH"
);
}
);
width = 1200;
}
);
unicode = 0604;
}
{
glyphname = "numbermark-ar";
layers = (
{
layerId = master01;
paths = (
{
closed = 1;
nodes = (
"137 548 OFFCURVE",
"188 595 OFFCURVE",
"256 595 CURVE SMOOTH",
"365 595 OFFCURVE",
"467 495 OFFCURVE",
"703 495 CURVE SMOOTH",
"892 495 OFFCURVE",
"1054 549 OFFCURVE",
"1173 605 CURVE",
"1162 695 LINE",
"1034 639 OFFCURVE",
"893 589 OFFCURVE",
"712 589 CURVE SMOOTH",
"477 589 OFFCURVE",
"402 689 OFFCURVE",
"250 689 CURVE SMOOTH",
"157 689 OFFCURVE",
"70 616 OFFCURVE",
"14 548 CURVE",
"64 484 LINE"
);
}
);
width = 1200;
},
{
layerId = "8E053A5E-67DA-4970-A6F5-068DBFE5AD21";
paths = (
{
closed = 1;
nodes = (
"137 483 OFFCURVE",
"191 536 OFFCURVE",
"259 536 CURVE SMOOTH",
"358 536 OFFCURVE",
"466 436 OFFCURVE",
"702 436 CURVE SMOOTH",
"881 436 OFFCURVE",
"1054 490 OFFCURVE",
"1173 546 CURVE",
"1162 762 LINE",
"1043 713 OFFCURVE",
"893 656 OFFCURVE",
"712 656 CURVE SMOOTH",
"467 656 OFFCURVE",
"380 767 OFFCURVE",
"245 767 CURVE SMOOTH",
"155 767 OFFCURVE",
"70 683 OFFCURVE",
"14 615 CURVE",
"64 425 LINE"
);
}
);
width = 1200;
},
{
layerId = "1F90C004-9C90-48FA-B407-176B3E9F1E65";
paths = (
{
closed = 1;
nodes = (
"137 513 OFFCURVE",
"188 566 OFFCURVE",
"256 566 CURVE SMOOTH",
"355 566 OFFCURVE",
"456 466 OFFCURVE",
"702 466 CURVE SMOOTH",
"891 466 OFFCURVE",
"1054 520 OFFCURVE",
"1173 576 CURVE",
"1162 732 LINE",
"1043 683 OFFCURVE",
"893 626 OFFCURVE",
"712 626 CURVE SMOOTH",
"467 626 OFFCURVE",
"384 737 OFFCURVE",
"242 737 CURVE SMOOTH",
"159 737 OFFCURVE",
"70 653 OFFCURVE",
"14 585 CURVE",
"64 455 LINE"
);
}
);
width = 1200;
}
);
unicode = 0605;
}
{
glyphname = "ray-ar";
layers = (
{
layerId = master01;
paths = (
{
closed = 1;
nodes = (
"963 -415 OFFCURVE",
"1140 -323 OFFCURVE",
"1140 145 CURVE SMOOTH",
"1140 467 OFFCURVE",
"1001 628 OFFCURVE",
"827 628 CURVE SMOOTH",
"635 628 OFFCURVE",
"520 452 OFFCURVE",
"520 266 CURVE SMOOTH",
"520 83 OFFCURVE",
"589 -3 OFFCURVE",
"804 -3 CURVE SMOOTH",
"1185 -3 LINE SMOOTH",
"1264 -3 OFFCURVE",
"1290 -2 OFFCURVE",
"1290 52 CURVE SMOOTH",
"1290 86 OFFCURVE",
"1277 91 OFFCURVE",
"1202 91 CURVE SMOOTH",
"1091 91 LINE",
"999 89 OFFCURVE",
"895 91 OFFCURVE",
"827 91 CURVE SMOOTH",
"645 91 OFFCURVE",
"612 133 OFFCURVE",
"612 266 CURVE SMOOTH",
"612 420 OFFCURVE",
"697 534 OFFCURVE",
"820 534 CURVE SMOOTH",
"959 534 OFFCURVE",
"1048 392 OFFCURVE",
"1048 138 CURVE SMOOTH",
"1048 -55 OFFCURVE",
"1021 -171 OFFCURVE",
"943 -238 CURVE SMOOTH",
"870 -301 OFFCURVE",
"754 -321 OFFCURVE",
"575 -321 CURVE SMOOTH",
"248 -321 OFFCURVE",
"141 -250 OFFCURVE",
"141 -1 CURVE SMOOTH",
"141 110 OFFCURVE",
"153 229 OFFCURVE",
"173 352 CURVE",
"95 377 LINE",
"-142 299 LINE",
"-119 205 LINE",
"109 281 LINE",
"80 317 LINE",
"59 209 OFFCURVE",
"49 102 OFFCURVE",
"49 -11 CURVE SMOOTH",
"49 -275 OFFCURVE",
"166 -415 OFFCURVE",
"561 -415 CURVE SMOOTH"
);
}
);
width = 1200;
},
{
layerId = "8E053A5E-67DA-4970-A6F5-068DBFE5AD21";
paths = (
{
closed = 1;
nodes = (
"995 -462 OFFCURVE",
"1169 -328 OFFCURVE",
"1169 129 CURVE SMOOTH",
"1169 481 OFFCURVE",
"1042 712 OFFCURVE",
"823 712 CURVE SMOOTH",
"627 712 OFFCURVE",
"489 526 OFFCURVE",
"489 290 CURVE SMOOTH",
"489 97 OFFCURVE",
"556 -10 OFFCURVE",
"743 -10 CURVE SMOOTH",
"1185 -10 LINE SMOOTH",
"1264 -10 OFFCURVE",
"1310 56 OFFCURVE",
"1310 140 CURVE SMOOTH",
"1310 214 OFFCURVE",
"1277 285 OFFCURVE",
"1202 285 CURVE SMOOTH",
"979 285 LINE",
"924 284 OFFCURVE",
"870 282 OFFCURVE",
"815 281 CURVE SMOOTH",
"714 279 OFFCURVE",
"685 293 OFFCURVE",
"685 343 CURVE SMOOTH",
"685 391 OFFCURVE",
"728 450 OFFCURVE",
"806 450 CURVE SMOOTH",
"898 450 OFFCURVE",
"962 346 OFFCURVE",
"962 182 CURVE SMOOTH",
"962 49 OFFCURVE",
"961 -52 OFFCURVE",
"912 -102 CURVE SMOOTH",
"850 -165 OFFCURVE",
"720 -167 OFFCURVE",
"567 -167 CURVE SMOOTH",
"307 -167 OFFCURVE",
"264 -111 OFFCURVE",
"264 105 CURVE SMOOTH",
"264 194 OFFCURVE",
"274 277 OFFCURVE",
"287 360 CURVE",
"98 424 LINE",
"-180 335 LINE",
"-133 86 LINE",
"107 160 LINE",
"39 270 LINE",
"27 210 OFFCURVE",
"17 118 OFFCURVE",
"17 62 CURVE SMOOTH",
"17 -237 OFFCURVE",
"89 -462 OFFCURVE",
"517 -462 CURVE SMOOTH"
);
}
);
width = 1200;
},
{
layerId = "1F90C004-9C90-48FA-B407-176B3E9F1E65";
paths = (
{
closed = 1;
nodes = (
"1049 -443 OFFCURVE",
"1155 -223 OFFCURVE",
"1155 185 CURVE SMOOTH",
"1155 503 OFFCURVE",
"1048 718 OFFCURVE",
"812 718 CURVE SMOOTH",
"617 718 OFFCURVE",
"493 539 OFFCURVE",
"493 304 CURVE SMOOTH",
"493 58 OFFCURVE",
"588 -9 OFFCURVE",
"792 -9 CURVE SMOOTH",
"1189 -9 LINE SMOOTH",
"1267 -9 OFFCURVE",
"1285 23 OFFCURVE",
"1285 103 CURVE SMOOTH",
"1285 177 OFFCURVE",
"1267 206 OFFCURVE",
"1200 206 CURVE SMOOTH",
"1033 206 LINE",
"963 201 OFFCURVE",
"890 196 OFFCURVE",
"820 196 CURVE SMOOTH",
"699 196 OFFCURVE",
"669 215 OFFCURVE",
"669 330 CURVE SMOOTH",
"669 435 OFFCURVE",
"716 506 OFFCURVE",
"813 506 CURVE SMOOTH",
"922 506 OFFCURVE",
"983 414 OFFCURVE",
"983 177 CURVE SMOOTH",
"983 -8 OFFCURVE",
"971 -115 OFFCURVE",
"902 -174 CURVE SMOOTH",
"845 -222 OFFCURVE",
"751 -238 OFFCURVE",
"593 -238 CURVE SMOOTH",
"324 -238 OFFCURVE",
"225 -167 OFFCURVE",
"225 62 CURVE SMOOTH",
"225 142 OFFCURVE",
"232 247 OFFCURVE",
"244 352 CURVE",
"90 401 LINE",
"-167 317 LINE",
"-124 132 LINE",
"95 202 LINE",
"44 272 LINE",
"34 187 OFFCURVE",
"30 116 OFFCURVE",
"30 30 CURVE SMOOTH",
"30 -281 OFFCURVE",
"188 -443 OFFCURVE",
"578 -443 CURVE SMOOTH"
);
}
);
width = 1200;
}
);
unicode = 0608;
}
{
glyphname = "perthousand-ar";
layers = (
{
layerId = master01;
paths = (
{
closed = 1;
nodes = (
"977 1404 LINE",
"895 1440 LINE",
"136 16 LINE",
"218 -20 LINE"
);
},
{
closed = 1;
nodes = (
"749 138 LINE",
"587 296 LINE",
"445 145 LINE",
"604 -10 LINE"
);
},
{
closed = 1;
nodes = (
"472 1282 LINE",
"310 1440 LINE",
"168 1289 LINE",
"327 1134 LINE"
);
},
{
closed = 1;
nodes = (
"1119 138 LINE",
"957 296 LINE",
"815 145 LINE",
"974 -10 LINE"
);
}
);
width = 1200;
},
{
layerId = "8E053A5E-67DA-4970-A6F5-068DBFE5AD21";
paths = (
{
closed = 1;
nodes = (
"990 1370 LINE",
"770 1440 LINE",
"23 50 LINE",
"243 -20 LINE"
);
},
{
closed = 1;
nodes = (
"811 168 LINE",
"615 360 LINE",
"443 177 LINE",
"635 -10 LINE"
);
},
{
closed = 1;
nodes = (
"475 1232 LINE",
"263 1440 LINE",
"77 1242 LINE",
"285 1039 LINE"
);
},
{
closed = 1;
nodes = (
"1186 168 LINE",
"989 360 LINE",
"818 177 LINE",
"1009 -10 LINE"
);
}
);
width = 1200;
},
{
layerId = "1F90C004-9C90-48FA-B407-176B3E9F1E65";
paths = (
{
closed = 1;
nodes = (
"990 1370 LINE",
"840 1440 LINE",
"83 50 LINE",
"233 -20 LINE"
);
},
{
closed = 1;
nodes = (
"783 162 LINE",
"594 347 LINE",
"429 170 LINE",
"614 -10 LINE"
);
},
{
closed = 1;
nodes = (
"503 1240 LINE",
"299 1440 LINE",
"120 1249 LINE",
"320 1054 LINE"
);
},
{
closed = 1;
nodes = (
"1161 162 LINE",
"972 347 LINE",
"807 170 LINE",
"992 -10 LINE"
);
}
);
width = 1200;
}
);
unicode = 0609;
}
{
glyphname = "hamza-ar";
layers = (
{
anchors = (
{
name = bottom;
position = "{637, -71}";
},
{
name = top;
position = "{630, 798}";
}
);
layerId = master01;
paths = (
{
closed = 1;
nodes = (
"963 115 LINE",
"953 209 LINE",
"868 196 OFFCURVE",
"764 175 OFFCURVE",
"692 175 CURVE SMOOTH",
"551 175 OFFCURVE",
"465 240 OFFCURVE",
"465 380 CURVE SMOOTH",
"465 506 OFFCURVE",
"527 572 OFFCURVE",
"686 572 CURVE SMOOTH",
"758 572 OFFCURVE",
"814 556 OFFCURVE",
"871 541 CURVE",
"884 631 LINE",
"821 653 OFFCURVE",
"749 666 OFFCURVE",
"680 666 CURVE SMOOTH",
"492 666 OFFCURVE",
"373 568 OFFCURVE",
"373 387 CURVE SMOOTH",
"373 274 OFFCURVE",
"416 176 OFFCURVE",
"502 146 CURVE",
"502 86 LINE",
"557 75 LINE",
"563 144 LINE",
"335 98 LINE",
"346 4 LINE"
);
}
);
width = 1200;
},
{
anchors = (
{
name = bottom;
position = "{637, -71}";
},
{
name = top;
position = "{630, 798}";
}
);
layerId = "1F90C004-9C90-48FA-B407-176B3E9F1E65";
paths = (
{
closed = 1;
nodes = (
"963 90 LINE",
"951 262 LINE",
"867 251 OFFCURVE",
"765 238 OFFCURVE",
"693 238 CURVE SMOOTH",
"602 238 OFFCURVE",
"526 260 OFFCURVE",
"526 380 CURVE SMOOTH",
"526 476 OFFCURVE",
"581 509 OFFCURVE",
"710 509 CURVE SMOOTH",
"752 509 OFFCURVE",
"824 503 OFFCURVE",
"871 496 CURVE",
"884 656 LINE",
"837 674 OFFCURVE",
"759 691 OFFCURVE",
"690 691 CURVE SMOOTH",
"492 691 OFFCURVE",
"353 588 OFFCURVE",
"353 397 CURVE SMOOTH",
"353 284 OFFCURVE",
"399 217 OFFCURVE",
"485 187 CURVE",
"485 134 LINE",
"570 123 LINE",
"576 193 LINE",
"332 138 LINE",
"346 -21 LINE"
);
}
);
width = 1200;
},
{
anchors = (
{
name = bottom;
position = "{637, -71}";
},
{
name = top;
position = "{630, 798}";
}
);
layerId = "8E053A5E-67DA-4970-A6F5-068DBFE5AD21";
paths = (
{
closed = 1;
nodes = (
"973 70 LINE",
"961 312 LINE",
"876 302 OFFCURVE",
"769 288 OFFCURVE",
"697 288 CURVE SMOOTH",
"589 288 OFFCURVE",
"540 305 OFFCURVE",
"540 377 CURVE SMOOTH",
"540 437 OFFCURVE",
"591 459 OFFCURVE",
"710 459 CURVE SMOOTH",
"752 459 OFFCURVE",
"826 452 OFFCURVE",
"881 446 CURVE",
"894 676 LINE",
"835 699 OFFCURVE",
"769 711 OFFCURVE",
"690 711 CURVE SMOOTH",
"492 711 OFFCURVE",
"343 607 OFFCURVE",
"343 427 CURVE SMOOTH",
"343 322 OFFCURVE",
"379 258 OFFCURVE",
"465 228 CURVE",
"465 167 LINE",
"560 148 LINE",
"566 228 LINE",
"312 173 LINE",
"336 -41 LINE"
);
}
);
width = 1200;
}
);
unicode = 0621;
}
{
glyphname = "alef-ar";
layers = (
{
anchors = (
{
name = bottom;
position = "{612, -141}";
},
{
name = bottom.dot;
position = "{612, -26}";
},
{
name = top;
position = "{594, 1545}";
}
);
layerId = master01;
paths = (
{
closed = 1;
nodes = (
"654 0 LINE",
"633 1420 LINE",
"541 1420 LINE",
"562 0 LINE"
);
}
);
width = 1200;
},
{
anchors = (
{
name = bottom;
position = "{612, -141}";
},
{
name = bottom.dot;
position = "{612, -26}";
},
{
name = top;
position = "{594, 1545}";
}
);
layerId = "1F90C004-9C90-48FA-B407-176B3E9F1E65";
paths = (
{
closed = 1;
nodes = (
"711 0 LINE",
"690 1420 LINE",
"484 1420 LINE",
"505 0 LINE"
);
}
);
width = 1200;
},
{
anchors = (
{
name = bottom;
position = "{612, -141}";
},
{
name = bottom.dot;
position = "{612, -26}";
},
{
name = top;
position = "{594, 1545}";
}
);
layerId = "8E053A5E-67DA-4970-A6F5-068DBFE5AD21";
paths = (
{
closed = 1;
nodes = (
"745 0 LINE",
"731 1420 LINE",
"457 1420 LINE",
"471 0 LINE"
);
}
);
width = 1200;
}
);
unicode = 0627;
}
{
glyphname = "reh-ar";
layers = (
{
anchors = (
{
name = bottom;
position = "{527, -505}";
},
{
name = bottom.dot;
position = "{527, -420}";
},
{
name = top;
position = "{770, 905}";
},
{
name = top.dot;
position = "{770, 655}";
}
);
layerId = master01;
paths = (
{
closed = 1;
nodes = (
"791 -448 OFFCURVE",
"981 -274 OFFCURVE",
"981 68 CURVE SMOOTH",
"981 215 OFFCURVE",
"926 396 OFFCURVE",
"819 580 CURVE",
"739 535 LINE",
"839 355 OFFCURVE",
"889 183 OFFCURVE",
"889 61 CURVE SMOOTH",
"889 -217 OFFCURVE",
"719 -354 OFFCURVE",
"393 -354 CURVE SMOOTH",
"303 -354 OFFCURVE",
"251 -345 OFFCURVE",
"177 -331 CURVE",
"169 -422 LINE",
"238 -440 OFFCURVE",
"315 -448 OFFCURVE",
"402 -448 CURVE SMOOTH"
);
}
);
width = 1200;
},
{
anchors = (
{
name = bottom;
position = "{487, -515}";
},
{
name = bottom.dot;
position = "{487, -430}";
},
{
name = top;
position = "{730, 905}";
},
{
name = top.dot;
position = "{730, 655}";
}
);
layerId = "1F90C004-9C90-48FA-B407-176B3E9F1E65";
paths = (
{
closed = 1;
nodes = (
"801 -471 OFFCURVE",
"1029 -274 OFFCURVE",
"1029 78 CURVE SMOOTH",
"1029 238 OFFCURVE",
"966 414 OFFCURVE",
"840 619 CURVE",
"659 525 LINE",
"770 323 OFFCURVE",
"819 194 OFFCURVE",
"819 71 CURVE SMOOTH",
"819 -157 OFFCURVE",
"668 -269 OFFCURVE",
"382 -269 CURVE SMOOTH",
"302 -269 OFFCURVE",
"254 -263 OFFCURVE",
"178 -253 CURVE",
"165 -445 LINE",
"239 -465 OFFCURVE",
"305 -471 OFFCURVE",
"412 -471 CURVE SMOOTH"
);
}
);
width = 1200;
},
{
anchors = (
{
name = bottom;
position = "{487, -545}";
},
{
name = bottom.dot;
position = "{487, -460}";
},
{
name = top;
position = "{730, 935}";
},
{
name = top.dot;
position = "{730, 685}";
}
);
layerId = "8E053A5E-67DA-4970-A6F5-068DBFE5AD21";
paths = (
{
closed = 1;
nodes = (
"771 -491 OFFCURVE",
"1049 -304 OFFCURVE",
"1049 78 CURVE SMOOTH",
"1049 258 OFFCURVE",
"975 462 OFFCURVE",
"847 677 CURVE",
"614 554 LINE",
"723 351 OFFCURVE",
"781 205 OFFCURVE",
"781 70 CURVE SMOOTH",
"781 -128 OFFCURVE",
"618 -211 OFFCURVE",
"362 -211 CURVE SMOOTH",
"272 -211 OFFCURVE",
"234 -206 OFFCURVE",
"158 -199 CURVE",
"145 -465 LINE",
"219 -483 OFFCURVE",
"275 -491 OFFCURVE",
"382 -491 CURVE SMOOTH"
);
}
);
width = 1200;
}
);
unicode = 0631;
}
{
glyphname = "seen-ar";
layers = (
{
anchors = (
{
name = bottom;
position = "{785, -141}";
},
{
name = bottom.dot;
position = "{785, -26}";
},
{
name = top;
position = "{781, 945}";
},
{
name = top.dot;
position = "{781, 695}";
}
);
layerId = master01;
paths = (
{
closed = 1;
nodes = (
"454 -335 OFFCURVE",
"551 -211 OFFCURVE",
"551 147 CURVE SMOOTH",
"551 266 OFFCURVE",
"539 447 OFFCURVE",
"528 581 CURVE",
"439 576 LINE",
"450 416 OFFCURVE",
"459 284 OFFCURVE",
"459 133 CURVE SMOOTH",
"459 -161 OFFCURVE",
"396 -241 OFFCURVE",
"276 -241 CURVE SMOOTH",
"169 -241 OFFCURVE",
"122 -180 OFFCURVE",
"122 69 CURVE SMOOTH",
"122 191 OFFCURVE",
"131 311 OFFCURVE",
"146 434 CURVE",
"61 434 LINE",
"41 313 OFFCURVE",
"30 165 OFFCURVE",
"30 39 CURVE SMOOTH",
"30 -215 OFFCURVE",
"97 -335 OFFCURVE",
"272 -335 CURVE SMOOTH"
);
},
{
closed = 1;
nodes = (
"687 -3 OFFCURVE",
"741 7 OFFCURVE",
"762 59 CURVE",
"809 59 LINE",
"820 89 OFFCURVE",
"829 111 OFFCURVE",
"833 168 CURVE SMOOTH",
"841 272 OFFCURVE",
"837 464 OFFCURVE",
"832 604 CURVE",
"740 601 LINE",
"744 452 OFFCURVE",
"750 255 OFFCURVE",
"741 166 CURVE SMOOTH",
"735 109 OFFCURVE",
"702 91 OFFCURVE",
"627 91 CURVE SMOOTH",
"586 91 OFFCURVE",
"557 95 OFFCURVE",
"514 102 CURVE",
"493 11 LINE",
"527 3 OFFCURVE",
"575 -3 OFFCURVE",
"617 -3 CURVE SMOOTH"
);
},
{
closed = 1;
nodes = (
"1069 -3 OFFCURVE",
"1120 71 OFFCURVE",
"1120 272 CURVE SMOOTH",
"1120 376 OFFCURVE",
"1112 482 OFFCURVE",
"1090 621 CURVE",
"1005 614 LINE",
"1021 483 OFFCURVE",
"1028 377 OFFCURVE",
"1028 262 CURVE SMOOTH",
"1028 117 OFFCURVE",
"999 91 OFFCURVE",
"920 91 CURVE SMOOTH",
"880 91 OFFCURVE",
"831 100 OFFCURVE",
"795 139 CURVE",
"759 89 LINE",
"793 19 OFFCURVE",
"850 -3 OFFCURVE",
"925 -3 CURVE SMOOTH"
);
}
);
width = 1200;
},
{
anchors = (
{
name = bottom;
position = "{845, -141}";
},
{
name = bottom.dot;
position = "{845, -26}";
},
{
name = top;
position = "{761, 945}";
},
{
name = top.dot;
position = "{761, 695}";
}
);
layerId = "1F90C004-9C90-48FA-B407-176B3E9F1E65";
paths = (
{
closed = 1;
nodes = (
"510 -357 OFFCURVE",
"561 -201 OFFCURVE",
"561 167 CURVE SMOOTH",
"561 286 OFFCURVE",
"549 467 OFFCURVE",
"538 601 CURVE",
"369 591 LINE",
"380 431 OFFCURVE",
"387 264 OFFCURVE",
"387 113 CURVE SMOOTH",
"387 -101 OFFCURVE",
"362 -153 OFFCURVE",
"283 -153 CURVE SMOOTH",
"206 -153 OFFCURVE",
"186 -108 OFFCURVE",
"186 71 CURVE SMOOTH",
"186 183 OFFCURVE",
"193 318 OFFCURVE",
"200 444 CURVE",
"40 444 LINE",
"23 323 OFFCURVE",
"10 155 OFFCURVE",
"10 29 CURVE SMOOTH",
"10 -225 OFFCURVE",
"78 -357 OFFCURVE",
"285 -357 CURVE SMOOTH"
);
},
{
closed = 1;
nodes = (
"663 -6 OFFCURVE",
"712 17 OFFCURVE",
"733 69 CURVE",
"802 69 LINE",
"825 99 OFFCURVE",
"838 121 OFFCURVE",
"843 178 CURVE SMOOTH",
"853 282 OFFCURVE",
"846 477 OFFCURVE",
"839 617 CURVE",
"673 609 LINE",
"679 470 OFFCURVE",
"684 315 OFFCURVE",
"679 236 CURVE SMOOTH",
"677 201 OFFCURVE",
"662 187 OFFCURVE",
"615 187 CURVE SMOOTH",
"584 187 OFFCURVE",
"567 190 OFFCURVE",
"514 199 CURVE",
"489 4 LINE",
"533 -2 OFFCURVE",
"551 -6 OFFCURVE",
"601 -6 CURVE SMOOTH"
);
},
{
closed = 1;
nodes = (
"1078 -6 OFFCURVE",
"1140 91 OFFCURVE",
"1140 292 CURVE SMOOTH",
"1140 396 OFFCURVE",
"1134 509 OFFCURVE",
"1110 644 CURVE",
"941 627 LINE",
"957 486 OFFCURVE",
"964 377 OFFCURVE",
"964 282 CURVE SMOOTH",
"964 207 OFFCURVE",
"948 187 OFFCURVE",
"896 187 CURVE SMOOTH",
"841 187 OFFCURVE",
"808 199 OFFCURVE",
"768 213 CURVE",
"739 109 LINE",
"772 18 OFFCURVE",
"850 -6 OFFCURVE",
"925 -6 CURVE SMOOTH"
);
}
);
width = 1200;
},
{
anchors = (
{
name = bottom;
position = "{865, -141}";
},
{
name = bottom.dot;
position = "{865, -26}";
},
{
name = top;
position = "{791, 945}";
},
{
name = top.dot;
position = "{791, 695}";
}
);
layerId = "8E053A5E-67DA-4970-A6F5-068DBFE5AD21";
paths = (
{
closed = 1;
nodes = (
"454 -383 OFFCURVE",
"606 -317 OFFCURVE",
"606 106 CURVE SMOOTH",
"606 216 OFFCURVE",
"603 403 OFFCURVE",
"583 605 CURVE",
"371 594 LINE",
"384 434 OFFCURVE",
"389 232 OFFCURVE",
"389 126 CURVE SMOOTH",
"389 -56 OFFCURVE",
"369 -98 OFFCURVE",
"305 -98 CURVE SMOOTH",
"251 -98 OFFCURVE",
"233 -60 OFFCURVE",
"233 74 CURVE SMOOTH",
"233 166 OFFCURVE",
"237 323 OFFCURVE",
"245 452 CURVE",
"54 452 LINE",
"36 320 OFFCURVE",
"26 179 OFFCURVE",
"26 49 CURVE SMOOTH",
"26 -298 OFFCURVE",
"136 -383 OFFCURVE",
"302 -383 CURVE SMOOTH"
);
},
{
closed = 1;
nodes = (
"674 -10 OFFCURVE",
"712 16 OFFCURVE",
"737 72 CURVE",
"816 72 LINE",
"841 115 OFFCURVE",
"872 178 OFFCURVE",
"876 264 CURVE SMOOTH",
"881 373 OFFCURVE",
"880 502 OFFCURVE",
"880 622 CURVE",
"700 618 LINE",
"699 531 OFFCURVE",
"698 445 OFFCURVE",
"697 358 CURVE SMOOTH",
"696 290 OFFCURVE",
"687 275 OFFCURVE",
"636 275 CURVE SMOOTH",
"603 275 OFFCURVE",
"519 286 OFFCURVE",
"465 312 CURVE",
"425 80 LINE",
"468 13 OFFCURVE",
"545 -10 OFFCURVE",
"612 -10 CURVE SMOOTH"
);
},
{
closed = 1;
nodes = (
"1101 -10 OFFCURVE",
"1174 93 OFFCURVE",
"1174 294 CURVE SMOOTH",
"1174 408 OFFCURVE",
"1167 515 OFFCURVE",
"1160 650 CURVE",
"965 636 LINE",
"971 519 OFFCURVE",
"973 430 OFFCURVE",
"973 355 CURVE SMOOTH",
"973 297 OFFCURVE",
"962 275 OFFCURVE",
"915 275 CURVE SMOOTH",
"860 275 OFFCURVE",
"817 297 OFFCURVE",
"752 330 CURVE",
"705 143 LINE",
"776 37 OFFCURVE",
"838 -10 OFFCURVE",
"933 -10 CURVE SMOOTH"
);
}
);
width = 1200;
}
);
unicode = 0633;
}
{
glyphname = "sad-ar";
layers = (
{
anchors = (
{
name = bottom;
position = "{822, -141}";
},
{
name = bottom.dot;
position = "{822, -26}";
},
{
name = top;
position = "{540, 1075}";
},
{
name = top.dot;
position = "{880, 855}";
}
);
layerId = master01;
paths = (
{
closed = 1;
nodes = (
"1081 -7 OFFCURVE",
"1158 97 OFFCURVE",
"1158 364 CURVE SMOOTH",
"1158 570 OFFCURVE",
"1079 766 OFFCURVE",
"949 766 CURVE SMOOTH",
"806 766 OFFCURVE",
"680 535 OFFCURVE",
"549 78 CURVE",
"631 61 LINE",
"745 464 OFFCURVE",
"863 672 OFFCURVE",
"943 672 CURVE SMOOTH",
"1022 672 OFFCURVE",
"1066 490 OFFCURVE",
"1066 364 CURVE SMOOTH",
"1066 163 OFFCURVE",
"1029 87 OFFCURVE",
"783 87 CURVE SMOOTH",
"613 87 OFFCURVE",
"523 109 OFFCURVE",
"470 129 CURVE",
"447 57 LINE",
"530 10 OFFCURVE",
"631 -7 OFFCURVE",
"760 -7 CURVE SMOOTH"
);
},
{
closed = 1;
nodes = (
"444 -335 OFFCURVE",
"531 -211 OFFCURVE",
"531 147 CURVE SMOOTH",
"531 266 OFFCURVE",
"525 341 OFFCURVE",
"514 475 CURVE",
"422 470 LINE",
"433 340 OFFCURVE",
"439 254 OFFCURVE",
"439 133 CURVE SMOOTH",
"439 -161 OFFCURVE",
"396 -241 OFFCURVE",
"266 -241 CURVE SMOOTH",
"169 -241 OFFCURVE",
"122 -180 OFFCURVE",
"122 69 CURVE SMOOTH",
"122 191 OFFCURVE",
"130 298 OFFCURVE",
"146 434 CURVE",
"60 434 LINE",
"41 303 OFFCURVE",
"30 165 OFFCURVE",
"30 39 CURVE SMOOTH",
"30 -215 OFFCURVE",
"97 -335 OFFCURVE",
"262 -335 CURVE SMOOTH"
);
}
);
width = 1200;
},
{
anchors = (
{
name = bottom;
position = "{822, -141}";
},
{
name = bottom.dot;
position = "{822, -26}";
},
{
name = top;
position = "{540, 1075}";
},
{
name = top.dot;
position = "{880, 915}";
}
);
layerId = "1F90C004-9C90-48FA-B407-176B3E9F1E65";
paths = (
{
closed = 1;
nodes = (
"1081 -7 OFFCURVE",
"1178 97 OFFCURVE",
"1178 374 CURVE SMOOTH",
"1178 600 OFFCURVE",
"1074 836 OFFCURVE",
"924 836 CURVE SMOOTH",
"771 836 OFFCURVE",
"660 648 OFFCURVE",
"529 191 CURVE",
"672 134 LINE",
"786 537 OFFCURVE",
"844 624 OFFCURVE",
"899 624 CURVE SMOOTH",
"952 624 OFFCURVE",
"999 490 OFFCURVE",
"999 364 CURVE SMOOTH",
"999 233 OFFCURVE",
"979 203 OFFCURVE",
"783 203 CURVE SMOOTH",
"613 203 OFFCURVE",
"503 225 OFFCURVE",
"450 245 CURVE",
"427 57 LINE",
"510 10 OFFCURVE",
"631 -7 OFFCURVE",
"760 -7 CURVE SMOOTH"
);
},
{
closed = 1;
nodes = (
"496 -357 OFFCURVE",
"551 -221 OFFCURVE",
"551 167 CURVE SMOOTH",
"551 286 OFFCURVE",
"540 388 OFFCURVE",
"531 522 CURVE",
"359 513 LINE",
"370 353 OFFCURVE",
"377 264 OFFCURVE",
"377 113 CURVE SMOOTH",
"377 -121 OFFCURVE",
"355 -153 OFFCURVE",
"275 -153 CURVE SMOOTH",
"198 -153 OFFCURVE",
"186 -108 OFFCURVE",
"186 71 CURVE SMOOTH",
"186 183 OFFCURVE",
"192 317 OFFCURVE",
"200 443 CURVE",
"40 443 LINE",
"22 322 OFFCURVE",
"10 155 OFFCURVE",
"10 29 CURVE SMOOTH",
"10 -225 OFFCURVE",
"57 -357 OFFCURVE",
"264 -357 CURVE SMOOTH"
);
}
);
width = 1200;
},
{
anchors = (
{
name = bottom;
position = "{822, -141}";
},
{
name = bottom.dot;
position = "{822, -26}";
},
{
name = top;
position = "{540, 1075}";
},
{
name = top.dot;
position = "{880, 915}";
}
);
layerId = "8E053A5E-67DA-4970-A6F5-068DBFE5AD21";
paths = (
{
closed = 1;
nodes = (
"1051 -6 OFFCURVE",
"1196 78 OFFCURVE",
"1196 405 CURVE SMOOTH",
"1196 674 OFFCURVE",
"1088 888 OFFCURVE",
"945 888 CURVE SMOOTH",
"827 888 OFFCURVE",
"693 708 OFFCURVE",
"536 235 CURVE",
"702 152 LINE",
"796 453 OFFCURVE",
"868 602 OFFCURVE",
"916 602 CURVE SMOOTH",
"963 602 OFFCURVE",
"989 506 OFFCURVE",
"989 408 CURVE SMOOTH",
"989 308 OFFCURVE",
"962 285 OFFCURVE",
"867 285 CURVE SMOOTH",
"670 285 OFFCURVE",
"601 295 OFFCURVE",
"522 306 CURVE",
"483 22 LINE",
"606 -2 OFFCURVE",
"673 -12 OFFCURVE",
"806 -10 CURVE SMOOTH"
);
},
{
closed = 1;
nodes = (
"439 -383 OFFCURVE",
"546 -277 OFFCURVE",
"546 136 CURVE SMOOTH",
"546 246 OFFCURVE",
"543 333 OFFCURVE",
"523 535 CURVE",
"339 524 LINE",
"352 364 OFFCURVE",
"357 242 OFFCURVE",
"357 136 CURVE SMOOTH",
"357 -56 OFFCURVE",
"335 -98 OFFCURVE",
"276 -98 CURVE SMOOTH",
"227 -98 OFFCURVE",
"201 -70 OFFCURVE",
"201 114 CURVE SMOOTH",
"201 206 OFFCURVE",
"204 323 OFFCURVE",
"215 452 CURVE",
"34 452 LINE",
"16 320 OFFCURVE",
"4 179 OFFCURVE",
"4 49 CURVE SMOOTH",
"4 -268 OFFCURVE",
"104 -383 OFFCURVE",
"270 -383 CURVE SMOOTH"
);
}
);
width = 1200;
}
);
unicode = 0635;
}
{
glyphname = "ain-ar";
layers = (
{
anchors = (
{
name = bottom;
position = "{591, -645}";
},
{
name = bottom.dot;
position = "{592, -606}";
},
{
name = center;
position = "{658, -116}";
},
{
name = top;
position = "{506, 1248}";
},
{
name = top.dot;
position = "{507, 998}";
}
);
layerId = master01;
paths = (
{
closed = 1;
nodes = (
"797 -609 OFFCURVE",
"975 -582 OFFCURVE",
"1104 -543 CURVE",
"1106 -459 LINE",
"972 -488 OFFCURVE",
"821 -515 OFFCURVE",
"648 -515 CURVE SMOOTH",
"285 -515 OFFCURVE",
"166 -430 OFFCURVE",
"166 -219 CURVE SMOOTH",
"166 11 OFFCURVE",
"294 155 OFFCURVE",
"903 299 CURVE",
"891 387 LINE",
"745 353 OFFCURVE",
"629 328 OFFCURVE",
"536 328 CURVE SMOOTH",
"349 328 OFFCURVE",
"248 411 OFFCURVE",
"248 571 CURVE SMOOTH",
"248 742 OFFCURVE",
"344 830 OFFCURVE",
"551 830 CURVE SMOOTH",
"634 830 OFFCURVE",
"716 812 OFFCURVE",
"795 790 CURVE",
"803 872 LINE",
"732 902 OFFCURVE",
"626 924 OFFCURVE",
"533 924 CURVE SMOOTH",
"300 924 OFFCURVE",
"156 797 OFFCURVE",
"156 578 CURVE SMOOTH",
"156 412 OFFCURVE",
"248 289 OFFCURVE",
"409 258 CURVE",
"409 216 LINE",
"445 229 LINE",
"454 264 LINE",
"215 151 OFFCURVE",
"74 18 OFFCURVE",
"74 -216 CURVE SMOOTH",
"74 -536 OFFCURVE",
"298 -609 OFFCURVE",
"628 -609 CURVE SMOOTH"
);
}
);
width = 1200;
},
{
anchors = (
{
name = bottom;
position = "{591, -645}";
},
{
name = bottom.dot;
position = "{592, -606}";
},
{
name = center;
position = "{658, -116}";
},
{
name = top;
position = "{506, 1248}";
},
{
name = top.dot;
position = "{507, 998}";
}
);
layerId = "1F90C004-9C90-48FA-B407-176B3E9F1E65";
paths = (
{
closed = 1;
nodes = (
"797 -639 OFFCURVE",
"987 -604 OFFCURVE",
"1114 -561 CURVE",
"1116 -386 LINE",
"983 -407 OFFCURVE",
"831 -434 OFFCURVE",
"668 -434 CURVE SMOOTH",
"345 -434 OFFCURVE",
"248 -370 OFFCURVE",
"248 -189 CURVE SMOOTH",
"248 -19 OFFCURVE",
"353 130 OFFCURVE",
"916 253 CURVE",
"897 443 LINE",
"764 420 OFFCURVE",
"667 403 OFFCURVE",
"594 403 CURVE SMOOTH",
"423 403 OFFCURVE",
"333 411 OFFCURVE",
"333 571 CURVE SMOOTH",
"333 702 OFFCURVE",
"410 750 OFFCURVE",
"567 750 CURVE SMOOTH",
"645 750 OFFCURVE",
"714 738 OFFCURVE",
"795 720 CURVE",
"812 893 LINE",
"720 929 OFFCURVE",
"636 954 OFFCURVE",
"523 954 CURVE SMOOTH",
"280 954 OFFCURVE",
"126 807 OFFCURVE",
"126 578 CURVE SMOOTH",
"126 412 OFFCURVE",
"199 297 OFFCURVE",
"372 276 CURVE",
"372 250 LINE",
"420 238 LINE",
"419 282 LINE",
"200 176 OFFCURVE",
"54 14 OFFCURVE",
"54 -219 CURVE SMOOTH",
"54 -539 OFFCURVE",
"298 -639 OFFCURVE",
"628 -639 CURVE SMOOTH"
);
}
);
width = 1200;
},
{
anchors = (
{
name = bottom;
position = "{591, -645}";
},
{
name = bottom.dot;
position = "{592, -606}";
},
{
name = center;
position = "{658, -116}";
},
{
name = top;
position = "{506, 1248}";
},
{
name = top.dot;
position = "{507, 998}";
}
);
layerId = "8E053A5E-67DA-4970-A6F5-068DBFE5AD21";
paths = (
{
closed = 1;
nodes = (
"797 -649 OFFCURVE",
"987 -615 OFFCURVE",
"1114 -571 CURVE",
"1116 -306 LINE",
"981 -327 OFFCURVE",
"821 -354 OFFCURVE",
"668 -354 CURVE SMOOTH",
"385 -354 OFFCURVE",
"298 -310 OFFCURVE",
"298 -179 CURVE SMOOTH",
"298 -49 OFFCURVE",
"383 90 OFFCURVE",
"926 203 CURVE",
"907 483 LINE",
"762 456 OFFCURVE",
"677 443 OFFCURVE",
"604 443 CURVE SMOOTH",
"433 443 OFFCURVE",
"393 470 OFFCURVE",
"393 571 CURVE SMOOTH",
"393 662 OFFCURVE",
"450 700 OFFCURVE",
"587 700 CURVE SMOOTH",
"665 700 OFFCURVE",
"744 688 OFFCURVE",
"825 670 CURVE",
"842 913 LINE",
"750 949 OFFCURVE",
"656 974 OFFCURVE",
"543 974 CURVE SMOOTH",
"300 974 OFFCURVE",
"136 807 OFFCURVE",
"136 578 CURVE SMOOTH",
"136 412 OFFCURVE",
"199 314 OFFCURVE",
"372 273 CURVE",
"372 237 LINE",
"440 235 LINE",
"432 285 LINE",
"203 179 OFFCURVE",
"44 14 OFFCURVE",
"44 -219 CURVE SMOOTH",
"44 -539 OFFCURVE",
"298 -649 OFFCURVE",
"628 -649 CURVE SMOOTH"
);
}
);
width = 1200;
}
);
unicode = 0639;
}
{
glyphname = "kashida-ar";
layers = (
{
layerId = master01;
paths = (
{
closed = 1;
nodes = (
"1188 -3 LINE SMOOTH",
"1236 -3 OFFCURVE",
"1265 11 OFFCURVE",
"1265 45 CURVE SMOOTH",
"1265 76 OFFCURVE",
"1251 91 OFFCURVE",
"1200 91 CURVE SMOOTH",
"0 91 LINE",
"-12 -3 LINE"
);
}
);
width = 1200;
},
{
layerId = "1F90C004-9C90-48FA-B407-176B3E9F1E65";
paths = (
{
closed = 1;
nodes = (
"1188 -6 LINE SMOOTH",
"1236 -6 OFFCURVE",
"1275 21 OFFCURVE",
"1275 115 CURVE SMOOTH",
"1275 166 OFFCURVE",
"1251 206 OFFCURVE",
"1200 206 CURVE SMOOTH",
"0 206 LINE",
"-12 -6 LINE"
);
}
);
width = 1200;
},
{
layerId = "8E053A5E-67DA-4970-A6F5-068DBFE5AD21";
paths = (
{
closed = 1;
nodes = (
"1188 -10 LINE SMOOTH",
"1236 -10 OFFCURVE",
"1275 41 OFFCURVE",
"1275 145 CURVE SMOOTH",
"1275 216 OFFCURVE",
"1251 285 OFFCURVE",
"1200 285 CURVE SMOOTH",
"0 285 LINE",
"-12 -10 LINE"
);
}
);
width = 1200;
}
);
unicode = 0640;
}
{
glyphname = "kaf-ar";
layers = (
{
anchors = (
{
name = bottom;
position = "{555, -141}";
},
{
name = bottom.dot;
position = "{555, -26}";
},
{
name = top;
position = "{534, 1087}";
},
{
name = top.dot;
position = "{536, 975}";
}
);
layerId = master01;
paths = (
{
closed = 1;
nodes = (
"983 -3 OFFCURVE",
"1089 94 OFFCURVE",
"1084 403 CURVE SMOOTH",
"1069 1420 LINE",
"977 1420 LINE",
"992 403 LINE SMOOTH",
"996 161 OFFCURVE",
"961 91 OFFCURVE",
"559 91 CURVE SMOOTH",
"159 91 OFFCURVE",
"106 153 OFFCURVE",
"106 344 CURVE SMOOTH",
"106 386 OFFCURVE",
"112 439 OFFCURVE",
"122 506 CURVE",
"37 506 LINE",
"22 440 OFFCURVE",
"14 377 OFFCURVE",
"14 324 CURVE SMOOTH",
"14 75 OFFCURVE",
"121 -3 OFFCURVE",
"539 -3 CURVE SMOOTH"
);
},
{
closed = 1;
nodes = (
"586 519 OFFCURVE",
"688 562 OFFCURVE",
"688 646 CURVE SMOOTH",
"688 695 OFFCURVE",
"665 722 OFFCURVE",
"586 757 CURVE SMOOTH",
"532 781 OFFCURVE",
"493 793 OFFCURVE",
"493 821 CURVE SMOOTH",
"493 860 OFFCURVE",
"566 890 OFFCURVE",
"676 915 CURVE",
"669 999 LINE",
"460 951 OFFCURVE",
"402 876 OFFCURVE",
"402 814 CURVE SMOOTH",
"402 758 OFFCURVE",
"453 723 OFFCURVE",
"514 697 CURVE SMOOTH",
"578 670 OFFCURVE",
"592 662 OFFCURVE",
"592 642 CURVE SMOOTH",
"592 614 OFFCURVE",
"534 604 OFFCURVE",
"466 604 CURVE SMOOTH",
"418 604 OFFCURVE",
"380 610 OFFCURVE",
"329 619 CURVE",
"334 533 LINE",
"370 525 OFFCURVE",
"413 519 OFFCURVE",
"472 519 CURVE SMOOTH"
);
}
);
width = 1200;
},
{
anchors = (
{
name = bottom;
position = "{555, -141}";
},
{
name = bottom.dot;
position = "{555, -26}";
},
{
name = top;
position = "{544, 1087}";
},
{
name = top.dot;
position = "{546, 995}";
}
);
layerId = "1F90C004-9C90-48FA-B407-176B3E9F1E65";
paths = (
{
closed = 1;
nodes = (
"978 -8 OFFCURVE",
"1124 131 OFFCURVE",
"1119 397 CURVE SMOOTH",
"1100 1420 LINE",
"894 1420 LINE",
"921 387 LINE SMOOTH",
"925 247 OFFCURVE",
"874 204 OFFCURVE",
"493 204 CURVE SMOOTH",
"230 204 OFFCURVE",
"199 254 OFFCURVE",
"199 371 CURVE SMOOTH",
"199 432 OFFCURVE",
"206 503 OFFCURVE",
"215 563 CURVE",
"44 563 LINE",
"25 492 OFFCURVE",
"13 396 OFFCURVE",
"13 320 CURVE SMOOTH",
"13 64 OFFCURVE",
"145 -8 OFFCURVE",
"505 -8 CURVE SMOOTH"
);
},
{
closed = 1;
nodes = (
"596 499 OFFCURVE",
"708 545 OFFCURVE",
"708 649 CURVE SMOOTH",
"708 695 OFFCURVE",
"691 731 OFFCURVE",
"614 772 CURVE SMOOTH",
"563 800 OFFCURVE",
"542 811 OFFCURVE",
"542 825 CURVE SMOOTH",
"542 840 OFFCURVE",
"586 861 OFFCURVE",
"696 877 CURVE",
"689 1016 LINE",
"480 979 OFFCURVE",
"401 880 OFFCURVE",
"401 809 CURVE SMOOTH",
"401 760 OFFCURVE",
"428 722 OFFCURVE",
"485 690 CURVE SMOOTH",
"548 655 OFFCURVE",
"562 653 OFFCURVE",
"562 638 CURVE SMOOTH",
"562 627 OFFCURVE",
"544 620 OFFCURVE",
"476 620 CURVE SMOOTH",
"428 620 OFFCURVE",
"382 626 OFFCURVE",
"329 635 CURVE",
"334 513 LINE",
"370 505 OFFCURVE",
"423 499 OFFCURVE",
"482 499 CURVE SMOOTH"
);
}
);
width = 1200;
},
{
anchors = (
{
name = bottom;
position = "{555, -141}";
},
{
name = bottom.dot;
position = "{555, -26}";
},
{
name = top;
position = "{534, 1087}";
},
{
name = top.dot;
position = "{536, 1055}";
}
);
layerId = "8E053A5E-67DA-4970-A6F5-068DBFE5AD21";
paths = (
{
closed = 1;
nodes = (
"978 -10 OFFCURVE",
"1144 131 OFFCURVE",
"1139 397 CURVE SMOOTH",
"1120 1420 LINE",
"854 1420 LINE",
"881 467 LINE SMOOTH",
"885 317 OFFCURVE",
"844 285 OFFCURVE",
"493 285 CURVE SMOOTH",
"280 285 OFFCURVE",
"244 324 OFFCURVE",
"244 441 CURVE SMOOTH",
"244 482 OFFCURVE",
"247 530 OFFCURVE",
"250 572 CURVE",
"28 572 LINE",
"15 518 OFFCURVE",
"3 426 OFFCURVE",
"3 370 CURVE SMOOTH",
"3 114 OFFCURVE",
"145 -10 OFFCURVE",
"505 -10 CURVE SMOOTH"
);
},
{
closed = 1;
nodes = (
"616 511 OFFCURVE",
"728 565 OFFCURVE",
"728 669 CURVE SMOOTH",
"728 715 OFFCURVE",
"711 751 OFFCURVE",
"634 792 CURVE SMOOTH",
"583 820 OFFCURVE",
"575 825 OFFCURVE",
"575 837 CURVE SMOOTH",
"575 848 OFFCURVE",
"606 861 OFFCURVE",
"716 877 CURVE",
"709 1044 LINE",
"480 997 OFFCURVE",
"409 900 OFFCURVE",
"409 829 CURVE SMOOTH",
"409 780 OFFCURVE",
"443 740 OFFCURVE",
"499 704 CURVE SMOOTH",
"542 676 OFFCURVE",
"562 673 OFFCURVE",
"562 658 CURVE SMOOTH",
"562 647 OFFCURVE",
"544 644 OFFCURVE",
"496 644 CURVE SMOOTH",
"448 644 OFFCURVE",
"398 650 OFFCURVE",
"345 659 CURVE",
"350 525 LINE",
"386 517 OFFCURVE",
"443 511 OFFCURVE",
"502 511 CURVE SMOOTH"
);
}
);
width = 1200;
}
);
unicode = 0643;
}
{
glyphname = "lam-ar";
layers = (
{
anchors = (
{
name = bottom;
position = "{532, -407}";
},
{
name = bottom.dot;
position = "{533, -337}";
},
{
name = center;
position = "{947, 951}";
},
{
name = top;
position = "{934, 1545}";
},
{
name = top.dot;
position = "{937, 1467}";
}
);
layerId = master01;
paths = (
{
closed = 1;
nodes = (
"849 -335 OFFCURVE",
"1013 -221 OFFCURVE",
"1006 167 CURVE SMOOTH",
"983 1420 LINE",
"888 1420 LINE",
"914 153 LINE SMOOTH",
"920 -131 OFFCURVE",
"831 -241 OFFCURVE",
"551 -241 CURVE SMOOTH",
"264 -241 OFFCURVE",
"157 -170 OFFCURVE",
"157 79 CURVE SMOOTH",
"157 221 OFFCURVE",
"183 348 OFFCURVE",
"201 464 CURVE",
"115 464 LINE",
"92 343 OFFCURVE",
"65 215 OFFCURVE",
"65 69 CURVE SMOOTH",
"65 -195 OFFCURVE",
"182 -335 OFFCURVE",
"537 -335 CURVE SMOOTH"
);
}
);
width = 1200;
},
{
anchors = (
{
name = bottom;
position = "{552, -407}";
},
{
name = bottom.dot;
position = "{553, -337}";
},
{
name = center;
position = "{967, 951}";
},
{
name = top;
position = "{954, 1545}";
},
{
name = top.dot;
position = "{957, 1467}";
}
);
layerId = "1F90C004-9C90-48FA-B407-176B3E9F1E65";
paths = (
{
closed = 1;
nodes = (
"938 -357 OFFCURVE",
"1097 -184 OFFCURVE",
"1085 268 CURVE SMOOTH",
"1055 1420 LINE",
"849 1420 LINE",
"881 151 LINE SMOOTH",
"886 -49 OFFCURVE",
"846 -145 OFFCURVE",
"577 -145 CURVE SMOOTH",
"345 -145 OFFCURVE",
"265 -71 OFFCURVE",
"265 132 CURVE SMOOTH",
"265 234 OFFCURVE",
"282 338 OFFCURVE",
"311 484 CURVE",
"133 484 LINE",
"89 346 OFFCURVE",
"69 225 OFFCURVE",
"69 95 CURVE SMOOTH",
"69 -202 OFFCURVE",
"216 -357 OFFCURVE",
"555 -357 CURVE SMOOTH"
);
}
);
width = 1200;
},
{
anchors = (
{
name = bottom;
position = "{562, -407}";
},
{
name = bottom.dot;
position = "{563, -337}";
},
{
name = center;
position = "{917, 951}";
},
{
name = top;
position = "{904, 1545}";
},
{
name = top.dot;
position = "{907, 1467}";
}
);
layerId = "8E053A5E-67DA-4970-A6F5-068DBFE5AD21";
paths = (
{
closed = 1;
nodes = (
"908 -377 OFFCURVE",
"1080 -194 OFFCURVE",
"1069 238 CURVE SMOOTH",
"1038 1420 LINE",
"764 1420 LINE",
"803 151 LINE SMOOTH",
"809 -39 OFFCURVE",
"786 -92 OFFCURVE",
"567 -92 CURVE SMOOTH",
"365 -92 OFFCURVE",
"305 -31 OFFCURVE",
"305 132 CURVE SMOOTH",
"305 234 OFFCURVE",
"321 359 OFFCURVE",
"351 495 CURVE",
"123 495 LINE",
"71 334 OFFCURVE",
"49 205 OFFCURVE",
"49 75 CURVE SMOOTH",
"49 -222 OFFCURVE",
"216 -377 OFFCURVE",
"565 -377 CURVE SMOOTH"
);
}
);
width = 1200;
}
);
unicode = 0644;
}
{
glyphname = "meem-ar";
layers = (
{
anchors = (
{
name = bottom;
position = "{672, -141}";
},
{
name = bottom.dot;
position = "{672, -26}";
},
{
name = top;
position = "{616, 1104}";
},
{
name = top.dot;
position = "{613, 804}";
}
);
layerId = master01;
paths = (
{
closed = 1;
nodes = (
"261 -654 LINE",
"255 -192 LINE SMOOTH",
"253 -67 OFFCURVE",
"301 -3 OFFCURVE",
"488 -3 CURVE SMOOTH",
"604 -3 OFFCURVE",
"819 -8 OFFCURVE",
"982 -11 CURVE",
"1023 107 LINE",
"883 471 OFFCURVE",
"785 639 OFFCURVE",
"631 639 CURVE SMOOTH",
"446 639 OFFCURVE",
"362 345 OFFCURVE",
"288 37 CURVE",
"373 19 LINE",
"441 291 OFFCURVE",
"505 545 OFFCURVE",
"620 545 CURVE SMOOTH",
"736 545 OFFCURVE",
"824 349 OFFCURVE",
"953 47 CURVE",
"977 82 LINE",
"852 84 OFFCURVE",
"610 91 OFFCURVE",
"466 91 CURVE SMOOTH",
"241 91 OFFCURVE",
"157 -10 OFFCURVE",
"161 -223 CURVE SMOOTH",
"169 -654 LINE"
);
}
);
width = 1200;
},
{
anchors = (
{
name = bottom;
position = "{682, -141}";
},
{
name = bottom.dot;
position = "{682, -26}";
},
{
name = top;
position = "{626, 1104}";
},
{
name = top.dot;
position = "{623, 804}";
}
);
layerId = "1F90C004-9C90-48FA-B407-176B3E9F1E65";
paths = (
{
closed = 1;
nodes = (
"329 -654 LINE",
"323 -172 LINE SMOOTH",
"321 -47 OFFCURVE",
"361 -6 OFFCURVE",
"468 -6 CURVE SMOOTH",
"584 -6 OFFCURVE",
"839 -8 OFFCURVE",
"1002 -11 CURVE",
"1063 177 LINE",
"901 581 OFFCURVE",
"791 739 OFFCURVE",
"627 739 CURVE SMOOTH",
"462 739 OFFCURVE",
"334 485 OFFCURVE",
"270 137 CURVE",
"419 119 LINE",
"474 362 OFFCURVE",
"530 527 OFFCURVE",
"619 527 CURVE SMOOTH",
"709 527 OFFCURVE",
"780 369 OFFCURVE",
"879 147 CURVE",
"927 200 LINE",
"802 202 OFFCURVE",
"610 206 OFFCURVE",
"466 206 CURVE SMOOTH",
"221 206 OFFCURVE",
"124 90 OFFCURVE",
"127 -123 CURVE SMOOTH",
"135 -654 LINE"
);
}
);
width = 1200;
},
{
anchors = (
{
name = bottom;
position = "{702, -141}";
},
{
name = bottom.dot;
position = "{702, -26}";
},
{
name = top;
position = "{646, 1104}";
},
{
name = top.dot;
position = "{643, 804}";
}
);
layerId = "8E053A5E-67DA-4970-A6F5-068DBFE5AD21";
paths = (
{
closed = 1;
nodes = (
"369 -654 LINE",
"363 -172 LINE SMOOTH",
"361 -47 OFFCURVE",
"401 -10 OFFCURVE",
"488 -10 CURVE SMOOTH",
"604 -10 OFFCURVE",
"849 -11 OFFCURVE",
"1012 -14 CURVE",
"1083 217 LINE",
"921 621 OFFCURVE",
"801 759 OFFCURVE",
"637 759 CURVE SMOOTH",
"470 759 OFFCURVE",
"334 515 OFFCURVE",
"260 137 CURVE",
"449 119 LINE",
"504 362 OFFCURVE",
"550 487 OFFCURVE",
"619 487 CURVE SMOOTH",
"689 487 OFFCURVE",
"752 369 OFFCURVE",
"851 147 CURVE",
"927 280 LINE",
"802 282 OFFCURVE",
"610 285 OFFCURVE",
"466 285 CURVE SMOOTH",
"221 285 OFFCURVE",
"113 140 OFFCURVE",
"117 -123 CURVE SMOOTH",
"125 -654 LINE"
);
}
);
width = 1200;
}
);
unicode = 0645;
}
{
glyphname = "heh-ar";
layers = (
{
anchors = (
{
name = bottom;
position = "{605, -141}";
},
{
name = top;
position = "{592, 1190}";
},
{
name = top.dot;
position = "{599, 940}";
}
);
layerId = master01;
paths = (
{
closed = 1;
nodes = (
"858 -3 OFFCURVE",
"972 105 OFFCURVE",
"972 289 CURVE SMOOTH",
"972 465 OFFCURVE",
"866 657 OFFCURVE",
"503 850 CURVE",
"454 771 LINE",
"809 583 OFFCURVE",
"880 418 OFFCURVE",
"880 287 CURVE SMOOTH",
"880 151 OFFCURVE",
"783 91 OFFCURVE",
"593 91 CURVE SMOOTH",
"411 91 OFFCURVE",
"320 140 OFFCURVE",
"320 267 CURVE SMOOTH",
"320 422 OFFCURVE",
"409 547 OFFCURVE",
"625 708 CURVE",
"540 753 LINE",
"307 566 OFFCURVE",
"228 420 OFFCURVE",
"228 261 CURVE SMOOTH",
"228 101 OFFCURVE",
"316 -3 OFFCURVE",
"585 -3 CURVE SMOOTH"
);
}
);
width = 1200;
},
{
anchors = (
{
name = bottom;
position = "{605, -141}";
},
{
name = top;
position = "{592, 1190}";
},
{
name = top.dot;
position = "{599, 940}";
}
);
layerId = "1F90C004-9C90-48FA-B407-176B3E9F1E65";
paths = (
{
closed = 1;
nodes = (
"858 -6 OFFCURVE",
"992 125 OFFCURVE",
"992 349 CURVE SMOOTH",
"992 554 OFFCURVE",
"849 727 OFFCURVE",
"486 910 CURVE",
"380 736 LINE",
"725 564 OFFCURVE",
"794 468 OFFCURVE",
"794 357 CURVE SMOOTH",
"794 261 OFFCURVE",
"743 206 OFFCURVE",
"593 206 CURVE SMOOTH",
"461 206 OFFCURVE",
"413 250 OFFCURVE",
"413 337 CURVE SMOOTH",
"413 432 OFFCURVE",
"508 569 OFFCURVE",
"648 668 CURVE",
"520 783 LINE",
"287 596 OFFCURVE",
"208 433 OFFCURVE",
"208 304 CURVE SMOOTH",
"208 130 OFFCURVE",
"316 -6 OFFCURVE",
"585 -6 CURVE SMOOTH"
);
}
);
width = 1200;
},
{
anchors = (
{
name = bottom;
position = "{605, -141}";
},
{
name = top;
position = "{592, 1190}";
},
{
name = top.dot;
position = "{599, 940}";
}
);
layerId = "8E053A5E-67DA-4970-A6F5-068DBFE5AD21";
paths = (
{
closed = 1;
nodes = (
"878 -10 OFFCURVE",
"1002 125 OFFCURVE",
"1002 339 CURVE SMOOTH",
"1002 544 OFFCURVE",
"904 749 OFFCURVE",
"481 942 CURVE",
"345 706 LINE",
"690 544 OFFCURVE",
"754 458 OFFCURVE",
"754 367 CURVE SMOOTH",
"754 304 OFFCURVE",
"713 285 OFFCURVE",
"593 285 CURVE SMOOTH",
"471 285 OFFCURVE",
"443 310 OFFCURVE",
"443 367 CURVE SMOOTH",
"443 431 OFFCURVE",
"499 519 OFFCURVE",
"638 598 CURVE",
"523 793 LINE",
"280 606 OFFCURVE",
"198 433 OFFCURVE",
"198 304 CURVE SMOOTH",
"198 120 OFFCURVE",
"296 -10 OFFCURVE",
"585 -10 CURVE SMOOTH"
);
}
);
width = 1200;
}
);
unicode = 0647;
}
{
glyphname = "waw-ar";
layers = (
{
anchors = (
{
name = bottom;
position = "{487, -565}";
},
{
name = bottom.dot;
position = "{487, -470}";
},
{
name = top;
position = "{663, 900}";
},
{
name = top.dot;
position = "{670, 770}";
}
);
layerId = master01;
paths = (
{
closed = 1;
nodes = (
"823 -445 OFFCURVE",
"1000 -253 OFFCURVE",
"1000 145 CURVE SMOOTH",
"1000 487 OFFCURVE",
"877 668 OFFCURVE",
"683 668 CURVE SMOOTH",
"491 668 OFFCURVE",
"380 502 OFFCURVE",
"380 316 CURVE SMOOTH",
"380 123 OFFCURVE",
"457 34 OFFCURVE",
"654 34 CURVE SMOOTH",
"806 34 OFFCURVE",
"858 66 OFFCURVE",
"889 106 CURVE",
"948 109 LINE",
"952 175 LINE",
"875 155 OFFCURVE",
"785 128 OFFCURVE",
"687 128 CURVE SMOOTH",
"525 128 OFFCURVE",
"472 183 OFFCURVE",
"472 316 CURVE SMOOTH",
"472 455 OFFCURVE",
"543 574 OFFCURVE",
"676 574 CURVE SMOOTH",
"825 574 OFFCURVE",
"908 412 OFFCURVE",
"908 138 CURVE SMOOTH",
"908 -176 OFFCURVE",
"785 -351 OFFCURVE",
"435 -351 CURVE SMOOTH",
"350 -351 OFFCURVE",
"274 -342 OFFCURVE",
"180 -318 CURVE",
"175 -406 LINE",
"249 -434 OFFCURVE",
"339 -445 OFFCURVE",
"421 -445 CURVE SMOOTH"
);
}
);
width = 1200;
},
{
anchors = (
{
name = bottom;
position = "{487, -565}";
},
{
name = bottom.dot;
position = "{487, -470}";
},
{
name = top;
position = "{663, 900}";
},
{
name = top.dot;
position = "{670, 770}";
}
);
layerId = "1F90C004-9C90-48FA-B407-176B3E9F1E65";
paths = (
{
closed = 1;
nodes = (
"820 -480 OFFCURVE",
"1031 -251 OFFCURVE",
"1031 157 CURVE SMOOTH",
"1031 502 OFFCURVE",
"916 718 OFFCURVE",
"680 718 CURVE SMOOTH",
"479 718 OFFCURVE",
"351 529 OFFCURVE",
"351 307 CURVE SMOOTH",
"351 98 OFFCURVE",
"416 -6 OFFCURVE",
"649 -6 CURVE SMOOTH",
"755 -6 OFFCURVE",
"796 26 OFFCURVE",
"826 85 CURVE",
"938 85 LINE",
"948 244 LINE",
"842 217 OFFCURVE",
"780 203 OFFCURVE",
"693 203 CURVE SMOOTH",
"558 203 OFFCURVE",
"527 228 OFFCURVE",
"527 328 CURVE SMOOTH",
"527 435 OFFCURVE",
"585 506 OFFCURVE",
"677 506 CURVE SMOOTH",
"799 506 OFFCURVE",
"855 403 OFFCURVE",
"855 144 CURVE SMOOTH",
"855 -173 OFFCURVE",
"680 -278 OFFCURVE",
"408 -278 CURVE SMOOTH",
"318 -278 OFFCURVE",
"253 -268 OFFCURVE",
"175 -252 CURVE",
"160 -434 LINE",
"229 -463 OFFCURVE",
"331 -480 OFFCURVE",
"426 -480 CURVE SMOOTH"
);
}
);
width = 1200;
},
{
anchors = (
{
name = bottom;
position = "{487, -565}";
},
{
name = bottom.dot;
position = "{487, -470}";
},
{
name = top;
position = "{663, 900}";
},
{
name = top.dot;
position = "{670, 770}";
}
);
layerId = "8E053A5E-67DA-4970-A6F5-068DBFE5AD21";
paths = (
{
closed = 1;
nodes = (
"820 -490 OFFCURVE",
"1041 -301 OFFCURVE",
"1041 147 CURVE SMOOTH",
"1041 522 OFFCURVE",
"916 728 OFFCURVE",
"680 728 CURVE SMOOTH",
"479 728 OFFCURVE",
"341 529 OFFCURVE",
"341 307 CURVE SMOOTH",
"341 98 OFFCURVE",
"406 -10 OFFCURVE",
"629 -10 CURVE SMOOTH",
"725 -10 OFFCURVE",
"775 15 OFFCURVE",
"798 55 CURVE",
"915 55 LINE",
"928 294 LINE",
"823 269 OFFCURVE",
"761 253 OFFCURVE",
"673 253 CURVE SMOOTH",
"558 253 OFFCURVE",
"537 280 OFFCURVE",
"537 334 CURVE SMOOTH",
"537 405 OFFCURVE",
"583 456 OFFCURVE",
"665 456 CURVE SMOOTH",
"748 456 OFFCURVE",
"835 395 OFFCURVE",
"835 144 CURVE SMOOTH",
"835 -153 OFFCURVE",
"680 -228 OFFCURVE",
"408 -228 CURVE SMOOTH",
"318 -228 OFFCURVE",
"253 -218 OFFCURVE",
"175 -202 CURVE",
"160 -444 LINE",
"229 -473 OFFCURVE",
"331 -490 OFFCURVE",
"426 -490 CURVE SMOOTH"
);
}
);
width = 1200;
}
);
unicode = 0648;
}
{
glyphname = "alefMaksura-ar";
layers = (
{
anchors = (
{
name = bottom;
position = "{585, -399}";
},
{
name = bottom.dot;
position = "{585, -286}";
},
{
name = top;
position = "{291, 656}";
},
{
name = top.dot;
position = "{184, 440}";
}
);
layerId = master01;
paths = (
{
closed = 1;
nodes = (
"877 -326 OFFCURVE",
"1108 -188 OFFCURVE",
"1108 5 CURVE SMOOTH",
"1108 115 OFFCURVE",
"1066 177 OFFCURVE",
"849 228 CURVE SMOOTH",
"648 275 OFFCURVE",
"621 313 OFFCURVE",
"621 401 CURVE SMOOTH",
"621 530 OFFCURVE",
"706 687 OFFCURVE",
"920 687 CURVE SMOOTH",
"992 687 OFFCURVE",
"1052 673 OFFCURVE",
"1109 649 CURVE",
"1127 732 LINE",
"1081 758 OFFCURVE",
"1010 781 OFFCURVE",
"926 781 CURVE SMOOTH",
"662 781 OFFCURVE",
"529 574 OFFCURVE",
"529 387 CURVE SMOOTH",
"529 249 OFFCURVE",
"599 182 OFFCURVE",
"786 143 CURVE SMOOTH",
"997 99 OFFCURVE",
"1016 59 OFFCURVE",
"1016 -12 CURVE SMOOTH",
"1016 -134 OFFCURVE",
"821 -232 OFFCURVE",
"581 -232 CURVE SMOOTH",
"212 -232 OFFCURVE",
"146 -126 OFFCURVE",
"146 107 CURVE SMOOTH",
"146 198 OFFCURVE",
"157 267 OFFCURVE",
"180 379 CURVE",
"96 379 LINE",
"65 270 OFFCURVE",
"54 170 OFFCURVE",
"54 67 CURVE SMOOTH",
"54 -225 OFFCURVE",
"220 -326 OFFCURVE",
"561 -326 CURVE SMOOTH"
);
}
);
width = 1200;
},
{
anchors = (
{
name = bottom;
position = "{585, -399}";
},
{
name = bottom.dot;
position = "{585, -326}";
},
{
name = top;
position = "{291, 656}";
},
{
name = top.dot;
position = "{184, 440}";
}
);
layerId = "1F90C004-9C90-48FA-B407-176B3E9F1E65";
paths = (
{
closed = 1;
nodes = (
"937 -356 OFFCURVE",
"1138 -159 OFFCURVE",
"1138 49 CURVE SMOOTH",
"1138 155 OFFCURVE",
"1103 223 OFFCURVE",
"899 278 CURVE SMOOTH",
"727 324 OFFCURVE",
"686 341 OFFCURVE",
"686 409 CURVE SMOOTH",
"686 489 OFFCURVE",
"773 601 OFFCURVE",
"937 601 CURVE SMOOTH",
"1009 601 OFFCURVE",
"1058 581 OFFCURVE",
"1106 554 CURVE",
"1147 749 LINE",
"1093 787 OFFCURVE",
"1032 813 OFFCURVE",
"940 813 CURVE SMOOTH",
"676 813 OFFCURVE",
"489 587 OFFCURVE",
"489 367 CURVE SMOOTH",
"489 219 OFFCURVE",
"565 152 OFFCURVE",
"754 111 CURVE SMOOTH",
"906 78 OFFCURVE",
"940 60 OFFCURVE",
"940 14 CURVE SMOOTH",
"940 -69 OFFCURVE",
"809 -145 OFFCURVE",
"571 -145 CURVE SMOOTH",
"308 -145 OFFCURVE",
"229 -86 OFFCURVE",
"229 107 CURVE SMOOTH",
"229 198 OFFCURVE",
"240 266 OFFCURVE",
"258 379 CURVE",
"80 379 LINE",
"46 270 OFFCURVE",
"34 170 OFFCURVE",
"34 67 CURVE SMOOTH",
"34 -235 OFFCURVE",
"210 -356 OFFCURVE",
"551 -356 CURVE SMOOTH"
);
}
);
width = 1200;
},
{
anchors = (
{
name = bottom;
position = "{585, -399}";
},
{
name = bottom.dot;
position = "{585, -336}";
},
{
name = top;
position = "{291, 656}";
},
{
name = top.dot;
position = "{184, 440}";
}
);
layerId = "8E053A5E-67DA-4970-A6F5-068DBFE5AD21";
paths = (
{
closed = 1;
nodes = (
"957 -366 OFFCURVE",
"1152 -173 OFFCURVE",
"1152 65 CURVE SMOOTH",
"1152 181 OFFCURVE",
"1112 256 OFFCURVE",
"899 315 CURVE SMOOTH",
"737 360 OFFCURVE",
"721 371 OFFCURVE",
"721 409 CURVE SMOOTH",
"721 469 OFFCURVE",
"795 538 OFFCURVE",
"925 538 CURVE SMOOTH",
"997 538 OFFCURVE",
"1059 516 OFFCURVE",
"1106 491 CURVE",
"1147 769 LINE",
"1093 807 OFFCURVE",
"1030 833 OFFCURVE",
"938 833 CURVE SMOOTH",
"664 833 OFFCURVE",
"469 567 OFFCURVE",
"469 337 CURVE SMOOTH",
"469 209 OFFCURVE",
"511 138 OFFCURVE",
"724 77 CURVE SMOOTH",
"848 41 OFFCURVE",
"900 33 OFFCURVE",
"900 -1 CURVE SMOOTH",
"900 -41 OFFCURVE",
"799 -71 OFFCURVE",
"601 -71 CURVE SMOOTH",
"318 -71 OFFCURVE",
"269 -26 OFFCURVE",
"269 127 CURVE SMOOTH",
"269 218 OFFCURVE",
"280 266 OFFCURVE",
"298 379 CURVE",
"70 379 LINE",
"36 270 OFFCURVE",
"24 170 OFFCURVE",
"24 67 CURVE SMOOTH",
"24 -235 OFFCURVE",
"180 -366 OFFCURVE",
"541 -366 CURVE SMOOTH"
);
}
);
width = 1200;
}
);
unicode = 0649;
}
{
glyphname = "shadda-ar";
layers = (
{
anchors = (
{
name = _top;
position = "{611, 1092}";
},
{
name = top;
position = "{592, 1485}";
}
);
layerId = master01;
paths = (
{
closed = 1;
nodes = (
"555 1152 OFFCURVE",
"622 1208 OFFCURVE",
"622 1327 CURVE",
"593 1322 LINE",
"593 1238 OFFCURVE",
"642 1206 OFFCURVE",
"694 1206 CURVE SMOOTH",
"771 1206 OFFCURVE",
"827 1261 OFFCURVE",
"827 1371 CURVE SMOOTH",
"827 1416 OFFCURVE",
"820 1467 OFFCURVE",
"810 1510 CURVE",
"740 1487 LINE",
"743 1449 OFFCURVE",
"747 1420 OFFCURVE",
"747 1373 CURVE SMOOTH",
"747 1318 OFFCURVE",
"730 1295 OFFCURVE",
"685 1295 CURVE SMOOTH",
"649 1295 OFFCURVE",
"643 1321 OFFCURVE",
"642 1369 CURVE SMOOTH",
"641 1460 LINE",
"565 1440 LINE",
"563 1355 LINE SMOOTH",
"561 1271 OFFCURVE",
"538 1247 OFFCURVE",
"497 1247 CURVE SMOOTH",
"466 1247 OFFCURVE",
"454 1269 OFFCURVE",
"454 1313 CURVE SMOOTH",
"454 1351 OFFCURVE",
"456 1380 OFFCURVE",
"458 1414 CURVE",
"383 1391 LINE",
"377 1358 OFFCURVE",
"374 1320 OFFCURVE",
"374 1295 CURVE SMOOTH",
"374 1201 OFFCURVE",
"408 1152 OFFCURVE",
"480 1152 CURVE SMOOTH"
);
}
);
width = 1200;
},
{
anchors = (
{
name = _top;
position = "{611, 1092}";
},
{
name = top;
position = "{592, 1485}";
}
);
layerId = "1F90C004-9C90-48FA-B407-176B3E9F1E65";
paths = (
{
closed = 1;
nodes = (
"549 1142 OFFCURVE",
"622 1198 OFFCURVE",
"622 1307 CURVE",
"595 1312 LINE",
"595 1228 OFFCURVE",
"645 1196 OFFCURVE",
"697 1196 CURVE SMOOTH",
"782 1196 OFFCURVE",
"838 1261 OFFCURVE",
"838 1371 CURVE SMOOTH",
"838 1416 OFFCURVE",
"831 1475 OFFCURVE",
"821 1518 CURVE",
"719 1489 LINE",
"722 1451 OFFCURVE",
"726 1420 OFFCURVE",
"726 1382 CURVE SMOOTH",
"726 1347 OFFCURVE",
"716 1320 OFFCURVE",
"686 1320 CURVE SMOOTH",
"666 1320 OFFCURVE",
"654 1336 OFFCURVE",
"654 1374 CURVE SMOOTH",
"653 1468 LINE",
"549 1444 LINE",
"547 1375 LINE SMOOTH",
"545 1297 OFFCURVE",
"528 1272 OFFCURVE",
"498 1272 CURVE SMOOTH",
"474 1272 OFFCURVE",
"466 1294 OFFCURVE",
"466 1328 CURVE SMOOTH",
"466 1356 OFFCURVE",
"468 1388 OFFCURVE",
"470 1421 CURVE",
"373 1398 LINE",
"366 1362 OFFCURVE",
"364 1330 OFFCURVE",
"364 1305 CURVE SMOOTH",
"364 1211 OFFCURVE",
"398 1142 OFFCURVE",
"491 1142 CURVE SMOOTH"
);
}
);
width = 1200;
},
{
anchors = (
{
name = _top;
position = "{611, 1092}";
},
{
name = top;
position = "{592, 1485}";
}
);
layerId = "8E053A5E-67DA-4970-A6F5-068DBFE5AD21";
paths = (
{
closed = 1;
nodes = (
"550 1136 OFFCURVE",
"623 1184 OFFCURVE",
"623 1293 CURVE",
"592 1298 LINE",
"592 1214 OFFCURVE",
"645 1190 OFFCURVE",
"697 1190 CURVE SMOOTH",
"792 1190 OFFCURVE",
"844 1261 OFFCURVE",
"844 1371 CURVE SMOOTH",
"844 1416 OFFCURVE",
"837 1480 OFFCURVE",
"827 1523 CURVE",
"711 1491 LINE",
"714 1453 OFFCURVE",
"716 1425 OFFCURVE",
"716 1387 CURVE SMOOTH",
"716 1350 OFFCURVE",
"706 1340 OFFCURVE",
"686 1340 CURVE SMOOTH",
"667 1340 OFFCURVE",
"660 1349 OFFCURVE",
"660 1374 CURVE SMOOTH",
"659 1473 LINE",
"543 1449 LINE",
"541 1375 LINE SMOOTH",
"539 1309 OFFCURVE",
"529 1292 OFFCURVE",
"502 1292 CURVE SMOOTH",
"480 1292 OFFCURVE",
"476 1307 OFFCURVE",
"476 1336 CURVE SMOOTH",
"476 1363 OFFCURVE",
"479 1393 OFFCURVE",
"480 1426 CURVE",
"367 1403 LINE",
"360 1367 OFFCURVE",
"358 1330 OFFCURVE",
"358 1305 CURVE SMOOTH",
"358 1211 OFFCURVE",
"382 1136 OFFCURVE",
"485 1136 CURVE SMOOTH"
);
}
);
width = 1200;
}
);
unicode = 0651;
}
{
glyphname = "sukun-ar";
layers = (
{
anchors = (
{
name = _top;
position = "{601, 1054}";
},
{
name = top;
position = "{593, 1487}";
}
);
layerId = master01;
paths = (
{
closed = 1;
nodes = (
"700 1138 OFFCURVE",
"774 1189 OFFCURVE",
"774 1308 CURVE SMOOTH",
"774 1425 OFFCURVE",
"705 1484 OFFCURVE",
"605 1484 CURVE SMOOTH",
"497 1484 OFFCURVE",
"430 1407 OFFCURVE",
"430 1298 CURVE SMOOTH",
"430 1191 OFFCURVE",
"488 1138 OFFCURVE",
"597 1138 CURVE SMOOTH"
);
},
{
closed = 1;
nodes = (
"540 1222 OFFCURVE",
"512 1253 OFFCURVE",
"512 1304 CURVE SMOOTH",
"512 1357 OFFCURVE",
"540 1395 OFFCURVE",
"603 1395 CURVE SMOOTH",
"659 1395 OFFCURVE",
"692 1363 OFFCURVE",
"692 1305 CURVE SMOOTH",
"692 1248 OFFCURVE",
"660 1222 OFFCURVE",
"597 1222 CURVE SMOOTH"
);
}
);
width = 1200;
},
{
anchors = (
{
name = _top;
position = "{601, 1054}";
},
{
name = top;
position = "{593, 1487}";
}
);
layerId = "1F90C004-9C90-48FA-B407-176B3E9F1E65";
paths = (
{
closed = 1;
nodes = (
"702 1132 OFFCURVE",
"780 1191 OFFCURVE",
"780 1301 CURVE SMOOTH",
"780 1421 OFFCURVE",
"690 1490 OFFCURVE",
"605 1490 CURVE SMOOTH",
"494 1490 OFFCURVE",
"424 1398 OFFCURVE",
"424 1298 CURVE SMOOTH",
"424 1191 OFFCURVE",
"493 1132 OFFCURVE",
"601 1132 CURVE SMOOTH"
);
},
{
closed = 1;
nodes = (
"556 1243 OFFCURVE",
"526 1263 OFFCURVE",
"526 1303 CURVE SMOOTH",
"526 1345 OFFCURVE",
"556 1382 OFFCURVE",
"599 1382 CURVE SMOOTH",
"639 1382 OFFCURVE",
"671 1350 OFFCURVE",
"671 1305 CURVE SMOOTH",
"671 1260 OFFCURVE",
"637 1243 OFFCURVE",
"597 1243 CURVE SMOOTH"
);
}
);
width = 1200;
},
{
anchors = (
{
name = _top;
position = "{601, 1054}";
},
{
name = top;
position = "{593, 1487}";
}
);
layerId = "8E053A5E-67DA-4970-A6F5-068DBFE5AD21";
paths = (
{
closed = 1;
nodes = (
"707 1123 OFFCURVE",
"789 1185 OFFCURVE",
"789 1301 CURVE SMOOTH",
"789 1426 OFFCURVE",
"694 1499 OFFCURVE",
"605 1499 CURVE SMOOTH",
"489 1499 OFFCURVE",
"415 1402 OFFCURVE",
"415 1297 CURVE SMOOTH",
"415 1185 OFFCURVE",
"488 1123 OFFCURVE",
"601 1123 CURVE SMOOTH"
);
},
{
closed = 1;
nodes = (
"562 1253 OFFCURVE",
"537 1271 OFFCURVE",
"537 1305 CURVE SMOOTH",
"537 1340 OFFCURVE",
"562 1372 OFFCURVE",
"599 1372 CURVE SMOOTH",
"633 1372 OFFCURVE",
"660 1345 OFFCURVE",
"660 1306 CURVE SMOOTH",
"660 1268 OFFCURVE",
"632 1253 OFFCURVE",
"597 1253 CURVE SMOOTH"
);
}
);
width = 1200;
}
);
unicode = 0652;
}
{
glyphname = "madda-ar";
layers = (
{
anchors = (
{
name = _top;
position = "{603, 1140}";
},
{
name = _top.dot;
position = "{603, 1123}";
},
{
name = top;
position = "{603, 1455}";
}
);
layerId = master01;
paths = (
{
closed = 1;
nodes = (
"758 1204 OFFCURVE",
"845 1236 OFFCURVE",
"909 1291 CURVE",
"899 1379 LINE",
"825 1332 OFFCURVE",
"766 1298 OFFCURVE",
"691 1298 CURVE SMOOTH",
"598 1298 OFFCURVE",
"535 1365 OFFCURVE",
"446 1365 CURVE SMOOTH",
"396 1365 OFFCURVE",
"349 1353 OFFCURVE",
"294 1293 CURVE",
"303 1209 LINE",
"354 1247 OFFCURVE",
"383 1271 OFFCURVE",
"433 1271 CURVE SMOOTH",
"499 1271 OFFCURVE",
"562 1204 OFFCURVE",
"680 1204 CURVE SMOOTH"
);
}
);
width = 1200;
},
{
anchors = (
{
name = _top;
position = "{603, 1140}";
},
{
name = _top.dot;
position = "{603, 1123}";
},
{
name = top;
position = "{603, 1465}";
}
);
layerId = "1F90C004-9C90-48FA-B407-176B3E9F1E65";
paths = (
{
closed = 1;
nodes = (
"750 1183 OFFCURVE",
"844 1217 OFFCURVE",
"913 1280 CURVE",
"903 1415 LINE",
"829 1370 OFFCURVE",
"766 1334 OFFCURVE",
"691 1334 CURVE SMOOTH",
"598 1334 OFFCURVE",
"537 1401 OFFCURVE",
"446 1401 CURVE SMOOTH",
"389 1401 OFFCURVE",
"345 1373 OFFCURVE",
"290 1312 CURVE",
"299 1189 LINE",
"352 1227 OFFCURVE",
"379 1250 OFFCURVE",
"428 1250 CURVE SMOOTH",
"490 1250 OFFCURVE",
"571 1183 OFFCURVE",
"680 1183 CURVE SMOOTH"
);
}
);
width = 1200;
},
{
anchors = (
{
name = _top;
position = "{603, 1140}";
},
{
name = _top.dot;
position = "{603, 1123}";
},
{
name = top;
position = "{603, 1485}";
}
);
layerId = "8E053A5E-67DA-4970-A6F5-068DBFE5AD21";
paths = (
{
closed = 1;
nodes = (
"750 1175 OFFCURVE",
"844 1209 OFFCURVE",
"913 1272 CURVE",
"903 1423 LINE",
"829 1378 OFFCURVE",
"766 1342 OFFCURVE",
"691 1342 CURVE SMOOTH",
"598 1342 OFFCURVE",
"537 1409 OFFCURVE",
"446 1409 CURVE SMOOTH",
"389 1409 OFFCURVE",
"345 1381 OFFCURVE",
"290 1320 CURVE",
"299 1181 LINE",
"352 1219 OFFCURVE",
"379 1242 OFFCURVE",
"428 1242 CURVE SMOOTH",
"490 1242 OFFCURVE",
"571 1175 OFFCURVE",
"680 1175 CURVE SMOOTH"
);
}
);
width = 1200;
}
);
unicode = 0653;
}
{
glyphname = "zero-ar";
layers = (
{
layerId = master01;
paths = (
{
closed = 1;
nodes = (
"749 489 LINE",
"591 644 LINE",
"452 496 LINE",
"607 344 LINE"
);
}
);
width = 1200;
},
{
layerId = "1F90C004-9C90-48FA-B407-176B3E9F1E65";
paths = (
{
closed = 1;
nodes = (
"816 486 LINE",
"586 711 LINE",
"385 496 LINE",
"610 277 LINE"
);
}
);
width = 1200;
},
{
layerId = "8E053A5E-67DA-4970-A6F5-068DBFE5AD21";
paths = (
{
closed = 1;
nodes = (
"865 485 LINE",
"583 760 LINE",
"336 496 LINE",
"613 228 LINE"
);
}
);
width = 1200;
}
);
unicode = 0660;
}
{
glyphname = "one-ar";
layers = (
{
layerId = master01;
paths = (
{
closed = 1;
nodes = (
"757 0 LINE",
"771 550 OFFCURVE",
"710 1010 OFFCURVE",
"484 1442 CURVE",
"391 1408 LINE",
"617 950 OFFCURVE",
"673 550 OFFCURVE",
"661 0 CURVE"
);
}
);
width = 1200;
},
{
layerId = "1F90C004-9C90-48FA-B407-176B3E9F1E65";
paths = (
{
closed = 1;
nodes = (
"819 0 LINE",
"840 560 OFFCURVE",
"780 1020 OFFCURVE",
"554 1442 CURVE",
"335 1374 LINE",
"547 967 OFFCURVE",
"615 520 OFFCURVE",
"607 0 CURVE"
);
}
);
width = 1200;
},
{
layerId = "8E053A5E-67DA-4970-A6F5-068DBFE5AD21";
paths = (
{
closed = 1;
nodes = (
"847 0 LINE",
"868 560 OFFCURVE",
"808 1020 OFFCURVE",
"582 1442 CURVE",
"307 1374 LINE",
"519 967 OFFCURVE",
"587 520 OFFCURVE",
"579 0 CURVE"
);
}
);
width = 1200;
}
);
unicode = 0661;
}
{
glyphname = "two-ar";
layers = (
{
layerId = master01;
paths = (
{
closed = 1;
nodes = (
"621 0 LINE",
"621 421 OFFCURVE",
"517 814 OFFCURVE",
"392 1097 CURVE",
"370 1067 LINE",
"406 972 OFFCURVE",
"508 921 OFFCURVE",
"675 921 CURVE SMOOTH",
"927 921 OFFCURVE",
"1039 1013 OFFCURVE",
"1039 1282 CURVE SMOOTH",
"1039 1326 OFFCURVE",
"1037 1380 OFFCURVE",
"1034 1420 CURVE",
"942 1420 LINE",
"946 1379 OFFCURVE",
"949 1327 OFFCURVE",
"949 1274 CURVE SMOOTH",
"949 1067 OFFCURVE",
"850 1015 OFFCURVE",
"670 1015 CURVE SMOOTH",
"488 1015 OFFCURVE",
"436 1060 OFFCURVE",
"392 1148 CURVE SMOOTH",
"363 1206 OFFCURVE",
"326 1300 OFFCURVE",
"271 1442 CURVE",
"176 1412 LINE",
"365 973 OFFCURVE",
"532 453 OFFCURVE",
"525 0 CURVE"
);
}
);
width = 1200;
},
{
layerId = "1F90C004-9C90-48FA-B407-176B3E9F1E65";
paths = (
{
closed = 1;
nodes = (
"695 0 LINE",
"695 431 OFFCURVE",
"594 814 OFFCURVE",
"469 1097 CURVE",
"407 1067 LINE",
"443 982 OFFCURVE",
"518 897 OFFCURVE",
"695 897 CURVE SMOOTH",
"927 897 OFFCURVE",
"1059 1003 OFFCURVE",
"1059 1282 CURVE SMOOTH",
"1059 1316 OFFCURVE",
"1057 1382 OFFCURVE",
"1054 1420 CURVE",
"882 1420 LINE",
"886 1379 OFFCURVE",
"889 1347 OFFCURVE",
"889 1294 CURVE SMOOTH",
"889 1157 OFFCURVE",
"840 1109 OFFCURVE",
"670 1109 CURVE SMOOTH",
"538 1109 OFFCURVE",
"486 1126 OFFCURVE",
"446 1206 CURVE SMOOTH",
"417 1264 OFFCURVE",
"401 1300 OFFCURVE",
"348 1442 CURVE",
"138 1374 LINE",
"327 945 OFFCURVE",
"492 453 OFFCURVE",
"485 0 CURVE"
);
}
);
width = 1200;
},
{
layerId = "8E053A5E-67DA-4970-A6F5-068DBFE5AD21";
paths = (
{
closed = 1;
nodes = (
"727 0 LINE",
"727 431 OFFCURVE",
"626 814 OFFCURVE",
"501 1097 CURVE",
"407 1047 LINE",
"443 962 OFFCURVE",
"508 877 OFFCURVE",
"685 877 CURVE SMOOTH",
"928 877 OFFCURVE",
"1079 973 OFFCURVE",
"1079 1282 CURVE SMOOTH",
"1079 1336 OFFCURVE",
"1076 1382 OFFCURVE",
"1072 1420 CURVE",
"831 1420 LINE",
"835 1379 OFFCURVE",
"838 1357 OFFCURVE",
"838 1304 CURVE SMOOTH",
"838 1187 OFFCURVE",
"790 1149 OFFCURVE",
"657 1149 CURVE SMOOTH",
"545 1149 OFFCURVE",
"509 1179 OFFCURVE",
"474 1251 CURVE SMOOTH",
"452 1296 OFFCURVE",
"445 1316 OFFCURVE",
"398 1442 CURVE",
"118 1374 LINE",
"307 945 OFFCURVE",
"472 453 OFFCURVE",
"465 0 CURVE"
);
}
);
width = 1200;
}
);
unicode = 0662;
}
{
glyphname = "three-ar";
layers = (
{
layerId = master01;
paths = (
{
closed = 1;
nodes = (
"499 0 LINE",
"491 491 OFFCURVE",
"403 808 OFFCURVE",
"287 1114 CURVE",
"269 1087 LINE",
"314 946 OFFCURVE",
"367 921 OFFCURVE",
"473 921 CURVE SMOOTH",
"560 921 OFFCURVE",
"629 945 OFFCURVE",
"655 1024 CURVE",
"683 1024 LINE",
"693 1052 OFFCURVE",
"699 1085 OFFCURVE",
"701 1124 CURVE",
"649 1120 LINE",
"654 947 OFFCURVE",
"784 921 OFFCURVE",
"868 921 CURVE SMOOTH",
"1017 921 OFFCURVE",
"1095 997 OFFCURVE",
"1095 1222 CURVE SMOOTH",
"1095 1286 OFFCURVE",
"1092 1351 OFFCURVE",
"1087 1420 CURVE",
"997 1420 LINE",
"1001 1348 OFFCURVE",
"1003 1286 OFFCURVE",
"1003 1249 CURVE SMOOTH",
"1003 1056 OFFCURVE",
"971 1015 OFFCURVE",
"870 1015 CURVE SMOOTH",
"751 1015 OFFCURVE",
"723 1055 OFFCURVE",
"719 1173 CURVE SMOOTH",
"717 1233 OFFCURVE",
"717 1293 OFFCURVE",
"717 1420 CURVE",
"625 1420 LINE",
"625 1295 OFFCURVE",
"625 1220 OFFCURVE",
"623 1167 CURVE SMOOTH",
"619 1064 OFFCURVE",
"592 1015 OFFCURVE",
"472 1015 CURVE SMOOTH",
"350 1015 OFFCURVE",
"328 1065 OFFCURVE",
"289 1167 CURVE SMOOTH",
"268 1223 OFFCURVE",
"245 1287 OFFCURVE",
"194 1440 CURVE",
"94 1414 LINE",
"266 974 OFFCURVE",
"400 524 OFFCURVE",
"403 0 CURVE"
);
}
);
width = 1200;
},
{
layerId = "1F90C004-9C90-48FA-B407-176B3E9F1E65";
paths = (
{
closed = 1;
nodes = (
"575 0 LINE",
"575 501 OFFCURVE",
"475 808 OFFCURVE",
"359 1114 CURVE",
"271 1067 LINE",
"326 936 OFFCURVE",
"399 897 OFFCURVE",
"485 897 CURVE SMOOTH",
"562 897 OFFCURVE",
"643 925 OFFCURVE",
"662 1024 CURVE",
"699 1024 LINE",
"709 1052 OFFCURVE",
"715 1085 OFFCURVE",
"717 1124 CURVE",
"665 1120 LINE",
"680 927 OFFCURVE",
"776 897 OFFCURVE",
"880 897 CURVE SMOOTH",
"1057 897 OFFCURVE",
"1127 1017 OFFCURVE",
"1127 1282 CURVE SMOOTH",
"1127 1326 OFFCURVE",
"1124 1371 OFFCURVE",
"1119 1420 CURVE",
"952 1420 LINE",
"956 1368 OFFCURVE",
"958 1326 OFFCURVE",
"958 1289 CURVE SMOOTH",
"958 1126 OFFCURVE",
"917 1109 OFFCURVE",
"852 1109 CURVE SMOOTH",
"808 1109 OFFCURVE",
"779 1125 OFFCURVE",
"773 1173 CURVE SMOOTH",
"767 1223 OFFCURVE",
"770 1297 OFFCURVE",
"770 1420 CURVE",
"603 1420 LINE",
"600 1295 OFFCURVE",
"604 1218 OFFCURVE",
"587 1167 CURVE SMOOTH",
"573 1124 OFFCURVE",
"534 1109 OFFCURVE",
"474 1109 CURVE SMOOTH",
"422 1109 OFFCURVE",
"388 1122 OFFCURVE",
"364 1167 CURVE SMOOTH",
"337 1218 OFFCURVE",
"316 1286 OFFCURVE",
"266 1440 CURVE",
"56 1374 LINE",
"228 934 OFFCURVE",
"362 504 OFFCURVE",
"365 0 CURVE"
);
}
);
width = 1200;
},
{
layerId = "8E053A5E-67DA-4970-A6F5-068DBFE5AD21";
paths = (
{
closed = 1;
nodes = (
"615 0 LINE",
"615 501 OFFCURVE",
"523 788 OFFCURVE",
"407 1094 CURVE",
"271 1047 LINE",
"326 916 OFFCURVE",
"399 877 OFFCURVE",
"485 877 CURVE SMOOTH",
"562 877 OFFCURVE",
"636 905 OFFCURVE",
"662 1004 CURVE",
"699 1004 LINE",
"709 1032 OFFCURVE",
"715 1065 OFFCURVE",
"717 1104 CURVE",
"665 1100 LINE",
"680 907 OFFCURVE",
"796 877 OFFCURVE",
"900 877 CURVE SMOOTH",
"1067 877 OFFCURVE",
"1147 1007 OFFCURVE",
"1147 1282 CURVE SMOOTH",
"1147 1326 OFFCURVE",
"1144 1371 OFFCURVE",
"1139 1420 CURVE",
"922 1420 LINE",
"926 1368 OFFCURVE",
"928 1326 OFFCURVE",
"928 1289 CURVE SMOOTH",
"928 1174 OFFCURVE",
"916 1149 OFFCURVE",
"857 1149 CURVE SMOOTH",
"814 1149 OFFCURVE",
"796 1170 OFFCURVE",
"793 1213 CURVE SMOOTH",
"790 1263 OFFCURVE",
"790 1297 OFFCURVE",
"790 1420 CURVE",
"563 1420 LINE",
"561 1295 OFFCURVE",
"562 1242 OFFCURVE",
"547 1197 CURVE SMOOTH",
"534 1159 OFFCURVE",
"498 1149 OFFCURVE",
"466 1149 CURVE SMOOTH",
"431 1149 OFFCURVE",
"413 1162 OFFCURVE",
"396 1197 CURVE SMOOTH",
"372 1245 OFFCURVE",
"358 1286 OFFCURVE",
"306 1440 CURVE",
"46 1374 LINE",
"218 934 OFFCURVE",
"352 504 OFFCURVE",
"355 0 CURVE"
);
}
);
width = 1200;
}
);
unicode = 0663;
}
{
glyphname = "four-ar";
layers = (
{
layerId = master01;
paths = (
{
closed = 1;
nodes = (
"820 -6 OFFCURVE",
"930 16 OFFCURVE",
"1035 52 CURVE",
"1023 136 LINE",
"897 103 OFFCURVE",
"788 88 OFFCURVE",
"675 88 CURVE SMOOTH",
"508 88 OFFCURVE",
"337 131 OFFCURVE",
"337 304 CURVE SMOOTH",
"337 433 OFFCURVE",
"439 572 OFFCURVE",
"880 684 CURVE",
"876 773 LINE",
"557 773 OFFCURVE",
"369 834 OFFCURVE",
"369 995 CURVE SMOOTH",
"369 1118 OFFCURVE",
"464 1221 OFFCURVE",
"885 1347 CURVE",
"876 1439 LINE",
"391 1294 OFFCURVE",
"277 1166 OFFCURVE",
"277 988 CURVE SMOOTH",
"277 813 OFFCURVE",
"429 723 OFFCURVE",
"643 707 CURVE",
"643 676 LINE",
"784 676 LINE",
"781 738 LINE",
"431 629 OFFCURVE",
"245 502 OFFCURVE",
"245 299 CURVE SMOOTH",
"245 101 OFFCURVE",
"381 -6 OFFCURVE",
"669 -6 CURVE SMOOTH"
);
}
);
width = 1200;
},
{
layerId = "1F90C004-9C90-48FA-B407-176B3E9F1E65";
paths = (
{
closed = 1;
nodes = (
"810 -6 OFFCURVE",
"940 8 OFFCURVE",
"1045 52 CURVE",
"1025 246 LINE",
"899 216 OFFCURVE",
"810 206 OFFCURVE",
"697 206 CURVE SMOOTH",
"530 206 OFFCURVE",
"446 241 OFFCURVE",
"446 354 CURVE SMOOTH",
"446 453 OFFCURVE",
"529 547 OFFCURVE",
"900 649 CURVE",
"893 831 LINE",
"604 829 OFFCURVE",
"488 864 OFFCURVE",
"488 985 CURVE SMOOTH",
"488 1098 OFFCURVE",
"554 1158 OFFCURVE",
"905 1234 CURVE",
"886 1439 LINE",
"401 1324 OFFCURVE",
"267 1166 OFFCURVE",
"267 988 CURVE SMOOTH",
"267 813 OFFCURVE",
"409 731 OFFCURVE",
"593 707 CURVE",
"593 676 LINE",
"734 673 LINE",
"731 742 LINE",
"401 639 OFFCURVE",
"225 512 OFFCURVE",
"225 309 CURVE SMOOTH",
"225 101 OFFCURVE",
"371 -6 OFFCURVE",
"659 -6 CURVE SMOOTH"
);
}
);
width = 1200;
},
{
layerId = "8E053A5E-67DA-4970-A6F5-068DBFE5AD21";
paths = (
{
closed = 1;
nodes = (
"790 -10 OFFCURVE",
"940 9 OFFCURVE",
"1055 52 CURVE",
"1035 329 LINE",
"889 297 OFFCURVE",
"790 285 OFFCURVE",
"697 285 CURVE SMOOTH",
"550 285 OFFCURVE",
"494 313 OFFCURVE",
"494 376 CURVE SMOOTH",
"494 435 OFFCURVE",
"536 497 OFFCURVE",
"917 619 CURVE",
"910 869 LINE",
"571 877 OFFCURVE",
"528 904 OFFCURVE",
"528 975 CURVE SMOOTH",
"528 1028 OFFCURVE",
"574 1081 OFFCURVE",
"915 1174 CURVE",
"896 1439 LINE",
"411 1314 OFFCURVE",
"257 1166 OFFCURVE",
"257 978 CURVE SMOOTH",
"257 813 OFFCURVE",
"349 734 OFFCURVE",
"533 710 CURVE",
"533 676 LINE",
"674 673 LINE",
"671 743 LINE",
"341 620 OFFCURVE",
"215 492 OFFCURVE",
"215 309 CURVE SMOOTH",
"215 111 OFFCURVE",
"371 -10 OFFCURVE",
"659 -10 CURVE SMOOTH"
);
}
);
width = 1200;
}
);
unicode = 0664;
}
{
glyphname = "five-ar";
layers = (
{
layerId = master01;
paths = (
{
closed = 1;
nodes = (
"842 -3 OFFCURVE",
"1020 108 OFFCURVE",
"1020 463 CURVE SMOOTH",
"1020 813 OFFCURVE",
"887 1066 OFFCURVE",
"622 1066 CURVE SMOOTH",
"336 1066 OFFCURVE",
"180 799 OFFCURVE",
"180 429 CURVE SMOOTH",
"180 133 OFFCURVE",
"310 -3 OFFCURVE",
"593 -3 CURVE SMOOTH"
);
},
{
closed = 1;
nodes = (
"382 91 OFFCURVE",
"272 170 OFFCURVE",
"272 451 CURVE SMOOTH",
"272 792 OFFCURVE",
"417 972 OFFCURVE",
"617 972 CURVE SMOOTH",
"800 972 OFFCURVE",
"928 806 OFFCURVE",
"928 459 CURVE SMOOTH",
"928 176 OFFCURVE",
"795 91 OFFCURVE",
"595 91 CURVE SMOOTH"
);
}
);
width = 1200;
},
{
layerId = "1F90C004-9C90-48FA-B407-176B3E9F1E65";
paths = (
{
closed = 1;
nodes = (
"842 -6 OFFCURVE",
"1040 108 OFFCURVE",
"1040 453 CURVE SMOOTH",
"1040 793 OFFCURVE",
"906 1070 OFFCURVE",
"613 1070 CURVE SMOOTH",
"327 1070 OFFCURVE",
"160 799 OFFCURVE",
"160 429 CURVE SMOOTH",
"160 133 OFFCURVE",
"300 -6 OFFCURVE",
"593 -6 CURVE SMOOTH"
);
},
{
closed = 1;
nodes = (
"442 206 OFFCURVE",
"360 260 OFFCURVE",
"360 451 CURVE SMOOTH",
"360 732 OFFCURVE",
"454 858 OFFCURVE",
"605 858 CURVE SMOOTH",
"756 858 OFFCURVE",
"840 746 OFFCURVE",
"840 459 CURVE SMOOTH",
"840 266 OFFCURVE",
"747 206 OFFCURVE",
"595 206 CURVE SMOOTH"
);
}
);
width = 1200;
},
{
layerId = "8E053A5E-67DA-4970-A6F5-068DBFE5AD21";
paths = (
{
closed = 1;
nodes = (
"842 -10 OFFCURVE",
"1050 98 OFFCURVE",
"1050 453 CURVE SMOOTH",
"1050 803 OFFCURVE",
"906 1080 OFFCURVE",
"613 1080 CURVE SMOOTH",
"327 1080 OFFCURVE",
"150 809 OFFCURVE",
"150 429 CURVE SMOOTH",
"150 123 OFFCURVE",
"300 -10 OFFCURVE",
"593 -10 CURVE SMOOTH"
);
},
{
closed = 1;
nodes = (
"442 285 OFFCURVE",
"396 320 OFFCURVE",
"396 451 CURVE SMOOTH",
"396 632 OFFCURVE",
"455 785 OFFCURVE",
"607 785 CURVE SMOOTH",
"758 785 OFFCURVE",
"804 646 OFFCURVE",
"804 459 CURVE SMOOTH",
"804 326 OFFCURVE",
"747 285 OFFCURVE",
"595 285 CURVE SMOOTH"
);
}
);
width = 1200;
}
);
unicode = 0665;
}
{
glyphname = "six-ar";
layers = (
{
layerId = master01;
paths = (
{
closed = 1;
nodes = (
"988 0 LINE",
"919 394 OFFCURVE",
"841 930 OFFCURVE",
"821 1420 CURVE",
"602 1406 OFFCURVE",
"348 1404 OFFCURVE",
"129 1420 CURVE",
"129 1326 LINE",
"352 1308 OFFCURVE",
"587 1313 OFFCURVE",
"772 1325 CURVE",
"730 1343 LINE",
"745 950 OFFCURVE",
"825 395 OFFCURVE",
"896 0 CURVE"
);
}
);
width = 1200;
},
{
layerId = "1F90C004-9C90-48FA-B407-176B3E9F1E65";
paths = (
{
closed = 1;
nodes = (
"1018 0 LINE",
"950 394 OFFCURVE",
"871 950 OFFCURVE",
"851 1420 CURVE",
"628 1407 OFFCURVE",
"312 1408 OFFCURVE",
"109 1420 CURVE",
"109 1230 LINE",
"327 1209 OFFCURVE",
"557 1211 OFFCURVE",
"772 1227 CURVE",
"651 1276 LINE",
"666 913 OFFCURVE",
"736 395 OFFCURVE",
"797 0 CURVE"
);
}
);
width = 1200;
},
{
layerId = "8E053A5E-67DA-4970-A6F5-068DBFE5AD21";
paths = (
{
closed = 1;
nodes = (
"1037 0 LINE",
"969 394 OFFCURVE",
"892 940 OFFCURVE",
"862 1420 CURVE",
"629 1408 OFFCURVE",
"312 1408 OFFCURVE",
"109 1420 CURVE",
"109 1133 LINE",
"327 1112 OFFCURVE",
"567 1117 OFFCURVE",
"772 1133 CURVE",
"611 1276 LINE",
"626 913 OFFCURVE",
"696 395 OFFCURVE",
"757 0 CURVE"
);
}
);
width = 1200;
}
);
unicode = 0666;
}
{
glyphname = "seven-ar";
layers = (
{
layerId = master01;
paths = (
{
closed = 1;
nodes = (
"654 0 LINE",
"797 471 OFFCURVE",
"991 1039 OFFCURVE",
"1126 1411 CURVE",
"1032 1440 LINE",
"899 1057 OFFCURVE",
"704 485 OFFCURVE",
"602 94 CURVE",
"659 104 LINE",
"670 141 LINE",
"599 141 LINE",
"515 470 OFFCURVE",
"317 1053 OFFCURVE",
"167 1440 CURVE",
"74 1409 LINE",
"231 1026 OFFCURVE",
"449 364 OFFCURVE",
"555 0 CURVE"
);
}
);
width = 1200;
},
{
layerId = "1F90C004-9C90-48FA-B407-176B3E9F1E65";
paths = (
{
closed = 1;
nodes = (
"724 0 LINE",
"848 434 OFFCURVE",
"1035 1039 OFFCURVE",
"1156 1401 CURVE",
"945 1440 LINE",
"836 1087 OFFCURVE",
"654 445 OFFCURVE",
"582 104 CURVE",
"679 104 LINE",
"650 261 LINE",
"599 261 LINE",
"515 590 OFFCURVE",
"373 1083 OFFCURVE",
"256 1440 CURVE",
"44 1389 LINE",
"186 1006 OFFCURVE",
"379 364 OFFCURVE",
"485 0 CURVE"
);
}
);
width = 1200;
},
{
layerId = "8E053A5E-67DA-4970-A6F5-068DBFE5AD21";
paths = (
{
closed = 1;
nodes = (
"734 0 LINE",
"868 484 OFFCURVE",
"1055 1078 OFFCURVE",
"1166 1401 CURVE",
"885 1440 LINE",
"808 1194 OFFCURVE",
"664 670 OFFCURVE",
"592 229 CURVE",
"668 229 LINE",
"635 406 LINE",
"600 406 LINE",
"527 735 OFFCURVE",
"430 1093 OFFCURVE",
"313 1440 CURVE",
"34 1389 LINE",
"176 1006 OFFCURVE",
"369 364 OFFCURVE",
"475 0 CURVE"
);
}
);
width = 1200;
}
);
unicode = 0667;
}
{
glyphname = "nine-ar";
layers = (
{
layerId = master01;
paths = (
{
closed = 1;
nodes = (
"1067 0 LINE",
"1030 291 OFFCURVE",
"997 546 OFFCURVE",
"958 848 CURVE SMOOTH",
"900 1296 OFFCURVE",
"772 1440 OFFCURVE",
"558 1440 CURVE SMOOTH",
"329 1440 OFFCURVE",
"182 1200 OFFCURVE",
"182 940 CURVE SMOOTH",
"182 667 OFFCURVE",
"301 602 OFFCURVE",
"559 604 CURVE SMOOTH",
"669 605 OFFCURVE",
"826 626 OFFCURVE",
"865 698 CURVE",
"938 699 LINE",
"922 779 LINE",
"810 723 OFFCURVE",
"693 698 OFFCURVE",
"561 698 CURVE SMOOTH",
"351 698 OFFCURVE",
"274 733 OFFCURVE",
"274 947 CURVE SMOOTH",
"274 1190 OFFCURVE",
"406 1346 OFFCURVE",
"557 1346 CURVE SMOOTH",
"722 1346 OFFCURVE",
"819 1191 OFFCURVE",
"866 827 CURVE SMOOTH",
"907 512 OFFCURVE",
"942 270 OFFCURVE",
"975 -10 CURVE"
);
}
);
width = 1200;
},
{
layerId = "1F90C004-9C90-48FA-B407-176B3E9F1E65";
paths = (
{
closed = 1;
nodes = (
"1107 0 LINE",
"1071 301 OFFCURVE",
"1039 483 OFFCURVE",
"1002 775 CURVE SMOOTH",
"941 1253 OFFCURVE",
"827 1440 OFFCURVE",
"559 1440 CURVE SMOOTH",
"310 1440 OFFCURVE",
"145 1230 OFFCURVE",
"145 950 CURVE SMOOTH",
"145 677 OFFCURVE",
"261 562 OFFCURVE",
"519 564 CURVE SMOOTH",
"639 565 OFFCURVE",
"756 599 OFFCURVE",
"782 666 CURVE",
"863 666 LINE",
"849 835 LINE",
"727 789 OFFCURVE",
"653 772 OFFCURVE",
"561 772 CURVE SMOOTH",
"401 772 OFFCURVE",
"352 823 OFFCURVE",
"352 967 CURVE SMOOTH",
"352 1130 OFFCURVE",
"445 1224 OFFCURVE",
"540 1224 CURVE SMOOTH",
"669 1224 OFFCURVE",
"731 1131 OFFCURVE",
"775 827 CURVE SMOOTH",
"816 541 OFFCURVE",
"860 250 OFFCURVE",
"893 -10 CURVE"
);
}
);
width = 1200;
},
{
layerId = "8E053A5E-67DA-4970-A6F5-068DBFE5AD21";
paths = (
{
closed = 1;
nodes = (
"1117 0 LINE",
"1081 293 OFFCURVE",
"1050 486 OFFCURVE",
"1009 775 CURVE SMOOTH",
"940 1263 OFFCURVE",
"825 1440 OFFCURVE",
"558 1440 CURVE SMOOTH",
"309 1440 OFFCURVE",
"135 1230 OFFCURVE",
"135 940 CURVE SMOOTH",
"135 677 OFFCURVE",
"246 552 OFFCURVE",
"494 554 CURVE SMOOTH",
"624 555 OFFCURVE",
"700 599 OFFCURVE",
"726 666 CURVE",
"823 666 LINE",
"819 915 LINE",
"697 869 OFFCURVE",
"653 852 OFFCURVE",
"561 852 CURVE SMOOTH",
"421 852 OFFCURVE",
"392 880 OFFCURVE",
"392 964 CURVE SMOOTH",
"392 1067 OFFCURVE",
"452 1145 OFFCURVE",
"537 1145 CURVE SMOOTH",
"636 1145 OFFCURVE",
"703 1091 OFFCURVE",
"735 827 CURVE SMOOTH",
"770 541 OFFCURVE",
"812 260 OFFCURVE",
"853 -10 CURVE"
);
}
);
width = 1200;
}
);
unicode = 0669;
}
{
color = 10;
glyphname = emdash;
layers = (
{
layerId = master01;
paths = (
{
closed = 1;
nodes = (
"1160 664 LINE",
"1160 754 LINE",
"40 754 LINE",
"40 664 LINE"
);
}
);
width = 1200;
},
{
layerId = "1F90C004-9C90-48FA-B407-176B3E9F1E65";
paths = (
{
closed = 1;
nodes = (
"1160 616 LINE",
"1160 802 LINE",
"40 802 LINE",
"40 616 LINE"
);
}
);
width = 1200;
},
{
layerId = "8E053A5E-67DA-4970-A6F5-068DBFE5AD21";
paths = (
{
closed = 1;
nodes = (
"1160 584 LINE",
"1160 834 LINE",
"40 834 LINE",
"40 584 LINE"
);
}
);
width = 1200;
}
);
unicode = 2014;
}
{
color = 10;
glyphname = trademark;
layers = (
{
layerId = master01;
paths = (
{
closed = 1;
nodes = (
"301 774 LINE",
"301 1420 LINE",
"207 1420 LINE",
"207 774 LINE"
);
},
{
closed = 1;
nodes = (
"465 1330 LINE",
"465 1420 LINE",
"43 1420 LINE",
"43 1330 LINE"
);
},
{
closed = 1;
nodes = (
"882 982 LINE",
"1011 1328 LINE",
"1109 1328 LINE",
"1109 1420 LINE",
"957 1420 LINE",
"837 1083 LINE",
"833 1083 LINE",
"823 982 LINE"
);
},
{
closed = 1;
nodes = (
"655 774 LINE",
"655 1420 LINE",
"561 1420 LINE",
"561 774 LINE"
);
},
{
closed = 1;
nodes = (
"847 982 LINE",
"837 1083 LINE",
"833 1083 LINE",
"713 1420 LINE",
"561 1420 LINE",
"561 1328 LINE",
"659 1328 LINE",
"788 982 LINE"
);
},
{
closed = 1;
nodes = (
"1109 774 LINE",
"1109 1420 LINE",
"1015 1420 LINE",
"1015 774 LINE"
);
}
);
width = 1200;
},
{
layerId = "1F90C004-9C90-48FA-B407-176B3E9F1E65";
paths = (
{
closed = 1;
nodes = (
"328 774 LINE",
"328 1420 LINE",
"177 1420 LINE",
"177 774 LINE"
);
},
{
closed = 1;
nodes = (
"489 1288 LINE",
"489 1420 LINE",
"19 1420 LINE",
"19 1288 LINE"
);
},
{
closed = 1;
nodes = (
"894 982 LINE",
"973 1248 LINE",
"1004 1248 LINE",
"1004 1420 LINE",
"924 1420 LINE",
"839 1143 LINE",
"833 1143 LINE",
"817 982 LINE"
);
},
{
closed = 1;
nodes = (
"673 774 LINE",
"673 1420 LINE",
"527 1420 LINE",
"527 774 LINE"
);
},
{
closed = 1;
nodes = (
"845 982 LINE",
"835 1143 LINE",
"831 1143 LINE",
"746 1420 LINE",
"656 1420 LINE",
"656 1248 LINE",
"687 1248 LINE",
"776 982 LINE"
);
},
{
closed = 1;
nodes = (
"1133 774 LINE",
"1133 1420 LINE",
"987 1420 LINE",
"987 774 LINE"
);
}
);
width = 1200;
},
{
layerId = "8E053A5E-67DA-4970-A6F5-068DBFE5AD21";
paths = (
{
closed = 1;
nodes = (
"346 774 LINE",
"346 1420 LINE",
"162 1420 LINE",
"162 774 LINE"
);
},
{
closed = 1;
nodes = (
"499 1238 LINE",
"499 1420 LINE",
"12 1420 LINE",
"12 1238 LINE"
);
},
{
closed = 1;
nodes = (
"925 982 LINE",
"971 1198 LINE",
"1010 1198 LINE",
"1010 1420 LINE",
"905 1420 LINE",
"862 1235 LINE",
"856 1235 LINE",
"840 982 LINE"
);
},
{
closed = 1;
nodes = (
"712 774 LINE",
"712 1420 LINE",
"537 1420 LINE",
"537 774 LINE"
);
},
{
closed = 1;
nodes = (
"868 982 LINE",
"858 1235 LINE",
"854 1235 LINE",
"810 1420 LINE",
"695 1420 LINE",
"695 1198 LINE",
"735 1198 LINE",
"790 982 LINE"
);
},
{
closed = 1;
nodes = (
"1160 774 LINE",
"1160 1420 LINE",
"993 1420 LINE",
"993 774 LINE"
);
}
);
width = 1200;
}
);
unicode = 2122;
}
{
color = 10;
glyphname = minus;
layers = (
{
layerId = master01;
paths = (
{
closed = 1;
nodes = (
"1076 664 LINE",
"1076 754 LINE",
"124 754 LINE",
"124 664 LINE"
);
}
);
width = 1200;
},
{
guideLines = (
{
position = "{734, 707}";
}
);
layerId = "1F90C004-9C90-48FA-B407-176B3E9F1E65";
paths = (
{
closed = 1;
nodes = (
"1100 616 LINE",
"1100 802 LINE",
"100 802 LINE",
"100 616 LINE"
);
}
);
width = 1200;
},
{
layerId = "8E053A5E-67DA-4970-A6F5-068DBFE5AD21";
paths = (
{
closed = 1;
nodes = (
"1117 584 LINE",
"1117 834 LINE",
"83 834 LINE",
"83 584 LINE"
);
}
);
width = 1200;
}
);
unicode = 2212;
}
{
glyphname = "_alef-ar.fina.rlig";
layers = (
{
anchors = (
{
name = _overlap;
position = "{0, 0}";
},
{
name = bottom;
position = "{343, -141}";
},
{
name = bottom.dot;
position = "{343, -26}";
},
{
name = top;
position = "{294, 1317}";
}
);
layerId = master01;
paths = (
{
closed = 1;
nodes = (
"947 -3 OFFCURVE",
"1014 88 OFFCURVE",
"1014 229 CURVE SMOOTH",
"1014 462 OFFCURVE",
"665 738 OFFCURVE",
"193 1248 CURVE",
"123 1169 LINE",
"602 656 OFFCURVE",
"920 408 OFFCURVE",
"920 216 CURVE SMOOTH",
"920 113 OFFCURVE",
"802 91 OFFCURVE",
"634 91 CURVE SMOOTH",
"553 91 OFFCURVE",
"382 95 OFFCURVE",
"246 106 CURVE",
"207 139 LINE",
"206 10 LINE",
"404 -4 OFFCURVE",
"474 -3 OFFCURVE",
"642 -3 CURVE SMOOTH"
);
}
);
userData = {
com.schriftgestaltung.Glyphs.lastChange = "2020-11-20 22:14:03 +0000";
};
width = 0;
},
{
anchors = (
{
name = _overlap;
position = "{0, 0}";
},
{
name = bottom;
position = "{343, -141}";
},
{
name = bottom.dot;
position = "{343, -26}";
},
{
name = top;
position = "{294, 1367}";
}
);
layerId = "8E053A5E-67DA-4970-A6F5-068DBFE5AD21";
paths = (
{
closed = 1;
nodes = (
"947 -10 OFFCURVE",
"1093 102 OFFCURVE",
"1093 310 CURVE SMOOTH",
"1093 571 OFFCURVE",
"764 826 OFFCURVE",
"244 1308 CURVE",
"51 1098 LINE",
"560 621 OFFCURVE",
"826 415 OFFCURVE",
"826 333 CURVE SMOOTH",
"826 290 OFFCURVE",
"772 285 OFFCURVE",
"634 285 CURVE SMOOTH",
"569 285 OFFCURVE",
"437 292 OFFCURVE",
"344 300 CURVE",
"170 273 LINE",
"166 10 LINE",
"364 -4 OFFCURVE",
"474 -10 OFFCURVE",
"642 -10 CURVE SMOOTH"
);
}
);
width = 0;
},
{
anchors = (
{
name = _overlap;
position = "{0, 0}";
},
{
name = bottom;
position = "{343, -141}";
},
{
name = bottom.dot;
position = "{343, -26}";
},
{
name = top;
position = "{294, 1317}";
}
);
layerId = "1F90C004-9C90-48FA-B407-176B3E9F1E65";
paths = (
{
closed = 1;
nodes = (
"947 -10 OFFCURVE",
"1044 91 OFFCURVE",
"1044 279 CURVE SMOOTH",
"1044 540 OFFCURVE",
"712 784 OFFCURVE",
"212 1276 CURVE",
"75 1124 LINE",
"564 639 OFFCURVE",
"850 438 OFFCURVE",
"850 296 CURVE SMOOTH",
"850 223 OFFCURVE",
"802 202 OFFCURVE",
"634 202 CURVE SMOOTH",
"553 202 OFFCURVE",
"480 206 OFFCURVE",
"344 217 CURVE",
"190 263 LINE",
"186 10 LINE",
"384 -4 OFFCURVE",
"474 -10 OFFCURVE",
"642 -10 CURVE SMOOTH"
);
}
);
width = 0;
}
);
}
{
glyphname = _alefabove;
layers = (
{
layerId = master01;
paths = (
{
closed = 1;
nodes = (
"663 578 LINE",
"673 698 OFFCURVE",
"662 868 OFFCURVE",
"628 999 CURVE",
"534 999 LINE",
"566 864 OFFCURVE",
"577 721 OFFCURVE",
"577 578 CURVE"
);
}
);
width = 1200;
},
{
layerId = "1F90C004-9C90-48FA-B407-176B3E9F1E65";
paths = (
{
closed = 1;
nodes = (
"696 578 LINE",
"707 678 OFFCURVE",
"697 868 OFFCURVE",
"663 999 CURVE",
"499 999 LINE",
"531 864 OFFCURVE",
"544 721 OFFCURVE",
"544 578 CURVE"
);
}
);
width = 1200;
},
{
layerId = "8E053A5E-67DA-4970-A6F5-068DBFE5AD21";
paths = (
{
closed = 1;
nodes = (
"716 568 LINE",
"727 668 OFFCURVE",
"717 878 OFFCURVE",
"683 1009 CURVE",
"479 1009 LINE",
"511 874 OFFCURVE",
"524 711 OFFCURVE",
"524 568 CURVE"
);
}
);
width = 1200;
}
);
}
{
glyphname = _bar;
layers = (
{
anchors = (
{
name = _center;
position = "{596, 318}";
}
);
layerId = master01;
paths = (
{
closed = 1;
nodes = (
"897 268 LINE",
"897 362 LINE",
"282 362 LINE",
"282 268 LINE"
);
}
);
width = 1200;
},
{
anchors = (
{
name = _center;
position = "{596, 318}";
}
);
layerId = "1F90C004-9C90-48FA-B407-176B3E9F1E65";
paths = (
{
closed = 1;
nodes = (
"915 235 LINE",
"915 381 LINE",
"264 381 LINE",
"264 235 LINE"
);
}
);
width = 1200;
},
{
anchors = (
{
name = _center;
position = "{596, 318}";
}
);
layerId = "8E053A5E-67DA-4970-A6F5-068DBFE5AD21";
paths = (
{
closed = 1;
nodes = (
"925 219 LINE",
"925 397 LINE",
"254 397 LINE",
"254 219 LINE"
);
}
);
width = 1200;
}
);
}
